<svg viewBox="0 0 8192 8192" xmlns="http://www.w3.org/2000/svg" version="1.1"><polygon id="18001" points="1995.46,2652.25 2095.48,2710.0 2095.48,2825.5 1995.46,2883.25 1895.43,2825.5 1795.4,2883.25 1795.4,2998.75 1695.38,3056.5 1595.35,2998.75 1495.33,3056.5 1395.3,2998.75 1295.27,3056.5 1195.25,2998.75 1095.22,3056.5 995.2,2998.75 995.2,2883.25 1095.22,2825.5 1095.22,2710.0 1195.25,2652.25 1195.25,2536.75 1295.27,2479.0 1295.27,2363.5 1395.3,2305.75 1495.33,2363.5 1595.35,2305.75 1695.38,2363.5 1795.4,2305.75 1895.43,2363.5 1895.43,2479.0 1995.46,2536.75" /><polygon id="18002" points="2295.53,2825.5 2195.51,2883.25 2095.48,2825.5 2095.48,2710.0 1995.46,2652.25 1995.46,2536.75 1895.43,2479.0 1895.43,2363.5 1995.46,2305.75 2095.48,2363.5 2195.51,2305.75 2295.53,2363.5 2395.56,2305.75 2395.56,2190.25 2495.59,2132.5 2595.61,2190.25 2695.64,2132.5 2795.66,2190.25 2795.66,2305.75 2895.69,2363.5 2895.69,2479.0 2795.66,2536.75 2795.66,2652.25 2695.64,2710.0 2695.64,2825.5 2595.61,2883.25 2495.59,2825.5 2395.56,2883.25" /><polygon id="18003" points="3695.9,2017.0 3795.92,1959.25 3795.92,1843.75 3695.9,1786.0 3695.9,1670.5 3595.87,1612.75 3595.87,1497.25 3495.84,1439.5 3395.82,1497.25 3295.79,1439.5 3195.77,1497.25 3095.74,1439.5 2995.71,1497.25 2895.69,1439.5 2795.66,1497.25 2795.66,1612.75 2695.64,1670.5 2695.64,1786.0 2595.61,1843.75 2595.61,1959.25 2495.59,2017.0 2495.59,2132.5 2595.61,2190.25 2695.64,2132.5 2795.66,2190.25 2795.66,2305.75 2895.69,2363.5 2995.71,2305.75 3095.74,2363.5 3195.77,2305.75 3295.79,2363.5 3395.82,2305.75 3495.84,2363.5 3595.87,2305.75 3595.87,2190.25 3695.9,2132.5" /><polygon id="18004" points="3995.97,2652.25 4096.0,2710.0 4096.0,2825.5 3995.97,2883.25 3895.95,2825.5 3795.92,2883.25 3695.9,2825.5 3595.87,2883.25 3495.84,2825.5 3495.84,2710.0 3395.82,2652.25 3395.82,2536.75 3495.84,2479.0 3495.84,2363.5 3595.87,2305.75 3595.87,2190.25 3695.9,2132.5 3795.92,2190.25 3795.92,2305.75 3895.95,2363.5 3895.95,2479.0 3995.97,2536.75" /><polygon id="18005" points="4296.05,3056.5 4196.03,2998.75 4196.03,2883.25 4096.0,2825.5 4096.0,2710.0 3995.97,2652.25 3995.97,2536.75 4096.0,2479.0 4196.03,2536.75 4296.05,2479.0 4396.08,2536.75 4496.1,2479.0 4496.1,2363.5 4396.08,2305.75 4396.08,2190.25 4496.1,2132.5 4596.13,2190.25 4696.16,2132.5 4796.18,2190.25 4796.18,2305.75 4896.21,2363.5 4896.21,2479.0 4996.23,2536.75 4996.23,2652.25 5096.26,2710.0 5096.26,2825.5 4996.23,2883.25 4996.23,2998.75 4896.21,3056.5 4896.21,3172.0 4796.18,3229.75 4796.18,3345.25 4696.16,3403.0 4696.16,3518.5 4596.13,3576.25 4496.1,3518.5 4496.1,3403.0 4396.08,3345.25 4396.08,3229.75 4296.05,3172.0" /><polygon id="18006" points="5396.34,1843.75 5496.36,1786.0 5596.39,1843.75 5596.39,1959.25 5696.41,2017.0 5696.41,2132.5 5796.44,2190.25 5796.44,2305.75 5896.47,2363.5 5896.47,2479.0 5796.44,2536.75 5796.44,2652.25 5696.41,2710.0 5596.39,2652.25 5496.36,2710.0 5496.36,2825.5 5396.34,2883.25 5296.31,2825.5 5196.29,2883.25 5096.26,2825.5 5096.26,2710.0 4996.23,2652.25 4996.23,2536.75 4896.21,2479.0 4896.21,2363.5 4796.18,2305.75 4796.18,2190.25 4896.21,2132.5 4896.21,2017.0 4796.18,1959.25 4796.18,1843.75 4896.21,1786.0 4996.23,1843.75 5096.26,1786.0 5196.29,1843.75 5296.31,1786.0" /><polygon id="18007" points="6196.54,2998.75 6296.57,3056.5 6396.6,2998.75 6496.62,3056.5 6496.62,3172.0 6596.65,3229.75 6596.65,3345.25 6496.62,3403.0 6396.6,3345.25 6296.57,3403.0 6296.57,3518.5 6196.54,3576.25 6096.52,3518.5 5996.49,3576.25 5896.47,3518.5 5796.44,3576.25 5696.41,3518.5 5696.41,3403.0 5596.39,3345.25 5596.39,3229.75 5496.36,3172.0 5496.36,3056.5 5596.39,2998.75 5696.41,3056.5 5796.44,2998.75 5896.47,3056.5 5996.49,2998.75 6096.52,3056.5" /><polygon id="18008" points="2995.71,3576.25 2895.69,3518.5 2895.69,3403.0 2795.66,3345.25 2695.64,3403.0 2595.61,3345.25 2495.59,3403.0 2495.59,3518.5 2395.56,3576.25 2395.56,3691.75 2295.53,3749.5 2295.53,3865.0 2395.56,3922.75 2395.56,4038.25 2495.59,4096.0 2595.61,4038.25 2695.64,4096.0 2695.64,4211.5 2795.66,4269.25 2895.69,4211.5 2895.69,4096.0 2995.71,4038.25 2995.71,3922.75 3095.74,3865.0 3095.74,3749.5 2995.71,3691.75" /><polygon id="18010" points="2795.66,4384.75 2695.64,4442.5 2695.64,4558.0 2795.66,4615.75 2795.66,4731.25 2895.69,4789.0 2895.69,4904.5 2795.66,4962.25 2795.66,5077.75 2895.69,5135.5 2995.71,5077.75 3095.74,5135.5 3195.77,5077.75 3195.77,4962.25 3295.79,4904.5 3295.79,4789.0 3395.82,4731.25 3395.82,4615.75 3495.84,4558.0 3495.84,4442.5 3395.82,4384.75 3395.82,4269.25 3295.79,4211.5 3195.77,4269.25 3095.74,4211.5 2995.71,4269.25 2895.69,4211.5 2795.66,4269.25" /><polygon id="18011" points="3995.97,5655.25 3995.97,5770.75 4096.0,5828.5 4096.0,5944.0 3995.97,6001.75 3995.97,6117.25 3895.95,6175.0 3895.95,6290.5 3995.97,6348.25 3995.97,6463.75 3895.95,6521.5 3795.92,6463.75 3695.9,6521.5 3595.87,6463.75 3495.84,6521.5 3395.82,6463.75 3295.79,6521.5 3195.77,6463.75 3095.74,6521.5 2995.71,6463.75 2995.71,6348.25 2895.69,6290.5 2895.69,6175.0 2795.66,6117.25 2795.66,6001.75 2895.69,5944.0 2895.69,5828.5 2995.71,5770.75 3095.74,5828.5 3195.77,5770.75 3295.79,5828.5 3395.82,5770.75 3495.84,5828.5 3595.87,5770.75 3595.87,5655.25 3695.9,5597.5 3695.9,5482.0 3795.92,5424.25 3895.95,5482.0 3995.97,5424.25 4096.0,5482.0 4096.0,5597.5" /><polygon id="18013" points="6796.7,4384.75 6696.67,4442.5 6596.65,4384.75 6496.62,4442.5 6396.6,4384.75 6296.57,4442.5 6196.54,4384.75 6096.52,4442.5 6096.52,4558.0 6196.54,4615.75 6196.54,4731.25 6296.57,4789.0 6296.57,4904.5 6196.54,4962.25 6196.54,5077.75 6296.57,5135.5 6396.6,5077.75 6496.62,5135.5 6596.65,5077.75 6696.67,5135.5 6796.7,5077.75 6896.73,5135.5 6996.75,5077.75 7096.78,5135.5 7196.8,5077.75 7196.8,4962.25 7096.78,4904.5 7096.78,4789.0 7196.8,4731.25 7196.8,4615.75 7096.78,4558.0 7096.78,4442.5 6996.75,4384.75 6896.73,4442.5" /><polygon id="18014" points="4496.1,5828.5 4596.13,5770.75 4596.13,5655.25 4696.16,5597.5 4796.18,5655.25 4896.21,5597.5 4996.23,5655.25 4996.23,5770.75 5096.26,5828.5 5096.26,5944.0 5196.29,6001.75 5196.29,6117.25 5096.26,6175.0 5096.26,6290.5 4996.23,6348.25 4896.21,6290.5 4796.18,6348.25 4696.16,6290.5 4596.13,6348.25 4496.1,6290.5 4496.1,6175.0 4596.13,6117.25 4596.13,6001.75 4496.1,5944.0" /><polygon id="18015" points="6796.7,6001.75 6896.73,5944.0 6896.73,5828.5 6996.75,5770.75 6996.75,5655.25 7096.78,5597.5 7096.78,5482.0 7196.8,5424.25 7196.8,5308.75 7296.83,5251.0 7296.83,5135.5 7196.8,5077.75 7096.78,5135.5 6996.75,5077.75 6896.73,5135.5 6796.7,5077.75 6696.67,5135.5 6596.65,5077.75 6496.62,5135.5 6396.6,5077.75 6296.57,5135.5 6296.57,5251.0 6396.6,5308.75 6396.6,5424.25 6296.57,5482.0 6296.57,5597.5 6396.6,5655.25 6396.6,5770.75 6496.62,5828.5 6496.62,5944.0 6596.65,6001.75 6696.67,5944.0" /><polygon id="18016" points="2495.59,3172.0 2495.59,3056.5 2395.56,2998.75 2395.56,2883.25 2295.53,2825.5 2195.51,2883.25 2095.48,2825.5 1995.46,2883.25 1895.43,2825.5 1795.4,2883.25 1795.4,2998.75 1695.38,3056.5 1595.35,2998.75 1495.33,3056.5 1395.3,2998.75 1295.27,3056.5 1195.25,2998.75 1095.22,3056.5 1095.22,3172.0 1195.25,3229.75 1195.25,3345.25 1295.27,3403.0 1395.3,3345.25 1495.33,3403.0 1595.35,3345.25 1695.38,3403.0 1795.4,3345.25 1895.43,3403.0 1995.46,3345.25 2095.48,3403.0 2095.48,3518.5 2195.51,3576.25 2295.53,3518.5 2395.56,3576.25 2495.59,3518.5 2495.59,3403.0 2595.61,3345.25 2595.61,3229.75" /><polygon id="18017" points="2995.71,3576.25 3095.74,3518.5 3195.77,3576.25 3295.79,3518.5 3395.82,3576.25 3395.82,3691.75 3495.84,3749.5 3595.87,3691.75 3695.9,3749.5 3695.9,3865.0 3595.87,3922.75 3595.87,4038.25 3695.9,4096.0 3695.9,4211.5 3595.87,4269.25 3595.87,4384.75 3495.84,4442.5 3395.82,4384.75 3395.82,4269.25 3295.79,4211.5 3195.77,4269.25 3095.74,4211.5 2995.71,4269.25 2895.69,4211.5 2895.69,4096.0 2995.71,4038.25 2995.71,3922.75 3095.74,3865.0 3095.74,3749.5 2995.71,3691.75" /><polygon id="18018" points="5596.39,1843.75 5496.36,1786.0 5396.34,1843.75 5296.31,1786.0 5196.29,1843.75 5096.26,1786.0 4996.23,1843.75 4896.21,1786.0 4896.21,1670.5 4796.18,1612.75 4796.18,1497.25 4696.16,1439.5 4696.16,1324.0 4796.18,1266.25 4796.18,1150.75 4896.21,1093.0 4996.23,1150.75 5096.26,1093.0 5196.29,1150.75 5296.31,1093.0 5396.34,1150.75 5496.36,1093.0 5596.39,1150.75 5696.41,1093.0 5796.44,1150.75 5796.44,1266.25 5696.41,1324.0 5696.41,1439.5 5796.44,1497.25 5796.44,1612.75 5696.41,1670.5 5696.41,1786.0" /><polygon id="18019" points="4696.16,4211.5 4596.13,4269.25 4496.1,4211.5 4396.08,4269.25 4296.05,4211.5 4296.05,4096.0 4396.08,4038.25 4396.08,3922.75 4296.05,3865.0 4296.05,3749.5 4396.08,3691.75 4396.08,3576.25 4496.1,3518.5 4596.13,3576.25 4696.16,3518.5 4796.18,3576.25 4796.18,3691.75 4896.21,3749.5 4896.21,3865.0 4996.23,3922.75 4996.23,4038.25 5096.26,4096.0 5096.26,4211.5 4996.23,4269.25 4896.21,4211.5 4796.18,4269.25" /><polygon id="18020" points="3995.97,4962.25 4096.0,4904.5 4196.03,4962.25 4296.05,4904.5 4396.08,4962.25 4496.1,4904.5 4596.13,4962.25 4696.16,4904.5 4696.16,4789.0 4596.13,4731.25 4496.1,4789.0 4396.08,4731.25 4396.08,4615.75 4296.05,4558.0 4296.05,4442.5 4196.03,4384.75 4096.0,4442.5 3995.97,4384.75 3895.95,4442.5 3795.92,4384.75 3695.9,4442.5 3695.9,4558.0 3795.92,4615.75 3795.92,4731.25 3895.95,4789.0 3895.95,4904.5" /><polygon id="18022" points="895.17,4211.5 895.17,4096.0 795.14,4038.25 795.14,3922.75 895.17,3865.0 895.17,3749.5 995.2,3691.75 1095.22,3749.5 1195.25,3691.75 1295.27,3749.5 1395.3,3691.75 1495.33,3749.5 1595.35,3691.75 1695.38,3749.5 1795.4,3691.75 1895.43,3749.5 1895.43,3865.0 1995.46,3922.75 1995.46,4038.25 2095.48,4096.0 2095.48,4211.5 1995.46,4269.25 1895.43,4211.5 1795.4,4269.25 1695.38,4211.5 1595.35,4269.25 1495.33,4211.5 1395.3,4269.25 1295.27,4211.5 1195.25,4269.25 1095.22,4211.5 995.2,4269.25" /><polygon id="18024" points="2995.71,3576.25 3095.74,3518.5 3195.77,3576.25 3295.79,3518.5 3295.79,3403.0 3395.82,3345.25 3395.82,3229.75 3495.84,3172.0 3595.87,3229.75 3695.9,3172.0 3695.9,3056.5 3795.92,2998.75 3795.92,2883.25 3695.9,2825.5 3595.87,2883.25 3495.84,2825.5 3495.84,2710.0 3395.82,2652.25 3395.82,2536.75 3495.84,2479.0 3495.84,2363.5 3395.82,2305.75 3295.79,2363.5 3195.77,2305.75 3095.74,2363.5 2995.71,2305.75 2895.69,2363.5 2895.69,2479.0 2795.66,2536.75 2795.66,2652.25 2695.64,2710.0 2695.64,2825.5 2595.61,2883.25 2495.59,2825.5 2395.56,2883.25 2395.56,2998.75 2495.59,3056.5 2495.59,3172.0 2595.61,3229.75 2595.61,3345.25 2695.64,3403.0 2795.66,3345.25 2895.69,3403.0 2895.69,3518.5" /><polygon id="18025" points="3895.95,4442.5 3995.97,4384.75 4096.0,4442.5 4196.03,4384.75 4296.05,4442.5 4396.08,4384.75 4396.08,4269.25 4296.05,4211.5 4296.05,4096.0 4396.08,4038.25 4396.08,3922.75 4296.05,3865.0 4296.05,3749.5 4196.03,3691.75 4096.0,3749.5 3995.97,3691.75 3995.97,3576.25 3895.95,3518.5 3795.92,3576.25 3795.92,3691.75 3695.9,3749.5 3695.9,3865.0 3595.87,3922.75 3595.87,4038.25 3695.9,4096.0 3695.9,4211.5 3595.87,4269.25 3595.87,4384.75 3695.9,4442.5 3795.92,4384.75" /><polygon id="18027" points="6196.54,4384.75 6096.52,4442.5 6096.52,4558.0 5996.49,4615.75 5896.47,4558.0 5796.44,4615.75 5696.41,4558.0 5696.41,4442.5 5796.44,4384.75 5796.44,4269.25 5696.41,4211.5 5696.41,4096.0 5796.44,4038.25 5796.44,3922.75 5696.41,3865.0 5696.41,3749.5 5796.44,3691.75 5796.44,3576.25 5896.47,3518.5 5996.49,3576.25 6096.52,3518.5 6196.54,3576.25 6196.54,3691.75 6296.57,3749.5 6296.57,3865.0 6396.6,3922.75 6396.6,4038.25 6496.62,4096.0 6496.62,4211.5 6596.65,4269.25 6596.65,4384.75 6496.62,4442.5 6396.6,4384.75 6296.57,4442.5" /><polygon id="18028" points="6596.65,6463.75 6596.65,6348.25 6696.67,6290.5 6696.67,6175.0 6796.7,6117.25 6796.7,6001.75 6696.67,5944.0 6596.65,6001.75 6496.62,5944.0 6496.62,5828.5 6396.6,5770.75 6396.6,5655.25 6296.57,5597.5 6196.54,5655.25 6096.52,5597.5 5996.49,5655.25 5996.49,5770.75 5896.47,5828.5 5896.47,5944.0 5996.49,6001.75 5996.49,6117.25 5896.47,6175.0 5896.47,6290.5 5796.44,6348.25 5796.44,6463.75 5896.47,6521.5 5996.49,6463.75 6096.52,6521.5 6196.54,6463.75 6296.57,6521.5 6396.6,6463.75 6496.62,6521.5" /><polygon id="18029" points="2595.61,1497.25 2695.64,1439.5 2795.66,1497.25 2795.66,1612.75 2695.64,1670.5 2695.64,1786.0 2595.61,1843.75 2595.61,1959.25 2495.59,2017.0 2495.59,2132.5 2395.56,2190.25 2395.56,2305.75 2295.53,2363.5 2195.51,2305.75 2095.48,2363.5 1995.46,2305.75 1895.43,2363.5 1795.4,2305.75 1695.38,2363.5 1595.35,2305.75 1495.33,2363.5 1395.3,2305.75 1295.27,2363.5 1195.25,2305.75 1195.25,2190.25 1095.22,2132.5 1095.22,2017.0 1195.25,1959.25 1195.25,1843.75 1295.27,1786.0 1295.27,1670.5 1395.3,1612.75 1395.3,1497.25 1495.33,1439.5 1595.35,1497.25 1695.38,1439.5 1795.4,1497.25 1895.43,1439.5 1995.46,1497.25 2095.48,1439.5 2195.51,1497.25 2295.53,1439.5 2395.56,1497.25 2495.59,1439.5" /><polygon id="18030" points="1895.43,5944.0 1795.4,6001.75 1695.38,5944.0 1595.35,6001.75 1495.33,5944.0 1395.3,6001.75 1295.27,5944.0 1195.25,6001.75 1195.25,6117.25 1295.27,6175.0 1295.27,6290.5 1395.3,6348.25 1395.3,6463.75 1495.33,6521.5 1495.33,6637.0 1595.35,6694.75 1595.35,6810.25 1695.38,6868.0 1695.38,6983.5 1795.4,7041.25 1795.4,7156.75 1895.43,7214.5 1995.46,7156.75 2095.48,7214.5 2195.51,7156.75 2295.53,7214.5 2395.56,7156.75 2495.59,7214.5 2595.61,7156.75 2695.64,7214.5 2795.66,7156.75 2895.69,7214.5 2995.71,7156.75 3095.74,7214.5 3195.77,7156.75 3195.77,7041.25 3295.79,6983.5 3295.79,6868.0 3395.82,6810.25 3395.82,6694.75 3495.84,6637.0 3495.84,6521.5 3395.82,6463.75 3295.79,6521.5 3195.77,6463.75 3095.74,6521.5 2995.71,6463.75 2995.71,6348.25 2895.69,6290.5 2895.69,6175.0 2795.66,6117.25 2795.66,6001.75 2695.64,5944.0 2595.61,6001.75 2495.59,5944.0 2395.56,6001.75 2295.53,5944.0 2195.51,6001.75 2095.48,5944.0 1995.46,6001.75" /><polygon id="18032" points="4696.16,4789.0 4796.18,4731.25 4796.18,4615.75 4896.21,4558.0 4896.21,4442.5 4996.23,4384.75 4996.23,4269.25 4896.21,4211.5 4796.18,4269.25 4696.16,4211.5 4596.13,4269.25 4496.1,4211.5 4396.08,4269.25 4396.08,4384.75 4296.05,4442.5 4296.05,4558.0 4396.08,4615.75 4396.08,4731.25 4496.1,4789.0 4596.13,4731.25" /><polygon id="18033" points="4596.13,5077.75 4596.13,4962.25 4496.1,4904.5 4396.08,4962.25 4296.05,4904.5 4196.03,4962.25 4096.0,4904.5 3995.97,4962.25 3895.95,4904.5 3795.92,4962.25 3795.92,5077.75 3695.9,5135.5 3695.9,5251.0 3795.92,5308.75 3795.92,5424.25 3895.95,5482.0 3995.97,5424.25 4096.0,5482.0 4196.03,5424.25 4296.05,5482.0 4396.08,5424.25 4496.1,5482.0 4596.13,5424.25 4596.13,5308.75 4696.16,5251.0 4696.16,5135.5" /><polygon id="18034" points="2995.71,5077.75 2895.69,5135.5 2795.66,5077.75 2695.64,5135.5 2695.64,5251.0 2595.61,5308.75 2595.61,5424.25 2495.59,5482.0 2495.59,5597.5 2395.56,5655.25 2395.56,5770.75 2295.53,5828.5 2295.53,5944.0 2395.56,6001.75 2495.59,5944.0 2595.61,6001.75 2695.64,5944.0 2795.66,6001.75 2895.69,5944.0 2895.69,5828.5 2995.71,5770.75 3095.74,5828.5 3195.77,5770.75 3295.79,5828.5 3395.82,5770.75 3495.84,5828.5 3595.87,5770.75 3595.87,5655.25 3695.9,5597.5 3695.9,5482.0 3795.92,5424.25 3795.92,5308.75 3695.9,5251.0 3595.87,5308.75 3495.84,5251.0 3395.82,5308.75 3295.79,5251.0 3195.77,5308.75 3095.74,5251.0 3095.74,5135.5" /><polygon id="18036" points="1595.35,4731.25 1495.33,4789.0 1395.3,4731.25 1295.27,4789.0 1195.25,4731.25 1095.22,4789.0 1095.22,4904.5 1195.25,4962.25 1195.25,5077.75 1295.27,5135.5 1295.27,5251.0 1395.3,5308.75 1395.3,5424.25 1495.33,5482.0 1595.35,5424.25 1695.38,5482.0 1795.4,5424.25 1895.43,5482.0 1995.46,5424.25 2095.48,5482.0 2195.51,5424.25 2295.53,5482.0 2395.56,5424.25 2495.59,5482.0 2595.61,5424.25 2595.61,5308.75 2695.64,5251.0 2695.64,5135.5 2795.66,5077.75 2795.66,4962.25 2695.64,4904.5 2595.61,4962.25 2495.59,4904.5 2395.56,4962.25 2295.53,4904.5 2295.53,4789.0 2195.51,4731.25 2095.48,4789.0 1995.46,4731.25 1995.46,4615.75 1895.43,4558.0 1795.4,4615.75 1795.4,4731.25 1695.38,4789.0" /><polygon id="18037" points="1095.22,5944.0 1095.22,5828.5 1195.25,5770.75 1195.25,5655.25 1295.27,5597.5 1295.27,5482.0 1395.3,5424.25 1495.33,5482.0 1595.35,5424.25 1695.38,5482.0 1795.4,5424.25 1895.43,5482.0 1995.46,5424.25 2095.48,5482.0 2195.51,5424.25 2295.53,5482.0 2395.56,5424.25 2495.59,5482.0 2495.59,5597.5 2395.56,5655.25 2395.56,5770.75 2295.53,5828.5 2295.53,5944.0 2195.51,6001.75 2095.48,5944.0 1995.46,6001.75 1895.43,5944.0 1795.4,6001.75 1695.38,5944.0 1595.35,6001.75 1495.33,5944.0 1395.3,6001.75 1295.27,5944.0 1195.25,6001.75" /><polygon id="18038" points="6296.57,5251.0 6296.57,5135.5 6196.54,5077.75 6196.54,4962.25 6096.52,4904.5 5996.49,4962.25 5996.49,5077.75 5896.47,5135.5 5796.44,5077.75 5696.41,5135.5 5596.39,5077.75 5496.36,5135.5 5496.36,5251.0 5596.39,5308.75 5596.39,5424.25 5696.41,5482.0 5696.41,5597.5 5796.44,5655.25 5896.47,5597.5 5996.49,5655.25 6096.52,5597.5 6196.54,5655.25 6296.57,5597.5 6296.57,5482.0 6396.6,5424.25 6396.6,5308.75" /><polygon id="18046" points="1595.35,3691.75 1495.33,3749.5 1395.3,3691.75 1295.27,3749.5 1195.25,3691.75 1095.22,3749.5 995.2,3691.75 995.2,3576.25 1095.22,3518.5 1095.22,3403.0 1195.25,3345.25 1295.27,3403.0 1395.3,3345.25 1495.33,3403.0 1595.35,3345.25 1695.38,3403.0 1795.4,3345.25 1895.43,3403.0 1995.46,3345.25 2095.48,3403.0 2095.48,3518.5 2195.51,3576.25 2295.53,3518.5 2395.56,3576.25 2395.56,3691.75 2295.53,3749.5 2295.53,3865.0 2195.51,3922.75 2095.48,3865.0 1995.46,3922.75 1895.43,3865.0 1895.43,3749.5 1795.4,3691.75 1695.38,3749.5" /><polygon id="18048" points="1395.3,4731.25 1295.27,4789.0 1195.25,4731.25 1195.25,4615.75 1095.22,4558.0 1095.22,4442.5 995.2,4384.75 995.2,4269.25 1095.22,4211.5 1195.25,4269.25 1295.27,4211.5 1395.3,4269.25 1495.33,4211.5 1595.35,4269.25 1695.38,4211.5 1795.4,4269.25 1895.43,4211.5 1995.46,4269.25 1995.46,4384.75 2095.48,4442.5 2095.48,4558.0 1995.46,4615.75 1895.43,4558.0 1795.4,4615.75 1795.4,4731.25 1695.38,4789.0 1595.35,4731.25 1495.33,4789.0" /><polygon id="18049" points="3995.97,5770.75 3995.97,5655.25 4096.0,5597.5 4096.0,5482.0 4196.03,5424.25 4296.05,5482.0 4396.08,5424.25 4496.1,5482.0 4596.13,5424.25 4696.16,5482.0 4696.16,5597.5 4596.13,5655.25 4596.13,5770.75 4496.1,5828.5 4496.1,5944.0 4596.13,6001.75 4596.13,6117.25 4496.1,6175.0 4496.1,6290.5 4396.08,6348.25 4296.05,6290.5 4196.03,6348.25 4096.0,6290.5 3995.97,6348.25 3895.95,6290.5 3895.95,6175.0 3995.97,6117.25 3995.97,6001.75 4096.0,5944.0 4096.0,5828.5" /><polygon id="18058" points="3995.97,1959.25 3895.95,2017.0 3795.92,1959.25 3795.92,1843.75 3695.9,1786.0 3695.9,1670.5 3595.87,1612.75 3595.87,1497.25 3495.84,1439.5 3495.84,1324.0 3595.87,1266.25 3695.9,1324.0 3795.92,1266.25 3895.95,1324.0 3995.97,1266.25 4096.0,1324.0 4096.0,1439.5 4196.03,1497.25 4196.03,1612.75 4296.05,1670.5 4296.05,1786.0 4396.08,1843.75 4396.08,1959.25 4296.05,2017.0 4196.03,1959.25 4096.0,2017.0" /><polygon id="18059" points="4796.18,1497.25 4696.16,1439.5 4696.16,1324.0 4596.13,1266.25 4496.1,1324.0 4396.08,1266.25 4296.05,1324.0 4196.03,1266.25 4096.0,1324.0 4096.0,1439.5 4196.03,1497.25 4196.03,1612.75 4296.05,1670.5 4296.05,1786.0 4396.08,1843.75 4396.08,1959.25 4496.1,2017.0 4496.1,2132.5 4596.13,2190.25 4696.16,2132.5 4796.18,2190.25 4896.21,2132.5 4896.21,2017.0 4796.18,1959.25 4796.18,1843.75 4896.21,1786.0 4896.21,1670.5 4796.18,1612.75" /><polygon id="18060" points="4196.03,1959.25 4096.0,2017.0 3995.97,1959.25 3895.95,2017.0 3795.92,1959.25 3695.9,2017.0 3695.9,2132.5 3795.92,2190.25 3795.92,2305.75 3895.95,2363.5 3895.95,2479.0 3995.97,2536.75 4096.0,2479.0 4196.03,2536.75 4296.05,2479.0 4396.08,2536.75 4496.1,2479.0 4496.1,2363.5 4396.08,2305.75 4396.08,2190.25 4496.1,2132.5 4496.1,2017.0 4396.08,1959.25 4296.05,2017.0" /><polygon id="18062" points="6196.54,3576.25 6296.57,3518.5 6296.57,3403.0 6396.6,3345.25 6496.62,3403.0 6596.65,3345.25 6696.67,3403.0 6796.7,3345.25 6896.73,3403.0 6896.73,3518.5 6996.75,3576.25 6996.75,3691.75 7096.78,3749.5 7096.78,3865.0 6996.75,3922.75 6996.75,4038.25 6896.73,4096.0 6896.73,4211.5 6996.75,4269.25 6996.75,4384.75 6896.73,4442.5 6796.7,4384.75 6696.67,4442.5 6596.65,4384.75 6596.65,4269.25 6496.62,4211.5 6496.62,4096.0 6396.6,4038.25 6396.6,3922.75 6296.57,3865.0 6296.57,3749.5 6196.54,3691.75" /><polygon id="18063" points="5196.29,3576.25 5196.29,3691.75 5096.26,3749.5 4996.23,3691.75 4896.21,3749.5 4896.21,3865.0 4996.23,3922.75 4996.23,4038.25 5096.26,4096.0 5096.26,4211.5 5196.29,4269.25 5296.31,4211.5 5396.34,4269.25 5496.36,4211.5 5596.39,4269.25 5696.41,4211.5 5696.41,4096.0 5796.44,4038.25 5796.44,3922.75 5696.41,3865.0 5696.41,3749.5 5796.44,3691.75 5796.44,3576.25 5696.41,3518.5 5596.39,3576.25 5496.36,3518.5 5396.34,3576.25 5296.31,3518.5" /><polygon id="18067" points="4296.05,3172.0 4396.08,3229.75 4396.08,3345.25 4496.1,3403.0 4496.1,3518.5 4396.08,3576.25 4396.08,3691.75 4296.05,3749.5 4196.03,3691.75 4096.0,3749.5 3995.97,3691.75 3995.97,3576.25 3895.95,3518.5 3895.95,3403.0 3795.92,3345.25 3795.92,3229.75 3695.9,3172.0 3695.9,3056.5 3795.92,2998.75 3795.92,2883.25 3895.95,2825.5 3995.97,2883.25 4096.0,2825.5 4196.03,2883.25 4196.03,2998.75 4296.05,3056.5" /><polygon id="18068" points="4896.21,3172.0 4796.18,3229.75 4796.18,3345.25 4696.16,3403.0 4696.16,3518.5 4796.18,3576.25 4796.18,3691.75 4896.21,3749.5 4996.23,3691.75 5096.26,3749.5 5196.29,3691.75 5196.29,3576.25 5296.31,3518.5 5396.34,3576.25 5496.36,3518.5 5596.39,3576.25 5696.41,3518.5 5696.41,3403.0 5596.39,3345.25 5596.39,3229.75 5496.36,3172.0 5496.36,3056.5 5396.34,2998.75 5296.31,3056.5 5196.29,2998.75 5196.29,2883.25 5096.26,2825.5 4996.23,2883.25 4996.23,2998.75 4896.21,3056.5" /><polygon id="18208" points="6196.54,4962.25 6296.57,4904.5 6296.57,4789.0 6196.54,4731.25 6196.54,4615.75 6096.52,4558.0 5996.49,4615.75 5896.47,4558.0 5796.44,4615.75 5696.41,4558.0 5596.39,4615.75 5596.39,4731.25 5496.36,4789.0 5496.36,4904.5 5396.34,4962.25 5396.34,5077.75 5496.36,5135.5 5596.39,5077.75 5696.41,5135.5 5796.44,5077.75 5896.47,5135.5 5996.49,5077.75 5996.49,4962.25 6096.52,4904.5" /><polygon id="18209" points="2295.53,3865.0 2195.51,3922.75 2095.48,3865.0 1995.46,3922.75 1995.46,4038.25 2095.48,4096.0 2095.48,4211.5 1995.46,4269.25 1995.46,4384.75 2095.48,4442.5 2095.48,4558.0 1995.46,4615.75 1995.46,4731.25 2095.48,4789.0 2195.51,4731.25 2295.53,4789.0 2295.53,4904.5 2395.56,4962.25 2495.59,4904.5 2595.61,4962.25 2695.64,4904.5 2795.66,4962.25 2895.69,4904.5 2895.69,4789.0 2795.66,4731.25 2795.66,4615.75 2695.64,4558.0 2695.64,4442.5 2795.66,4384.75 2795.66,4269.25 2695.64,4211.5 2695.64,4096.0 2595.61,4038.25 2495.59,4096.0 2395.56,4038.25 2395.56,3922.75" /><polygon id="18210" points="3695.9,3749.5 3795.92,3691.75 3795.92,3576.25 3895.95,3518.5 3895.95,3403.0 3795.92,3345.25 3795.92,3229.75 3695.9,3172.0 3595.87,3229.75 3495.84,3172.0 3395.82,3229.75 3395.82,3345.25 3295.79,3403.0 3295.79,3518.5 3395.82,3576.25 3395.82,3691.75 3495.84,3749.5 3595.87,3691.75" /><polygon id="18249" points="3295.79,6868.0 3295.79,6983.5 3195.77,7041.25 3195.77,7156.75 3295.79,7214.5 3395.82,7156.75 3495.84,7214.5 3595.87,7156.75 3695.9,7214.5 3795.92,7156.75 3895.95,7214.5 3995.97,7156.75 4096.0,7214.5 4196.03,7156.75 4296.05,7214.5 4396.08,7156.75 4496.1,7214.5 4596.13,7156.75 4596.13,7041.25 4696.16,6983.5 4796.18,7041.25 4896.21,6983.5 4996.23,7041.25 5096.26,6983.5 5196.29,7041.25 5296.31,6983.5 5396.34,7041.25 5496.36,6983.5 5596.39,7041.25 5696.41,6983.5 5796.44,7041.25 5896.47,6983.5 5996.49,7041.25 6096.52,6983.5 6196.54,7041.25 6296.57,6983.5 6296.57,6868.0 6396.6,6810.25 6396.6,6694.75 6496.62,6637.0 6496.62,6521.5 6396.6,6463.75 6296.57,6521.5 6196.54,6463.75 6096.52,6521.5 5996.49,6463.75 5896.47,6521.5 5796.44,6463.75 5696.41,6521.5 5596.39,6463.75 5496.36,6521.5 5396.34,6463.75 5396.34,6348.25 5296.31,6290.5 5196.29,6348.25 5096.26,6290.5 4996.23,6348.25 4896.21,6290.5 4796.18,6348.25 4696.16,6290.5 4596.13,6348.25 4496.1,6290.5 4396.08,6348.25 4296.05,6290.5 4196.03,6348.25 4096.0,6290.5 3995.97,6348.25 3995.97,6463.75 3895.95,6521.5 3795.92,6463.75 3695.9,6521.5 3595.87,6463.75 3495.84,6521.5 3495.84,6637.0 3395.82,6694.75 3395.82,6810.25" /><polygon id="18250" points="3595.87,5308.75 3695.9,5251.0 3695.9,5135.5 3795.92,5077.75 3795.92,4962.25 3895.95,4904.5 3895.95,4789.0 3795.92,4731.25 3795.92,4615.75 3695.9,4558.0 3695.9,4442.5 3595.87,4384.75 3495.84,4442.5 3495.84,4558.0 3395.82,4615.75 3395.82,4731.25 3295.79,4789.0 3295.79,4904.5 3195.77,4962.25 3195.77,5077.75 3095.74,5135.5 3095.74,5251.0 3195.77,5308.75 3295.79,5251.0 3395.82,5308.75 3495.84,5251.0" /><polygon id="18251" points="6396.6,2536.75 6496.62,2479.0 6596.65,2536.75 6696.67,2479.0 6796.7,2536.75 6796.7,2652.25 6696.67,2710.0 6696.67,2825.5 6596.65,2883.25 6596.65,2998.75 6496.62,3056.5 6396.6,2998.75 6296.57,3056.5 6196.54,2998.75 6096.52,3056.5 5996.49,2998.75 5896.47,3056.5 5796.44,2998.75 5696.41,3056.5 5596.39,2998.75 5496.36,3056.5 5396.34,2998.75 5296.31,3056.5 5196.29,2998.75 5196.29,2883.25 5296.31,2825.5 5396.34,2883.25 5496.36,2825.5 5496.36,2710.0 5596.39,2652.25 5696.41,2710.0 5796.44,2652.25 5796.44,2536.75 5896.47,2479.0 5996.49,2536.75 6096.52,2479.0 6196.54,2536.75 6296.57,2479.0" /><polygon id="18252" points="5796.44,6463.75 5796.44,6348.25 5896.47,6290.5 5896.47,6175.0 5996.49,6117.25 5996.49,6001.75 5896.47,5944.0 5896.47,5828.5 5996.49,5770.75 5996.49,5655.25 5896.47,5597.5 5796.44,5655.25 5696.41,5597.5 5596.39,5655.25 5596.39,5770.75 5496.36,5828.5 5396.34,5770.75 5296.31,5828.5 5196.29,5770.75 5096.26,5828.5 5096.26,5944.0 5196.29,6001.75 5196.29,6117.25 5096.26,6175.0 5096.26,6290.5 5196.29,6348.25 5296.31,6290.5 5396.34,6348.25 5396.34,6463.75 5496.36,6521.5 5596.39,6463.75 5696.41,6521.5" /><polygon id="18253" points="4896.21,4442.5 4896.21,4558.0 4796.18,4615.75 4796.18,4731.25 4696.16,4789.0 4696.16,4904.5 4596.13,4962.25 4596.13,5077.75 4696.16,5135.5 4796.18,5077.75 4896.21,5135.5 4996.23,5077.75 5096.26,5135.5 5196.29,5077.75 5296.31,5135.5 5396.34,5077.75 5396.34,4962.25 5496.36,4904.5 5496.36,4789.0 5596.39,4731.25 5596.39,4615.75 5696.41,4558.0 5696.41,4442.5 5796.44,4384.75 5796.44,4269.25 5696.41,4211.5 5596.39,4269.25 5496.36,4211.5 5396.34,4269.25 5296.31,4211.5 5196.29,4269.25 5096.26,4211.5 4996.23,4269.25 4996.23,4384.75" /><polygon id="18261" points="5296.31,5135.5 5196.29,5077.75 5096.26,5135.5 4996.23,5077.75 4896.21,5135.5 4796.18,5077.75 4696.16,5135.5 4696.16,5251.0 4596.13,5308.75 4596.13,5424.25 4696.16,5482.0 4696.16,5597.5 4796.18,5655.25 4896.21,5597.5 4996.23,5655.25 4996.23,5770.75 5096.26,5828.5 5196.29,5770.75 5296.31,5828.5 5396.34,5770.75 5496.36,5828.5 5596.39,5770.75 5596.39,5655.25 5696.41,5597.5 5696.41,5482.0 5596.39,5424.25 5596.39,5308.75 5496.36,5251.0 5496.36,5135.5 5396.34,5077.75" /><polygon id="18262" points="6196.54,2536.75 6296.57,2479.0 6396.6,2536.75 6496.62,2479.0 6596.65,2536.75 6696.67,2479.0 6796.7,2536.75 6896.73,2479.0 6996.75,2536.75 7096.78,2479.0 7096.78,2363.5 7196.8,2305.75 7196.8,2190.25 7296.83,2132.5 7296.83,2017.0 7196.8,1959.25 7196.8,1843.75 7096.78,1786.0 7096.78,1670.5 7196.8,1612.75 7196.8,1497.25 7096.78,1439.5 7096.78,1324.0 6996.75,1266.25 6996.75,1150.75 6896.73,1093.0 6796.7,1150.75 6696.67,1093.0 6596.65,1150.75 6496.62,1093.0 6396.6,1150.75 6296.57,1093.0 6196.54,1150.75 6096.52,1093.0 5996.49,1150.75 5896.47,1093.0 5796.44,1150.75 5796.44,1266.25 5696.41,1324.0 5696.41,1439.5 5796.44,1497.25 5796.44,1612.75 5696.41,1670.5 5696.41,1786.0 5596.39,1843.75 5596.39,1959.25 5696.41,2017.0 5696.41,2132.5 5796.44,2190.25 5796.44,2305.75 5896.47,2363.5 5896.47,2479.0 5996.49,2536.75 6096.52,2479.0" /></svg>