<svg viewBox="0 0 8192 8192" xmlns="http://www.w3.org/2000/svg" version="1.1"><polygon id="4101" points="895.17,2479.0 795.14,2536.75 695.12,2479.0 595.09,2536.75 495.07,2479.0 395.04,2536.75 395.04,2652.25 495.07,2710.0 495.07,2825.5 595.09,2883.25 595.09,2998.75 695.12,3056.5 795.14,2998.75 895.17,3056.5 995.2,2998.75 1095.22,3056.5 1195.25,2998.75 1295.27,3056.5 1395.3,2998.75 1395.3,2883.25 1295.27,2825.5 1295.27,2710.0 1195.25,2652.25 1195.25,2536.75 1095.22,2479.0 995.2,2536.75" /><polygon id="4102" points="1295.27,2825.5 1395.3,2883.25 1395.3,2998.75 1495.33,3056.5 1595.35,2998.75 1695.38,3056.5 1795.4,2998.75 1895.43,3056.5 1995.46,2998.75 1995.46,2883.25 1895.43,2825.5 1895.43,2710.0 1995.46,2652.25 1995.46,2536.75 1895.43,2479.0 1895.43,2363.5 1795.4,2305.75 1695.38,2363.5 1595.35,2305.75 1495.33,2363.5 1395.3,2305.75 1295.27,2363.5 1295.27,2479.0 1195.25,2536.75 1195.25,2652.25 1295.27,2710.0" /><polygon id="4103" points="1395.3,1612.75 1495.33,1670.5 1495.33,1786.0 1395.3,1843.75 1395.3,1959.25 1495.33,2017.0 1495.33,2132.5 1395.3,2190.25 1395.3,2305.75 1495.33,2363.5 1595.35,2305.75 1695.38,2363.5 1795.4,2305.75 1895.43,2363.5 1995.46,2305.75 1995.46,2190.25 2095.48,2132.5 2095.48,2017.0 1995.46,1959.25 1995.46,1843.75 1895.43,1786.0 1895.43,1670.5 1995.46,1612.75 1995.46,1497.25 1895.43,1439.5 1795.4,1497.25 1695.38,1439.5 1595.35,1497.25 1495.33,1439.5 1395.3,1497.25" /><polygon id="4104" points="1895.43,3172.0 1995.46,3229.75 1995.46,3345.25 2095.48,3403.0 2195.51,3345.25 2295.53,3403.0 2395.56,3345.25 2495.59,3403.0 2595.61,3345.25 2595.61,3229.75 2695.64,3172.0 2695.64,3056.5 2795.66,2998.75 2795.66,2883.25 2695.64,2825.5 2695.64,2710.0 2595.61,2652.25 2495.59,2710.0 2395.56,2652.25 2295.53,2710.0 2295.53,2825.5 2195.51,2883.25 2095.48,2825.5 1995.46,2883.25 1995.46,2998.75 1895.43,3056.5" /><polygon id="4105" points="3495.84,1670.5 3595.87,1612.75 3595.87,1497.25 3695.9,1439.5 3695.9,1324.0 3595.87,1266.25 3595.87,1150.75 3495.84,1093.0 3395.82,1150.75 3295.79,1093.0 3295.79,977.5 3195.77,919.75 3095.74,977.5 3095.74,1093.0 2995.71,1150.75 2995.71,1266.25 3095.74,1324.0 3095.74,1439.5 3195.77,1497.25 3195.77,1612.75 3295.79,1670.5 3395.82,1612.75" /><polygon id="4106" points="3695.9,1439.5 3695.9,1324.0 3595.87,1266.25 3595.87,1150.75 3495.84,1093.0 3395.82,1150.75 3295.79,1093.0 3295.79,977.5 3395.82,919.75 3395.82,804.25 3495.84,746.5 3495.84,631.0 3595.87,573.25 3695.9,631.0 3795.92,573.25 3895.95,631.0 3995.97,573.25 4096.0,631.0 4196.03,573.25 4296.05,631.0 4296.05,746.5 4396.08,804.25 4396.08,919.75 4296.05,977.5 4296.05,1093.0 4196.03,1150.75 4196.03,1266.25 4096.0,1324.0 4096.0,1439.5 3995.97,1497.25 3895.95,1439.5 3795.92,1497.25" /><polygon id="4107" points="5496.36,1670.5 5396.34,1612.75 5296.31,1670.5 5196.29,1612.75 5196.29,1497.25 5296.31,1439.5 5296.31,1324.0 5196.29,1266.25 5196.29,1150.75 5296.31,1093.0 5296.31,977.5 5396.34,919.75 5496.36,977.5 5596.39,919.75 5696.41,977.5 5696.41,1093.0 5796.44,1150.75 5796.44,1266.25 5696.41,1324.0 5696.41,1439.5 5596.39,1497.25 5596.39,1612.75" /><polygon id="4108" points="4696.16,1670.5 4696.16,1786.0 4596.13,1843.75 4596.13,1959.25 4696.16,2017.0 4696.16,2132.5 4596.13,2190.25 4596.13,2305.75 4696.16,2363.5 4696.16,2479.0 4796.18,2536.75 4796.18,2652.25 4896.21,2710.0 4996.23,2652.25 5096.26,2710.0 5196.29,2652.25 5296.31,2710.0 5396.34,2652.25 5496.36,2710.0 5596.39,2652.25 5596.39,2536.75 5696.41,2479.0 5696.41,2363.5 5596.39,2305.75 5596.39,2190.25 5696.41,2132.5 5696.41,2017.0 5596.39,1959.25 5596.39,1843.75 5496.36,1786.0 5496.36,1670.5 5396.34,1612.75 5296.31,1670.5 5196.29,1612.75 5096.26,1670.5 4996.23,1612.75 4896.21,1670.5 4796.18,1612.75" /><polygon id="4109" points="5496.36,3518.5 5496.36,3403.0 5396.34,3345.25 5296.31,3403.0 5196.29,3345.25 5196.29,3229.75 5096.26,3172.0 5096.26,3056.5 4996.23,2998.75 4996.23,2883.25 4896.21,2825.5 4896.21,2710.0 4996.23,2652.25 5096.26,2710.0 5196.29,2652.25 5296.31,2710.0 5396.34,2652.25 5496.36,2710.0 5596.39,2652.25 5696.41,2710.0 5696.41,2825.5 5796.44,2883.25 5796.44,2998.75 5896.47,3056.5 5896.47,3172.0 5996.49,3229.75 5996.49,3345.25 6096.52,3403.0 6096.52,3518.5 5996.49,3576.25 5896.47,3518.5 5796.44,3576.25 5696.41,3518.5 5596.39,3576.25" /><polygon id="4110" points="6196.54,2652.25 6296.57,2710.0 6296.57,2825.5 6396.6,2883.25 6396.6,2998.75 6496.62,3056.5 6596.65,2998.75 6596.65,2883.25 6696.67,2825.5 6696.67,2710.0 6796.7,2652.25 6796.7,2536.75 6696.67,2479.0 6696.67,2363.5 6596.65,2305.75 6596.65,2190.25 6496.62,2132.5 6396.6,2190.25 6296.57,2132.5 6196.54,2190.25 6196.54,2305.75 6096.52,2363.5 6096.52,2479.0 6196.54,2536.75" /><polygon id="4111" points="6996.75,1497.25 7096.78,1439.5 7096.78,1324.0 6996.75,1266.25 6896.73,1324.0 6796.7,1266.25 6696.67,1324.0 6596.65,1266.25 6496.62,1324.0 6496.62,1439.5 6396.6,1497.25 6396.6,1612.75 6296.57,1670.5 6296.57,1786.0 6196.54,1843.75 6196.54,1959.25 6296.57,2017.0 6296.57,2132.5 6396.6,2190.25 6496.62,2132.5 6596.65,2190.25 6696.67,2132.5 6696.67,2017.0 6796.7,1959.25 6796.7,1843.75 6896.73,1786.0 6896.73,1670.5 6996.75,1612.75" /><polygon id="4112" points="7296.83,3056.5 7396.86,2998.75 7396.86,2883.25 7496.88,2825.5 7496.88,2710.0 7396.86,2652.25 7296.83,2710.0 7196.8,2652.25 7096.78,2710.0 6996.75,2652.25 6896.73,2710.0 6796.7,2652.25 6696.67,2710.0 6696.67,2825.5 6596.65,2883.25 6596.65,2998.75 6496.62,3056.5 6496.62,3172.0 6596.65,3229.75 6696.67,3172.0 6796.7,3229.75 6796.7,3345.25 6896.73,3403.0 6996.75,3345.25 7096.78,3403.0 7196.8,3345.25 7196.8,3229.75 7296.83,3172.0" /><polygon id="4113" points="1595.35,4038.25 1595.35,3922.75 1495.33,3865.0 1395.3,3922.75 1295.27,3865.0 1195.25,3922.75 1095.22,3865.0 995.2,3922.75 895.17,3865.0 795.14,3922.75 695.12,3865.0 595.09,3922.75 495.07,3865.0 395.04,3922.75 395.04,4038.25 295.01,4096.0 295.01,4211.5 395.04,4269.25 395.04,4384.75 495.07,4442.5 595.09,4384.75 695.12,4442.5 795.14,4384.75 895.17,4442.5 995.2,4384.75 1095.22,4442.5 1195.25,4384.75 1295.27,4442.5 1395.3,4384.75 1495.33,4442.5 1595.35,4384.75 1595.35,4269.25 1695.38,4211.5 1695.38,4096.0" /><polygon id="4114" points="2695.64,4096.0 2795.66,4038.25 2795.66,3922.75 2895.69,3865.0 2895.69,3749.5 2795.66,3691.75 2795.66,3576.25 2695.64,3518.5 2595.61,3576.25 2495.59,3518.5 2495.59,3403.0 2395.56,3345.25 2295.53,3403.0 2195.51,3345.25 2095.48,3403.0 2095.48,3518.5 1995.46,3576.25 1995.46,3691.75 1895.43,3749.5 1895.43,3865.0 1795.4,3922.75 1695.38,3865.0 1595.35,3922.75 1595.35,4038.25 1695.38,4096.0 1695.38,4211.5 1795.4,4269.25 1795.4,4384.75 1895.43,4442.5 1995.46,4384.75 2095.48,4442.5 2195.51,4384.75 2295.53,4442.5 2395.56,4384.75 2395.56,4269.25 2495.59,4211.5 2495.59,4096.0 2595.61,4038.25" /><polygon id="4115" points="3895.95,3749.5 3995.97,3691.75 3995.97,3576.25 3895.95,3518.5 3795.92,3576.25 3695.9,3518.5 3695.9,3403.0 3595.87,3345.25 3595.87,3229.75 3495.84,3172.0 3395.82,3229.75 3395.82,3345.25 3295.79,3403.0 3295.79,3518.5 3195.77,3576.25 3195.77,3691.75 3095.74,3749.5 3095.74,3865.0 3195.77,3922.75 3295.79,3865.0 3395.82,3922.75 3495.84,3865.0 3595.87,3922.75 3695.9,3865.0 3695.9,3749.5 3795.92,3691.75" /><polygon id="4116" points="3995.97,3691.75 3995.97,3576.25 4096.0,3518.5 4096.0,3403.0 4196.03,3345.25 4196.03,3229.75 4296.05,3172.0 4396.08,3229.75 4496.1,3172.0 4596.13,3229.75 4696.16,3172.0 4696.16,3056.5 4796.18,2998.75 4796.18,2883.25 4896.21,2825.5 4996.23,2883.25 4996.23,2998.75 5096.26,3056.5 5096.26,3172.0 5196.29,3229.75 5196.29,3345.25 5096.26,3403.0 5096.26,3518.5 4996.23,3576.25 4996.23,3691.75 5096.26,3749.5 5096.26,3865.0 4996.23,3922.75 4896.21,3865.0 4796.18,3922.75 4696.16,3865.0 4596.13,3922.75 4496.1,3865.0 4496.1,3749.5 4396.08,3691.75 4296.05,3749.5 4196.03,3691.75 4096.0,3749.5" /><polygon id="4117" points="1995.46,5424.25 1895.43,5482.0 1895.43,5597.5 1795.4,5655.25 1795.4,5770.75 1695.38,5828.5 1595.35,5770.75 1495.33,5828.5 1395.3,5770.75 1295.27,5828.5 1195.25,5770.75 1195.25,5655.25 1095.22,5597.5 1095.22,5482.0 1195.25,5424.25 1295.27,5482.0 1395.3,5424.25 1395.3,5308.75 1495.33,5251.0 1595.35,5308.75 1695.38,5251.0 1695.38,5135.5 1795.4,5077.75 1895.43,5135.5 1995.46,5077.75 2095.48,5135.5 2095.48,5251.0 1995.46,5308.75" /><polygon id="4118" points="1795.4,6117.25 1795.4,6001.75 1695.38,5944.0 1695.38,5828.5 1795.4,5770.75 1795.4,5655.25 1895.43,5597.5 1895.43,5482.0 1995.46,5424.25 1995.46,5308.75 2095.48,5251.0 2195.51,5308.75 2295.53,5251.0 2395.56,5308.75 2395.56,5424.25 2495.59,5482.0 2495.59,5597.5 2595.61,5655.25 2595.61,5770.75 2495.59,5828.5 2495.59,5944.0 2395.56,6001.75 2295.53,5944.0 2195.51,6001.75 2195.51,6117.25 2095.48,6175.0 1995.46,6117.25 1895.43,6175.0" /><polygon id="4119" points="3495.84,5944.0 3495.84,5828.5 3595.87,5770.75 3595.87,5655.25 3695.9,5597.5 3795.92,5655.25 3895.95,5597.5 3995.97,5655.25 4096.0,5597.5 4196.03,5655.25 4296.05,5597.5 4296.05,5482.0 4396.08,5424.25 4496.1,5482.0 4496.1,5597.5 4596.13,5655.25 4596.13,5770.75 4696.16,5828.5 4696.16,5944.0 4596.13,6001.75 4596.13,6117.25 4496.1,6175.0 4396.08,6117.25 4296.05,6175.0 4196.03,6117.25 4096.0,6175.0 3995.97,6117.25 3895.95,6175.0 3795.92,6117.25 3795.92,6001.75 3695.9,5944.0 3595.87,6001.75" /><polygon id="4120" points="4696.16,4904.5 4696.16,4789.0 4596.13,4731.25 4596.13,4615.75 4496.1,4558.0 4496.1,4442.5 4396.08,4384.75 4296.05,4442.5 4196.03,4384.75 4096.0,4442.5 3995.97,4384.75 3895.95,4442.5 3795.92,4384.75 3695.9,4442.5 3695.9,4558.0 3595.87,4615.75 3595.87,4731.25 3495.84,4789.0 3495.84,4904.5 3595.87,4962.25 3695.9,4904.5 3795.92,4962.25 3795.92,5077.75 3895.95,5135.5 3995.97,5077.75 4096.0,5135.5 4196.03,5077.75 4296.05,5135.5 4396.08,5077.75 4496.1,5135.5 4496.1,5251.0 4596.13,5308.75 4696.16,5251.0 4696.16,5135.5 4796.18,5077.75 4796.18,4962.25" /><polygon id="4121" points="5496.36,6175.0 5596.39,6117.25 5596.39,6001.75 5696.41,5944.0 5696.41,5828.5 5596.39,5770.75 5596.39,5655.25 5696.41,5597.5 5696.41,5482.0 5596.39,5424.25 5596.39,5308.75 5496.36,5251.0 5396.34,5308.75 5296.31,5251.0 5196.29,5308.75 5096.26,5251.0 4996.23,5308.75 4896.21,5251.0 4796.18,5308.75 4696.16,5251.0 4596.13,5308.75 4596.13,5424.25 4496.1,5482.0 4496.1,5597.5 4596.13,5655.25 4596.13,5770.75 4696.16,5828.5 4696.16,5944.0 4796.18,6001.75 4896.21,5944.0 4996.23,6001.75 5096.26,5944.0 5196.29,6001.75 5196.29,6117.25 5296.31,6175.0 5396.34,6117.25" /><polygon id="4122" points="6896.73,4904.5 6796.7,4962.25 6696.67,4904.5 6596.65,4962.25 6496.62,4904.5 6496.62,4789.0 6396.6,4731.25 6396.6,4615.75 6496.62,4558.0 6496.62,4442.5 6396.6,4384.75 6396.6,4269.25 6496.62,4211.5 6596.65,4269.25 6696.67,4211.5 6796.7,4269.25 6896.73,4211.5 6996.75,4269.25 6996.75,4384.75 7096.78,4442.5 7096.78,4558.0 7196.8,4615.75 7196.8,4731.25 7096.78,4789.0 7096.78,4904.5 6996.75,4962.25" /><polygon id="4123" points="6396.6,5308.75 6296.57,5251.0 6296.57,5135.5 6396.6,5077.75 6396.6,4962.25 6496.62,4904.5 6596.65,4962.25 6696.67,4904.5 6796.7,4962.25 6896.73,4904.5 6996.75,4962.25 6996.75,5077.75 7096.78,5135.5 7096.78,5251.0 6996.75,5308.75 6996.75,5424.25 6896.73,5482.0 6896.73,5597.5 6796.7,5655.25 6696.67,5597.5 6596.65,5655.25 6496.62,5597.5 6496.62,5482.0 6396.6,5424.25" /><polygon id="4124" points="3395.82,7503.25 3395.82,7387.75 3495.84,7330.0 3495.84,7214.5 3595.87,7156.75 3595.87,7041.25 3695.9,6983.5 3795.92,7041.25 3895.95,6983.5 3895.95,6868.0 3795.92,6810.25 3795.92,6694.75 3695.9,6637.0 3595.87,6694.75 3495.84,6637.0 3395.82,6694.75 3295.79,6637.0 3195.77,6694.75 3095.74,6637.0 2995.71,6694.75 2895.69,6637.0 2795.66,6694.75 2795.66,6810.25 2895.69,6868.0 2895.69,6983.5 2995.71,7041.25 2995.71,7156.75 3095.74,7214.5 3095.74,7330.0 3195.77,7387.75 3195.77,7503.25 3295.79,7561.0" /><polygon id="4125" points="3995.97,6463.75 3995.97,6348.25 4096.0,6290.5 4196.03,6348.25 4296.05,6290.5 4296.05,6175.0 4396.08,6117.25 4496.1,6175.0 4496.1,6290.5 4596.13,6348.25 4596.13,6463.75 4696.16,6521.5 4696.16,6637.0 4596.13,6694.75 4596.13,6810.25 4496.1,6868.0 4496.1,6983.5 4396.08,7041.25 4296.05,6983.5 4196.03,7041.25 4096.0,6983.5 3995.97,7041.25 3895.95,6983.5 3895.95,6868.0 3795.92,6810.25 3795.92,6694.75 3895.95,6637.0 3895.95,6521.5" /><polygon id="4126" points="4396.08,7156.75 4496.1,7214.5 4496.1,7330.0 4596.13,7387.75 4596.13,7503.25 4696.16,7561.0 4696.16,7676.5 4796.18,7734.25 4896.21,7676.5 4996.23,7734.25 5096.26,7676.5 5096.26,7561.0 5196.29,7503.25 5196.29,7387.75 5296.31,7330.0 5296.31,7214.5 5196.29,7156.75 5196.29,7041.25 5096.26,6983.5 5096.26,6868.0 4996.23,6810.25 4996.23,6694.75 4896.21,6637.0 4796.18,6694.75 4696.16,6637.0 4596.13,6694.75 4596.13,6810.25 4496.1,6868.0 4496.1,6983.5 4396.08,7041.25" /><polygon id="4127" points="5596.39,6463.75 5696.41,6521.5 5696.41,6637.0 5796.44,6694.75 5796.44,6810.25 5896.47,6868.0 5996.49,6810.25 6096.52,6868.0 6196.54,6810.25 6296.57,6868.0 6396.6,6810.25 6396.6,6694.75 6496.62,6637.0 6496.62,6521.5 6396.6,6463.75 6296.57,6521.5 6196.54,6463.75 6096.52,6521.5 5996.49,6463.75 5996.49,6348.25 5896.47,6290.5 5796.44,6348.25 5696.41,6290.5 5596.39,6348.25" /><polygon id="4130" points="695.12,3403.0 695.12,3518.5 595.09,3576.25 595.09,3691.75 495.07,3749.5 495.07,3865.0 595.09,3922.75 695.12,3865.0 795.14,3922.75 895.17,3865.0 995.2,3922.75 1095.22,3865.0 1195.25,3922.75 1295.27,3865.0 1395.3,3922.75 1495.33,3865.0 1495.33,3749.5 1595.35,3691.75 1595.35,3576.25 1495.33,3518.5 1495.33,3403.0 1395.3,3345.25 1395.3,3229.75 1295.27,3172.0 1295.27,3056.5 1195.25,2998.75 1095.22,3056.5 995.2,2998.75 895.17,3056.5 795.14,2998.75 695.12,3056.5 695.12,3172.0 795.14,3229.75 795.14,3345.25" /><polygon id="4131" points="1895.43,5135.5 1995.46,5077.75 2095.48,5135.5 2195.51,5077.75 2295.53,5135.5 2395.56,5077.75 2395.56,4962.25 2495.59,4904.5 2595.61,4962.25 2695.64,4904.5 2695.64,4789.0 2595.61,4731.25 2595.61,4615.75 2495.59,4558.0 2495.59,4442.5 2395.56,4384.75 2295.53,4442.5 2195.51,4384.75 2095.48,4442.5 1995.46,4384.75 1895.43,4442.5 1895.43,4558.0 1995.46,4615.75 1995.46,4731.25 1895.43,4789.0 1895.43,4904.5 1795.4,4962.25 1795.4,5077.75" /><polygon id="4132" points="2895.69,5251.0 2895.69,5135.5 2995.71,5077.75 3095.74,5135.5 3195.77,5077.75 3295.79,5135.5 3395.82,5077.75 3495.84,5135.5 3495.84,5251.0 3595.87,5308.75 3595.87,5424.25 3495.84,5482.0 3495.84,5597.5 3595.87,5655.25 3595.87,5770.75 3495.84,5828.5 3495.84,5944.0 3395.82,6001.75 3295.79,5944.0 3195.77,6001.75 3095.74,5944.0 3095.74,5828.5 2995.71,5770.75 2895.69,5828.5 2795.66,5770.75 2795.66,5655.25 2695.64,5597.5 2695.64,5482.0 2795.66,5424.25 2795.66,5308.75" /><polygon id="4133" points="5596.39,7156.75 5496.36,7214.5 5396.34,7156.75 5296.31,7214.5 5196.29,7156.75 5196.29,7041.25 5096.26,6983.5 5096.26,6868.0 4996.23,6810.25 4996.23,6694.75 5096.26,6637.0 5096.26,6521.5 5196.29,6463.75 5196.29,6348.25 5296.31,6290.5 5296.31,6175.0 5396.34,6117.25 5496.36,6175.0 5596.39,6117.25 5696.41,6175.0 5696.41,6290.5 5596.39,6348.25 5596.39,6463.75 5696.41,6521.5 5696.41,6637.0 5796.44,6694.75 5796.44,6810.25 5896.47,6868.0 5896.47,6983.5 5796.44,7041.25 5796.44,7156.75 5696.41,7214.5" /><polygon id="4134" points="5696.41,4558.0 5796.44,4615.75 5896.47,4558.0 5996.49,4615.75 5996.49,4731.25 6096.52,4789.0 6096.52,4904.5 6196.54,4962.25 6296.57,4904.5 6396.6,4962.25 6396.6,5077.75 6296.57,5135.5 6296.57,5251.0 6196.54,5308.75 6096.52,5251.0 5996.49,5308.75 5896.47,5251.0 5796.44,5308.75 5796.44,5424.25 5696.41,5482.0 5596.39,5424.25 5596.39,5308.75 5496.36,5251.0 5396.34,5308.75 5296.31,5251.0 5296.31,5135.5 5396.34,5077.75 5396.34,4962.25 5496.36,4904.5 5496.36,4789.0 5596.39,4731.25 5596.39,4615.75" /><polygon id="4135" points="6196.54,4269.25 6296.57,4211.5 6296.57,4096.0 6196.54,4038.25 6196.54,3922.75 6096.52,3865.0 6096.52,3749.5 5996.49,3691.75 5996.49,3576.25 5896.47,3518.5 5796.44,3576.25 5796.44,3691.75 5696.41,3749.5 5696.41,3865.0 5596.39,3922.75 5596.39,4038.25 5696.41,4096.0 5696.41,4211.5 5796.44,4269.25 5796.44,4384.75 5896.47,4442.5 5996.49,4384.75 5996.49,4269.25 6096.52,4211.5" /><polygon id="4136" points="6196.54,1266.25 6096.52,1324.0 5996.49,1266.25 5896.47,1324.0 5796.44,1266.25 5696.41,1324.0 5696.41,1439.5 5596.39,1497.25 5596.39,1612.75 5496.36,1670.5 5496.36,1786.0 5596.39,1843.75 5696.41,1786.0 5796.44,1843.75 5896.47,1786.0 5996.49,1843.75 6096.52,1786.0 6196.54,1843.75 6296.57,1786.0 6296.57,1670.5 6396.6,1612.75 6396.6,1497.25 6496.62,1439.5 6496.62,1324.0 6396.6,1266.25 6296.57,1324.0" /><polygon id="4137" points="3895.95,1439.5 3795.92,1497.25 3695.9,1439.5 3595.87,1497.25 3595.87,1612.75 3695.9,1670.5 3695.9,1786.0 3595.87,1843.75 3595.87,1959.25 3695.9,2017.0 3695.9,2132.5 3595.87,2190.25 3595.87,2305.75 3695.9,2363.5 3795.92,2305.75 3895.95,2363.5 3895.95,2479.0 3995.97,2536.75 4096.0,2479.0 4196.03,2536.75 4296.05,2479.0 4396.08,2536.75 4496.1,2479.0 4496.1,2363.5 4596.13,2305.75 4596.13,2190.25 4696.16,2132.5 4696.16,2017.0 4596.13,1959.25 4596.13,1843.75 4696.16,1786.0 4696.16,1670.5 4596.13,1612.75 4496.1,1670.5 4396.08,1612.75 4296.05,1670.5 4196.03,1612.75 4196.03,1497.25 4096.0,1439.5 3995.97,1497.25" /><polygon id="4138" points="2795.66,2305.75 2895.69,2363.5 2995.71,2305.75 3095.74,2363.5 3195.77,2305.75 3295.79,2363.5 3395.82,2305.75 3495.84,2363.5 3495.84,2479.0 3395.82,2536.75 3395.82,2652.25 3495.84,2710.0 3495.84,2825.5 3395.82,2883.25 3395.82,2998.75 3295.79,3056.5 3195.77,2998.75 3095.74,3056.5 2995.71,2998.75 2895.69,3056.5 2795.66,2998.75 2795.66,2883.25 2695.64,2825.5 2695.64,2710.0 2595.61,2652.25 2595.61,2536.75 2695.64,2479.0 2695.64,2363.5" /><polygon id="4139" points="3895.95,4442.5 3995.97,4384.75 4096.0,4442.5 4196.03,4384.75 4296.05,4442.5 4396.08,4384.75 4396.08,4269.25 4496.1,4211.5 4496.1,4096.0 4596.13,4038.25 4596.13,3922.75 4496.1,3865.0 4496.1,3749.5 4396.08,3691.75 4296.05,3749.5 4196.03,3691.75 4096.0,3749.5 3995.97,3691.75 3895.95,3749.5 3795.92,3691.75 3695.9,3749.5 3695.9,3865.0 3595.87,3922.75 3595.87,4038.25 3695.9,4096.0 3695.9,4211.5 3795.92,4269.25 3795.92,4384.75" /><polygon id="4140" points="2795.66,1959.25 2795.66,1843.75 2895.69,1786.0 2895.69,1670.5 2795.66,1612.75 2795.66,1497.25 2695.64,1439.5 2695.64,1324.0 2595.61,1266.25 2495.59,1324.0 2395.56,1266.25 2295.53,1324.0 2295.53,1439.5 2395.56,1497.25 2395.56,1612.75 2295.53,1670.5 2295.53,1786.0 2395.56,1843.75 2395.56,1959.25 2495.59,2017.0 2495.59,2132.5 2595.61,2190.25 2695.64,2132.5 2695.64,2017.0" /><polygon id="4141" points="3095.74,1324.0 2995.71,1266.25 2995.71,1150.75 2895.69,1093.0 2795.66,1150.75 2695.64,1093.0 2595.61,1150.75 2595.61,1266.25 2695.64,1324.0 2695.64,1439.5 2795.66,1497.25 2795.66,1612.75 2895.69,1670.5 2895.69,1786.0 2995.71,1843.75 3095.74,1786.0 3095.74,1670.5 3195.77,1612.75 3195.77,1497.25 3095.74,1439.5" /><polygon id="4142" points="3095.74,1786.0 2995.71,1843.75 2895.69,1786.0 2795.66,1843.75 2795.66,1959.25 2695.64,2017.0 2695.64,2132.5 2595.61,2190.25 2595.61,2305.75 2695.64,2363.5 2795.66,2305.75 2895.69,2363.5 2995.71,2305.75 3095.74,2363.5 3195.77,2305.75 3195.77,2190.25 3295.79,2132.5 3295.79,2017.0 3195.77,1959.25 3195.77,1843.75" /><polygon id="4143" points="1995.46,1959.25 2095.48,2017.0 2095.48,2132.5 2195.51,2190.25 2295.53,2132.5 2395.56,2190.25 2495.59,2132.5 2495.59,2017.0 2395.56,1959.25 2395.56,1843.75 2295.53,1786.0 2295.53,1670.5 2395.56,1612.75 2395.56,1497.25 2295.53,1439.5 2295.53,1324.0 2195.51,1266.25 2095.48,1324.0 2095.48,1439.5 1995.46,1497.25 1995.46,1612.75 1895.43,1670.5 1895.43,1786.0 1995.46,1843.75" /><polygon id="4150" points="3195.77,4731.25 3095.74,4789.0 2995.71,4731.25 2995.71,4615.75 2895.69,4558.0 2895.69,4442.5 2995.71,4384.75 2995.71,4269.25 3095.74,4211.5 3195.77,4269.25 3195.77,4384.75 3295.79,4442.5 3395.82,4384.75 3495.84,4442.5 3495.84,4558.0 3395.82,4615.75 3395.82,4731.25 3295.79,4789.0" /><polygon id="4151" points="2995.71,4269.25 3095.74,4211.5 3195.77,4269.25 3195.77,4384.75 3295.79,4442.5 3395.82,4384.75 3495.84,4442.5 3495.84,4558.0 3395.82,4615.75 3395.82,4731.25 3495.84,4789.0 3595.87,4731.25 3595.87,4615.75 3695.9,4558.0 3695.9,4442.5 3795.92,4384.75 3795.92,4269.25 3695.9,4211.5 3695.9,4096.0 3595.87,4038.25 3595.87,3922.75 3495.84,3865.0 3395.82,3922.75 3295.79,3865.0 3195.77,3922.75 3095.74,3865.0 2995.71,3922.75 2895.69,3865.0 2795.66,3922.75 2795.66,4038.25 2895.69,4096.0 2895.69,4211.5" /><polygon id="4152" points="2995.71,4269.25 2995.71,4384.75 2895.69,4442.5 2895.69,4558.0 2795.66,4615.75 2795.66,4731.25 2695.64,4789.0 2595.61,4731.25 2595.61,4615.75 2495.59,4558.0 2495.59,4442.5 2395.56,4384.75 2395.56,4269.25 2495.59,4211.5 2495.59,4096.0 2595.61,4038.25 2695.64,4096.0 2795.66,4038.25 2895.69,4096.0 2895.69,4211.5" /><polygon id="4153" points="2795.66,4962.25 2795.66,5077.75 2895.69,5135.5 2995.71,5077.75 3095.74,5135.5 3195.77,5077.75 3295.79,5135.5 3395.82,5077.75 3395.82,4962.25 3495.84,4904.5 3495.84,4789.0 3395.82,4731.25 3295.79,4789.0 3195.77,4731.25 3095.74,4789.0 2995.71,4731.25 2995.71,4615.75 2895.69,4558.0 2795.66,4615.75 2795.66,4731.25 2695.64,4789.0 2695.64,4904.5" /><polygon id="4160" points="5296.31,4789.0 5396.34,4731.25 5396.34,4615.75 5296.31,4558.0 5296.31,4442.5 5196.29,4384.75 5196.29,4269.25 5096.26,4211.5 4996.23,4269.25 4996.23,4384.75 4896.21,4442.5 4896.21,4558.0 4996.23,4615.75 4996.23,4731.25 5096.26,4789.0 5196.29,4731.25" /><polygon id="4161" points="4596.13,4615.75 4496.1,4558.0 4496.1,4442.5 4396.08,4384.75 4396.08,4269.25 4496.1,4211.5 4496.1,4096.0 4596.13,4038.25 4596.13,3922.75 4696.16,3865.0 4796.18,3922.75 4896.21,3865.0 4996.23,3922.75 4996.23,4038.25 5096.26,4096.0 5096.26,4211.5 4996.23,4269.25 4996.23,4384.75 4896.21,4442.5 4896.21,4558.0 4996.23,4615.75 4996.23,4731.25 4896.21,4789.0 4896.21,4904.5 4796.18,4962.25 4696.16,4904.5 4696.16,4789.0 4596.13,4731.25" /><polygon id="4162" points="5796.44,4384.75 5896.47,4442.5 5896.47,4558.0 5796.44,4615.75 5696.41,4558.0 5596.39,4615.75 5496.36,4558.0 5396.34,4615.75 5296.31,4558.0 5296.31,4442.5 5196.29,4384.75 5196.29,4269.25 5096.26,4211.5 5096.26,4096.0 5196.29,4038.25 5296.31,4096.0 5396.34,4038.25 5496.36,4096.0 5596.39,4038.25 5696.41,4096.0 5696.41,4211.5 5796.44,4269.25" /><polygon id="4163" points="5196.29,4731.25 5096.26,4789.0 4996.23,4731.25 4896.21,4789.0 4896.21,4904.5 4796.18,4962.25 4796.18,5077.75 4696.16,5135.5 4696.16,5251.0 4796.18,5308.75 4896.21,5251.0 4996.23,5308.75 5096.26,5251.0 5196.29,5308.75 5296.31,5251.0 5296.31,5135.5 5396.34,5077.75 5396.34,4962.25 5496.36,4904.5 5496.36,4789.0 5596.39,4731.25 5596.39,4615.75 5496.36,4558.0 5396.34,4615.75 5396.34,4731.25 5296.31,4789.0" /><polygon id="4170" points="4196.03,3229.75 4296.05,3172.0 4296.05,3056.5 4196.03,2998.75 4196.03,2883.25 4096.0,2825.5 4096.0,2710.0 3995.97,2652.25 3895.95,2710.0 3895.95,2825.5 3795.92,2883.25 3695.9,2825.5 3595.87,2883.25 3595.87,2998.75 3495.84,3056.5 3495.84,3172.0 3595.87,3229.75 3695.9,3172.0 3795.92,3229.75 3895.95,3172.0 3995.97,3229.75 4096.0,3172.0" /><polygon id="4171" points="4296.05,3172.0 4296.05,3056.5 4196.03,2998.75 4196.03,2883.25 4096.0,2825.5 4096.0,2710.0 3995.97,2652.25 3995.97,2536.75 4096.0,2479.0 4196.03,2536.75 4296.05,2479.0 4396.08,2536.75 4496.1,2479.0 4496.1,2363.5 4596.13,2305.75 4696.16,2363.5 4696.16,2479.0 4796.18,2536.75 4796.18,2652.25 4896.21,2710.0 4896.21,2825.5 4796.18,2883.25 4796.18,2998.75 4696.16,3056.5 4696.16,3172.0 4596.13,3229.75 4496.1,3172.0 4396.08,3229.75" /><polygon id="4172" points="3895.95,2479.0 3895.95,2363.5 3795.92,2305.75 3695.9,2363.5 3595.87,2305.75 3495.84,2363.5 3495.84,2479.0 3395.82,2536.75 3395.82,2652.25 3495.84,2710.0 3495.84,2825.5 3395.82,2883.25 3395.82,2998.75 3495.84,3056.5 3595.87,2998.75 3595.87,2883.25 3695.9,2825.5 3795.92,2883.25 3895.95,2825.5 3895.95,2710.0 3995.97,2652.25 3995.97,2536.75" /><polygon id="4173" points="3895.95,3518.5 3795.92,3576.25 3695.9,3518.5 3695.9,3403.0 3595.87,3345.25 3595.87,3229.75 3695.9,3172.0 3795.92,3229.75 3895.95,3172.0 3995.97,3229.75 4096.0,3172.0 4196.03,3229.75 4196.03,3345.25 4096.0,3403.0 4096.0,3518.5 3995.97,3576.25" /><polygon id="4180" points="2495.59,6290.5 2595.61,6348.25 2595.61,6463.75 2695.64,6521.5 2695.64,6637.0 2795.66,6694.75 2895.69,6637.0 2895.69,6521.5 2995.71,6463.75 2995.71,6348.25 2895.69,6290.5 2895.69,6175.0 2795.66,6117.25 2795.66,6001.75 2695.64,5944.0 2595.61,6001.75 2595.61,6117.25 2495.59,6175.0" /><polygon id="4181" points="2295.53,6521.5 2395.56,6463.75 2495.59,6521.5 2595.61,6463.75 2595.61,6348.25 2495.59,6290.5 2495.59,6175.0 2595.61,6117.25 2595.61,6001.75 2495.59,5944.0 2395.56,6001.75 2295.53,5944.0 2195.51,6001.75 2195.51,6117.25 2095.48,6175.0 2095.48,6290.5 2195.51,6348.25 2195.51,6463.75" /><polygon id="4182" points="2795.66,6117.25 2795.66,6001.75 2695.64,5944.0 2595.61,6001.75 2495.59,5944.0 2495.59,5828.5 2595.61,5770.75 2595.61,5655.25 2695.64,5597.5 2795.66,5655.25 2795.66,5770.75 2895.69,5828.5 2995.71,5770.75 3095.74,5828.5 3095.74,5944.0 2995.71,6001.75 2995.71,6117.25 2895.69,6175.0" /><polygon id="4183" points="2895.69,6637.0 2895.69,6521.5 2995.71,6463.75 2995.71,6348.25 2895.69,6290.5 2895.69,6175.0 2995.71,6117.25 2995.71,6001.75 3095.74,5944.0 3195.77,6001.75 3295.79,5944.0 3395.82,6001.75 3495.84,5944.0 3595.87,6001.75 3595.87,6117.25 3495.84,6175.0 3495.84,6290.5 3395.82,6348.25 3395.82,6463.75 3495.84,6521.5 3495.84,6637.0 3395.82,6694.75 3295.79,6637.0 3195.77,6694.75 3095.74,6637.0 2995.71,6694.75" /><polygon id="4190" points="7196.8,3576.25 7196.8,3691.75 7096.78,3749.5 7096.78,3865.0 6996.75,3922.75 6896.73,3865.0 6896.73,3749.5 6796.7,3691.75 6696.67,3749.5 6596.65,3691.75 6596.65,3576.25 6696.67,3518.5 6696.67,3403.0 6796.7,3345.25 6896.73,3403.0 6996.75,3345.25 7096.78,3403.0 7096.78,3518.5" /><polygon id="4191" points="6296.57,3172.0 6296.57,3056.5 6396.6,2998.75 6496.62,3056.5 6496.62,3172.0 6596.65,3229.75 6696.67,3172.0 6796.7,3229.75 6796.7,3345.25 6696.67,3403.0 6696.67,3518.5 6596.65,3576.25 6496.62,3518.5 6396.6,3576.25 6296.57,3518.5 6196.54,3576.25 6096.52,3518.5 6096.52,3403.0 6196.54,3345.25 6196.54,3229.75" /><polygon id="4192" points="6296.57,3518.5 6196.54,3576.25 6096.52,3518.5 5996.49,3576.25 5996.49,3691.75 6096.52,3749.5 6096.52,3865.0 6196.54,3922.75 6196.54,4038.25 6296.57,4096.0 6396.6,4038.25 6396.6,3922.75 6496.62,3865.0 6596.65,3922.75 6696.67,3865.0 6696.67,3749.5 6596.65,3691.75 6596.65,3576.25 6496.62,3518.5 6396.6,3576.25" /><polygon id="4193" points="6396.6,4269.25 6496.62,4211.5 6596.65,4269.25 6696.67,4211.5 6796.7,4269.25 6896.73,4211.5 6896.73,4096.0 6996.75,4038.25 6996.75,3922.75 6896.73,3865.0 6896.73,3749.5 6796.7,3691.75 6696.67,3749.5 6696.67,3865.0 6596.65,3922.75 6496.62,3865.0 6396.6,3922.75 6396.6,4038.25 6296.57,4096.0 6296.57,4211.5" /><polygon id="4200" points="1495.33,4558.0 1595.35,4615.75 1595.35,4731.25 1495.33,4789.0 1495.33,4904.5 1395.3,4962.25 1395.3,5077.75 1295.27,5135.5 1195.25,5077.75 1195.25,4962.25 1095.22,4904.5 995.2,4962.25 895.17,4904.5 895.17,4789.0 995.2,4731.25 995.2,4615.75 1095.22,4558.0 1195.25,4615.75 1295.27,4558.0 1395.3,4615.75" /><polygon id="4201" points="1195.25,5424.25 1095.22,5482.0 995.2,5424.25 995.2,5308.75 895.17,5251.0 895.17,5135.5 795.14,5077.75 795.14,4962.25 895.17,4904.5 995.2,4962.25 1095.22,4904.5 1195.25,4962.25 1195.25,5077.75 1295.27,5135.5 1395.3,5077.75 1495.33,5135.5 1495.33,5251.0 1395.3,5308.75 1395.3,5424.25 1295.27,5482.0" /><polygon id="4202" points="695.12,4904.5 695.12,4789.0 595.09,4731.25 595.09,4615.75 495.07,4558.0 495.07,4442.5 595.09,4384.75 695.12,4442.5 795.14,4384.75 895.17,4442.5 995.2,4384.75 1095.22,4442.5 1195.25,4384.75 1295.27,4442.5 1395.3,4384.75 1495.33,4442.5 1495.33,4558.0 1395.3,4615.75 1295.27,4558.0 1195.25,4615.75 1095.22,4558.0 995.2,4615.75 995.2,4731.25 895.17,4789.0 895.17,4904.5 795.14,4962.25" /><polygon id="4203" points="1895.43,4904.5 1795.4,4962.25 1795.4,5077.75 1695.38,5135.5 1695.38,5251.0 1595.35,5308.75 1495.33,5251.0 1495.33,5135.5 1395.3,5077.75 1395.3,4962.25 1495.33,4904.5 1495.33,4789.0 1595.35,4731.25 1595.35,4615.75 1495.33,4558.0 1495.33,4442.5 1595.35,4384.75 1595.35,4269.25 1695.38,4211.5 1795.4,4269.25 1795.4,4384.75 1895.43,4442.5 1895.43,4558.0 1995.46,4615.75 1995.46,4731.25 1895.43,4789.0" /><polygon id="4210" points="5696.41,5828.5 5696.41,5944.0 5596.39,6001.75 5596.39,6117.25 5696.41,6175.0 5796.44,6117.25 5896.47,6175.0 5996.49,6117.25 6096.52,6175.0 6196.54,6117.25 6296.57,6175.0 6396.6,6117.25 6496.62,6175.0 6596.65,6117.25 6596.65,6001.75 6496.62,5944.0 6496.62,5828.5 6396.6,5770.75 6296.57,5828.5 6196.54,5770.75 6096.52,5828.5 5996.49,5770.75 5896.47,5828.5 5796.44,5770.75" /><polygon id="4211" points="6196.54,5308.75 6096.52,5251.0 5996.49,5308.75 5896.47,5251.0 5796.44,5308.75 5796.44,5424.25 5696.41,5482.0 5696.41,5597.5 5596.39,5655.25 5596.39,5770.75 5696.41,5828.5 5796.44,5770.75 5896.47,5828.5 5996.49,5770.75 6096.52,5828.5 6196.54,5770.75 6296.57,5828.5 6396.6,5770.75 6396.6,5655.25 6296.57,5597.5 6296.57,5482.0 6396.6,5424.25 6396.6,5308.75 6296.57,5251.0" /><polygon id="4212" points="6796.7,5770.75 6796.7,5655.25 6696.67,5597.5 6596.65,5655.25 6496.62,5597.5 6496.62,5482.0 6396.6,5424.25 6296.57,5482.0 6296.57,5597.5 6396.6,5655.25 6396.6,5770.75 6496.62,5828.5 6496.62,5944.0 6596.65,6001.75 6596.65,6117.25 6696.67,6175.0 6796.7,6117.25 6796.7,6001.75 6896.73,5944.0 6896.73,5828.5" /><polygon id="4213" points="6496.62,6521.5 6596.65,6463.75 6596.65,6348.25 6696.67,6290.5 6696.67,6175.0 6596.65,6117.25 6496.62,6175.0 6396.6,6117.25 6296.57,6175.0 6196.54,6117.25 6096.52,6175.0 5996.49,6117.25 5896.47,6175.0 5796.44,6117.25 5696.41,6175.0 5696.41,6290.5 5796.44,6348.25 5896.47,6290.5 5996.49,6348.25 5996.49,6463.75 6096.52,6521.5 6196.54,6463.75 6296.57,6521.5 6396.6,6463.75" /><polygon id="4220" points="4596.13,804.25 4696.16,746.5 4796.18,804.25 4896.21,746.5 4996.23,804.25 4996.23,919.75 4896.21,977.5 4896.21,1093.0 4996.23,1150.75 4996.23,1266.25 4896.21,1324.0 4896.21,1439.5 4796.18,1497.25 4696.16,1439.5 4696.16,1324.0 4596.13,1266.25 4596.13,1150.75 4696.16,1093.0 4696.16,977.5 4596.13,919.75" /><polygon id="4221" points="4496.1,746.5 4596.13,804.25 4596.13,919.75 4696.16,977.5 4696.16,1093.0 4596.13,1150.75 4596.13,1266.25 4496.1,1324.0 4396.08,1266.25 4296.05,1324.0 4196.03,1266.25 4196.03,1150.75 4296.05,1093.0 4296.05,977.5 4396.08,919.75 4396.08,804.25" /><polygon id="4222" points="5196.29,1266.25 5196.29,1150.75 5296.31,1093.0 5296.31,977.5 5196.29,919.75 5196.29,804.25 5096.26,746.5 4996.23,804.25 4996.23,919.75 4896.21,977.5 4896.21,1093.0 4996.23,1150.75 4996.23,1266.25 4896.21,1324.0 4896.21,1439.5 4796.18,1497.25 4796.18,1612.75 4896.21,1670.5 4996.23,1612.75 5096.26,1670.5 5196.29,1612.75 5196.29,1497.25 5296.31,1439.5 5296.31,1324.0" /><polygon id="4223" points="4696.16,1670.5 4796.18,1612.75 4796.18,1497.25 4696.16,1439.5 4696.16,1324.0 4596.13,1266.25 4496.1,1324.0 4396.08,1266.25 4296.05,1324.0 4196.03,1266.25 4096.0,1324.0 4096.0,1439.5 4196.03,1497.25 4196.03,1612.75 4296.05,1670.5 4396.08,1612.75 4496.1,1670.5 4596.13,1612.75" /><polygon id="4230" points="695.12,1670.5 795.14,1612.75 795.14,1497.25 895.17,1439.5 995.2,1497.25 1095.22,1439.5 1195.25,1497.25 1295.27,1439.5 1395.3,1497.25 1395.3,1612.75 1495.33,1670.5 1495.33,1786.0 1395.3,1843.75 1395.3,1959.25 1495.33,2017.0 1495.33,2132.5 1395.3,2190.25 1395.3,2305.75 1295.27,2363.5 1295.27,2479.0 1195.25,2536.75 1095.22,2479.0 995.2,2536.75 895.17,2479.0 795.14,2536.75 695.12,2479.0 595.09,2536.75 495.07,2479.0 495.07,2363.5 395.04,2305.75 395.04,2190.25 495.07,2132.5 495.07,2017.0 595.09,1959.25 595.09,1843.75 695.12,1786.0" /><polygon id="4240" points="6896.73,1670.5 6896.73,1786.0 6796.7,1843.75 6796.7,1959.25 6696.67,2017.0 6696.67,2132.5 6596.65,2190.25 6596.65,2305.75 6696.67,2363.5 6696.67,2479.0 6796.7,2536.75 6796.7,2652.25 6896.73,2710.0 6996.75,2652.25 7096.78,2710.0 7196.8,2652.25 7296.83,2710.0 7396.86,2652.25 7396.86,2536.75 7496.88,2479.0 7496.88,2363.5 7596.91,2305.75 7596.91,2190.25 7696.93,2132.5 7696.93,2017.0 7796.96,1959.25 7796.96,1843.75 7696.93,1786.0 7696.93,1670.5 7596.91,1612.75 7596.91,1497.25 7496.88,1439.5 7496.88,1324.0 7396.86,1266.25 7296.83,1324.0 7196.8,1266.25 7096.78,1324.0 7096.78,1439.5 6996.75,1497.25 6996.75,1612.75" /><polygon id="4250" points="4596.13,7387.75 4496.1,7330.0 4496.1,7214.5 4396.08,7156.75 4396.08,7041.25 4296.05,6983.5 4196.03,7041.25 4096.0,6983.5 3995.97,7041.25 3895.95,6983.5 3795.92,7041.25 3695.9,6983.5 3595.87,7041.25 3595.87,7156.75 3495.84,7214.5 3495.84,7330.0 3395.82,7387.75 3395.82,7503.25 3295.79,7561.0 3295.79,7676.5 3395.82,7734.25 3395.82,7849.75 3495.84,7907.5 3595.87,7849.75 3695.9,7907.5 3795.92,7849.75 3895.95,7907.5 3995.97,7849.75 4096.0,7907.5 4196.03,7849.75 4296.05,7907.5 4396.08,7849.75 4496.1,7907.5 4596.13,7849.75 4596.13,7734.25 4696.16,7676.5 4696.16,7561.0 4596.13,7503.25" /><polygon id="4260" points="1695.38,3865.0 1595.35,3922.75 1495.33,3865.0 1495.33,3749.5 1595.35,3691.75 1595.35,3576.25 1495.33,3518.5 1495.33,3403.0 1395.3,3345.25 1395.3,3229.75 1295.27,3172.0 1295.27,3056.5 1395.3,2998.75 1495.33,3056.5 1595.35,2998.75 1695.38,3056.5 1795.4,2998.75 1895.43,3056.5 1895.43,3172.0 1995.46,3229.75 1995.46,3345.25 2095.48,3403.0 2095.48,3518.5 1995.46,3576.25 1995.46,3691.75 1895.43,3749.5 1895.43,3865.0 1795.4,3922.75" /><polygon id="4261" points="3495.84,2363.5 3595.87,2305.75 3595.87,2190.25 3695.9,2132.5 3695.9,2017.0 3595.87,1959.25 3595.87,1843.75 3695.9,1786.0 3695.9,1670.5 3595.87,1612.75 3495.84,1670.5 3395.82,1612.75 3295.79,1670.5 3195.77,1612.75 3095.74,1670.5 3095.74,1786.0 3195.77,1843.75 3195.77,1959.25 3295.79,2017.0 3295.79,2132.5 3195.77,2190.25 3195.77,2305.75 3295.79,2363.5 3395.82,2305.75" /><polygon id="4262" points="5996.49,2536.75 5896.47,2479.0 5796.44,2536.75 5696.41,2479.0 5696.41,2363.5 5596.39,2305.75 5596.39,2190.25 5696.41,2132.5 5696.41,2017.0 5596.39,1959.25 5596.39,1843.75 5696.41,1786.0 5796.44,1843.75 5896.47,1786.0 5996.49,1843.75 6096.52,1786.0 6196.54,1843.75 6196.54,1959.25 6296.57,2017.0 6296.57,2132.5 6196.54,2190.25 6196.54,2305.75 6096.52,2363.5 6096.52,2479.0" /><polygon id="4263" points="2395.56,5424.25 2495.59,5482.0 2495.59,5597.5 2595.61,5655.25 2695.64,5597.5 2695.64,5482.0 2795.66,5424.25 2795.66,5308.75 2895.69,5251.0 2895.69,5135.5 2795.66,5077.75 2795.66,4962.25 2695.64,4904.5 2595.61,4962.25 2495.59,4904.5 2395.56,4962.25 2395.56,5077.75 2295.53,5135.5 2195.51,5077.75 2095.48,5135.5 2095.48,5251.0 2195.51,5308.75 2295.53,5251.0 2395.56,5308.75" /><polygon id="4264" points="4596.13,6463.75 4696.16,6521.5 4696.16,6637.0 4796.18,6694.75 4896.21,6637.0 4996.23,6694.75 5096.26,6637.0 5096.26,6521.5 5196.29,6463.75 5196.29,6348.25 5296.31,6290.5 5296.31,6175.0 5196.29,6117.25 5196.29,6001.75 5096.26,5944.0 4996.23,6001.75 4896.21,5944.0 4796.18,6001.75 4696.16,5944.0 4596.13,6001.75 4596.13,6117.25 4496.1,6175.0 4496.1,6290.5 4596.13,6348.25" /><polygon id="4265" points="6396.6,4269.25 6396.6,4384.75 6496.62,4442.5 6496.62,4558.0 6396.6,4615.75 6396.6,4731.25 6496.62,4789.0 6496.62,4904.5 6396.6,4962.25 6296.57,4904.5 6196.54,4962.25 6096.52,4904.5 6096.52,4789.0 5996.49,4731.25 5996.49,4615.75 5896.47,4558.0 5896.47,4442.5 5996.49,4384.75 5996.49,4269.25 6096.52,4211.5 6196.54,4269.25 6296.57,4211.5" /><polygon id="4266" points="2395.56,2652.25 2295.53,2710.0 2295.53,2825.5 2195.51,2883.25 2095.48,2825.5 1995.46,2883.25 1895.43,2825.5 1895.43,2710.0 1995.46,2652.25 1995.46,2536.75 1895.43,2479.0 1895.43,2363.5 1995.46,2305.75 1995.46,2190.25 2095.48,2132.5 2195.51,2190.25 2295.53,2132.5 2395.56,2190.25 2495.59,2132.5 2595.61,2190.25 2595.61,2305.75 2695.64,2363.5 2695.64,2479.0 2595.61,2536.75 2595.61,2652.25 2495.59,2710.0" /><polygon id="4267" points="3195.77,3576.25 3295.79,3518.5 3295.79,3403.0 3395.82,3345.25 3395.82,3229.75 3495.84,3172.0 3495.84,3056.5 3395.82,2998.75 3295.79,3056.5 3195.77,2998.75 3095.74,3056.5 2995.71,2998.75 2895.69,3056.5 2795.66,2998.75 2695.64,3056.5 2695.64,3172.0 2595.61,3229.75 2595.61,3345.25 2495.59,3403.0 2495.59,3518.5 2595.61,3576.25 2695.64,3518.5 2795.66,3576.25 2795.66,3691.75 2895.69,3749.5 2895.69,3865.0 2995.71,3922.75 3095.74,3865.0 3095.74,3749.5 3195.77,3691.75" /><polygon id="4268" points="5496.36,3403.0 5496.36,3518.5 5596.39,3576.25 5696.41,3518.5 5796.44,3576.25 5796.44,3691.75 5696.41,3749.5 5696.41,3865.0 5596.39,3922.75 5596.39,4038.25 5496.36,4096.0 5396.34,4038.25 5296.31,4096.0 5196.29,4038.25 5096.26,4096.0 4996.23,4038.25 4996.23,3922.75 5096.26,3865.0 5096.26,3749.5 4996.23,3691.75 4996.23,3576.25 5096.26,3518.5 5096.26,3403.0 5196.29,3345.25 5296.31,3403.0 5396.34,3345.25" /><polygon id="4269" points="6296.57,3172.0 6196.54,3229.75 6196.54,3345.25 6096.52,3403.0 5996.49,3345.25 5996.49,3229.75 5896.47,3172.0 5896.47,3056.5 5796.44,2998.75 5796.44,2883.25 5696.41,2825.5 5696.41,2710.0 5596.39,2652.25 5596.39,2536.75 5696.41,2479.0 5796.44,2536.75 5896.47,2479.0 5996.49,2536.75 6096.52,2479.0 6196.54,2536.75 6196.54,2652.25 6296.57,2710.0 6296.57,2825.5 6396.6,2883.25 6396.6,2998.75 6296.57,3056.5" /><polygon id="4270" points="3495.84,5135.5 3395.82,5077.75 3395.82,4962.25 3495.84,4904.5 3595.87,4962.25 3695.9,4904.5 3795.92,4962.25 3795.92,5077.75 3895.95,5135.5 3995.97,5077.75 4096.0,5135.5 4196.03,5077.75 4296.05,5135.5 4396.08,5077.75 4496.1,5135.5 4496.1,5251.0 4596.13,5308.75 4596.13,5424.25 4496.1,5482.0 4396.08,5424.25 4296.05,5482.0 4296.05,5597.5 4196.03,5655.25 4096.0,5597.5 3995.97,5655.25 3895.95,5597.5 3795.92,5655.25 3695.9,5597.5 3595.87,5655.25 3495.84,5597.5 3495.84,5482.0 3595.87,5424.25 3595.87,5308.75 3495.84,5251.0" /><polygon id="4271" points="3695.9,5944.0 3795.92,6001.75 3795.92,6117.25 3895.95,6175.0 3995.97,6117.25 4096.0,6175.0 4196.03,6117.25 4296.05,6175.0 4296.05,6290.5 4196.03,6348.25 4096.0,6290.5 3995.97,6348.25 3995.97,6463.75 3895.95,6521.5 3895.95,6637.0 3795.92,6694.75 3695.9,6637.0 3595.87,6694.75 3495.84,6637.0 3495.84,6521.5 3395.82,6463.75 3395.82,6348.25 3495.84,6290.5 3495.84,6175.0 3595.87,6117.25 3595.87,6001.75" /></svg>