<svg viewBox="0 0 8192 8192"><polygon id="2101" points="1895.43,4904.5 1895.43,4789.0 1795.4,4731.25 1795.4,4615.75 1695.38,4558.0 1695.38,4442.5 1595.35,4384.75 1595.35,4269.25 1495.33,4211.5 1495.33,4096.0 1395.3,4038.25 1295.27,4096.0 1195.25,4038.25 1095.22,4096.0 1095.22,4211.5 995.2,4269.25 995.2,4384.75 895.17,4442.5 895.17,4558.0 795.14,4615.75 795.14,4731.25 895.17,4789.0 995.2,4731.25 1095.22,4789.0 1195.25,4731.25 1295.27,4789.0 1395.3,4731.25 1495.33,4789.0 1495.33,4904.5 1595.35,4962.25 1695.38,4904.5 1795.4,4962.25" /><polygon id="2102" points="5796.44,1959.25 5696.41,2017.0 5596.39,1959.25 5496.36,2017.0 5496.36,2132.5 5396.34,2190.25 5396.34,2305.75 5496.36,2363.5 5496.36,2479.0 5596.39,2536.75 5696.41,2479.0 5696.41,2363.5 5796.44,2305.75 5896.47,2363.5 5996.49,2305.75 5996.49,2190.25 5896.47,2132.5 5896.47,2017.0" /><polygon id="2103" points="3395.82,4731.25 3295.79,4789.0 3295.79,4904.5 3195.77,4962.25 3095.74,4904.5 3095.74,4789.0 2995.71,4731.25 2995.71,4615.75 3095.74,4558.0 3095.74,4442.5 2995.71,4384.75 2995.71,4269.25 3095.74,4211.5 3195.77,4269.25 3295.79,4211.5 3395.82,4269.25 3395.82,4384.75 3495.84,4442.5 3495.84,4558.0 3395.82,4615.75" /><polygon id="2104" points="2095.48,2017.0 2195.51,1959.25 2295.53,2017.0 2395.56,1959.25 2395.56,1843.75 2495.59,1786.0 2495.59,1670.5 2395.56,1612.75 2295.53,1670.5 2195.51,1612.75 2195.51,1497.25 2095.48,1439.5 1995.46,1497.25 1895.43,1439.5 1795.4,1497.25 1795.4,1612.75 1895.43,1670.5 1895.43,1786.0 1795.4,1843.75 1795.4,1959.25 1895.43,2017.0 1995.46,1959.25" /><polygon id="2105" points="3295.79,6983.5 3195.77,7041.25 3095.74,6983.5 2995.71,7041.25 2895.69,6983.5 2895.69,6868.0 2795.66,6810.25 2795.66,6694.75 2695.64,6637.0 2695.64,6521.5 2595.61,6463.75 2595.61,6348.25 2695.64,6290.5 2695.64,6175.0 2795.66,6117.25 2895.69,6175.0 2995.71,6117.25 3095.74,6175.0 3095.74,6290.5 3195.77,6348.25 3195.77,6463.75 3295.79,6521.5 3295.79,6637.0 3395.82,6694.75 3395.82,6810.25 3495.84,6868.0 3495.84,6983.5 3395.82,7041.25" /><polygon id="2106" points="6596.65,4731.25 6496.62,4789.0 6396.6,4731.25 6296.57,4789.0 6196.54,4731.25 6196.54,4615.75 6296.57,4558.0 6296.57,4442.5 6396.6,4384.75 6496.62,4442.5 6596.65,4384.75 6696.67,4442.5 6696.67,4558.0 6796.7,4615.75 6796.7,4731.25 6696.67,4789.0" /><polygon id="2107" points="3195.77,2536.75 3195.77,2652.25 3095.74,2710.0 3095.74,2825.5 2995.71,2883.25 2895.69,2825.5 2795.66,2883.25 2695.64,2825.5 2695.64,2710.0 2595.61,2652.25 2595.61,2536.75 2695.64,2479.0 2695.64,2363.5 2795.66,2305.75 2795.66,2190.25 2895.69,2132.5 2995.71,2190.25 2995.71,2305.75 3095.74,2363.5 3095.74,2479.0" /><polygon id="2108" points="5096.26,6175.0 5196.29,6117.25 5196.29,6001.75 5096.26,5944.0 5096.26,5828.5 4996.23,5770.75 4896.21,5828.5 4896.21,5944.0 4796.18,6001.75 4696.16,5944.0 4596.13,6001.75 4496.1,5944.0 4396.08,6001.75 4396.08,6117.25 4496.1,6175.0 4496.1,6290.5 4596.13,6348.25 4696.16,6290.5 4796.18,6348.25 4896.21,6290.5 4896.21,6175.0 4996.23,6117.25" /><polygon id="2109" points="5196.29,4962.25 5296.31,4904.5 5296.31,4789.0 5396.34,4731.25 5396.34,4615.75 5496.36,4558.0 5496.36,4442.5 5396.34,4384.75 5396.34,4269.25 5296.31,4211.5 5196.29,4269.25 5096.26,4211.5 4996.23,4269.25 4996.23,4384.75 4896.21,4442.5 4896.21,4558.0 4996.23,4615.75 4996.23,4731.25 5096.26,4789.0 5096.26,4904.5" /><polygon id="2201" points="4696.16,1439.5 4696.16,1324.0 4796.18,1266.25 4796.18,1150.75 4896.21,1093.0 4896.21,977.5 4796.18,919.75 4696.16,977.5 4596.13,919.75 4496.1,977.5 4396.08,919.75 4396.08,804.25 4296.05,746.5 4196.03,804.25 4096.0,746.5 3995.97,804.25 3895.95,746.5 3795.92,804.25 3795.92,919.75 3695.9,977.5 3695.9,1093.0 3795.92,1150.75 3795.92,1266.25 3695.9,1324.0 3695.9,1439.5 3795.92,1497.25 3795.92,1612.75 3695.9,1670.5 3695.9,1786.0 3795.92,1843.75 3795.92,1959.25 3895.95,2017.0 3995.97,1959.25 4096.0,2017.0 4196.03,1959.25 4296.05,2017.0 4396.08,1959.25 4496.1,2017.0 4596.13,1959.25 4596.13,1843.75 4696.16,1786.0 4696.16,1670.5 4796.18,1612.75 4796.18,1497.25" /><polygon id="2202" points="1895.43,5944.0 1795.4,6001.75 1695.38,5944.0 1595.35,6001.75 1495.33,5944.0 1395.3,6001.75 1295.27,5944.0 1195.25,6001.75 1195.25,6117.25 1095.22,6175.0 1095.22,6290.5 1195.25,6348.25 1195.25,6463.75 1295.27,6521.5 1295.27,6637.0 1395.3,6694.75 1395.3,6810.25 1495.33,6868.0 1595.35,6810.25 1695.38,6868.0 1795.4,6810.25 1895.43,6868.0 1995.46,6810.25 1995.46,6694.75 2095.48,6637.0 2095.48,6521.5 1995.46,6463.75 1995.46,6348.25 2095.48,6290.5 2095.48,6175.0 1995.46,6117.25 1995.46,6001.75" /><polygon id="2203" points="7396.86,6348.25 7396.86,6463.75 7296.83,6521.5 7296.83,6637.0 7196.8,6694.75 7196.8,6810.25 7296.83,6868.0 7296.83,6983.5 7196.8,7041.25 7196.8,7156.75 7096.78,7214.5 6996.75,7156.75 6896.73,7214.5 6796.7,7156.75 6696.67,7214.5 6596.65,7156.75 6496.62,7214.5 6396.6,7156.75 6296.57,7214.5 6196.54,7156.75 6196.54,7041.25 6096.52,6983.5 6096.52,6868.0 6196.54,6810.25 6196.54,6694.75 6296.57,6637.0 6296.57,6521.5 6396.6,6463.75 6396.6,6348.25 6496.62,6290.5 6496.62,6175.0 6596.65,6117.25 6596.65,6001.75 6696.67,5944.0 6796.7,6001.75 6896.73,5944.0 6996.75,6001.75 7096.78,5944.0 7196.8,6001.75 7296.83,5944.0 7396.86,6001.75 7396.86,6117.25 7296.83,6175.0 7296.83,6290.5" /><polygon id="2301" points="3095.74,2017.0 3195.77,1959.25 3295.79,2017.0 3395.82,1959.25 3495.84,2017.0 3595.87,1959.25 3695.9,2017.0 3795.92,1959.25 3795.92,1843.75 3695.9,1786.0 3695.9,1670.5 3795.92,1612.75 3795.92,1497.25 3695.9,1439.5 3695.9,1324.0 3595.87,1266.25 3495.84,1324.0 3395.82,1266.25 3295.79,1324.0 3195.77,1266.25 3095.74,1324.0 2995.71,1266.25 2895.69,1324.0 2895.69,1439.5 2995.71,1497.25 2995.71,1612.75 3095.74,1670.5 3095.74,1786.0 2995.71,1843.75 2995.71,1959.25" /><polygon id="2302" points="5296.31,1324.0 5196.29,1266.25 5196.29,1150.75 5296.31,1093.0 5296.31,977.5 5396.34,919.75 5496.36,977.5 5596.39,919.75 5696.41,977.5 5696.41,1093.0 5796.44,1150.75 5896.47,1093.0 5996.49,1150.75 5996.49,1266.25 5896.47,1324.0 5896.47,1439.5 5796.44,1497.25 5796.44,1612.75 5696.41,1670.5 5696.41,1786.0 5596.39,1843.75 5496.36,1786.0 5496.36,1670.5 5396.34,1612.75 5396.34,1497.25 5296.31,1439.5" /><polygon id="2303" points="1395.3,2652.25 1295.27,2710.0 1195.25,2652.25 1095.22,2710.0 1095.22,2825.5 995.2,2883.25 995.2,2998.75 1095.22,3056.5 1095.22,3172.0 1195.25,3229.75 1295.27,3172.0 1395.3,3229.75 1395.3,3345.25 1495.33,3403.0 1595.35,3345.25 1695.38,3403.0 1795.4,3345.25 1895.43,3403.0 1995.46,3345.25 1995.46,3229.75 2095.48,3172.0 2095.48,3056.5 1995.46,2998.75 1995.46,2883.25 1895.43,2825.5 1895.43,2710.0 1795.4,2652.25 1695.38,2710.0 1595.35,2652.25 1495.33,2710.0" /><polygon id="2304" points="4496.1,3172.0 4396.08,3229.75 4396.08,3345.25 4296.05,3403.0 4196.03,3345.25 4096.0,3403.0 3995.97,3345.25 3895.95,3403.0 3795.92,3345.25 3795.92,3229.75 3695.9,3172.0 3695.9,3056.5 3595.87,2998.75 3595.87,2883.25 3695.9,2825.5 3695.9,2710.0 3795.92,2652.25 3795.92,2536.75 3895.95,2479.0 3995.97,2536.75 4096.0,2479.0 4196.03,2536.75 4296.05,2479.0 4396.08,2536.75 4496.1,2479.0 4596.13,2536.75 4596.13,2652.25 4696.16,2710.0 4696.16,2825.5 4596.13,2883.25 4596.13,2998.75 4496.1,3056.5" /><polygon id="2305" points="5596.39,3576.25 5596.39,3691.75 5496.36,3749.5 5496.36,3865.0 5596.39,3922.75 5596.39,4038.25 5696.41,4096.0 5796.44,4038.25 5896.47,4096.0 5996.49,4038.25 6096.52,4096.0 6196.54,4038.25 6296.57,4096.0 6396.6,4038.25 6396.6,3922.75 6296.57,3865.0 6296.57,3749.5 6196.54,3691.75 6196.54,3576.25 6096.52,3518.5 6096.52,3403.0 5996.49,3345.25 5896.47,3403.0 5796.44,3345.25 5696.41,3403.0 5696.41,3518.5" /><polygon id="2306" points="4596.13,4384.75 4496.1,4442.5 4496.1,4558.0 4396.08,4615.75 4296.05,4558.0 4196.03,4615.75 4096.0,4558.0 4096.0,4442.5 4196.03,4384.75 4196.03,4269.25 4096.0,4211.5 4096.0,4096.0 4196.03,4038.25 4296.05,4096.0 4396.08,4038.25 4396.08,3922.75 4496.1,3865.0 4596.13,3922.75 4696.16,3865.0 4796.18,3922.75 4796.18,4038.25 4896.21,4096.0 4896.21,4211.5 4796.18,4269.25 4796.18,4384.75 4696.16,4442.5" /><polygon id="2307" points="3895.95,4904.5 3995.97,4962.25 3995.97,5077.75 4096.0,5135.5 4196.03,5077.75 4296.05,5135.5 4396.08,5077.75 4496.1,5135.5 4496.1,5251.0 4596.13,5308.75 4696.16,5251.0 4796.18,5308.75 4896.21,5251.0 4896.21,5135.5 4796.18,5077.75 4796.18,4962.25 4696.16,4904.5 4696.16,4789.0 4596.13,4731.25 4596.13,4615.75 4496.1,4558.0 4396.08,4615.75 4296.05,4558.0 4196.03,4615.75 4096.0,4558.0 3995.97,4615.75 3995.97,4731.25 3895.95,4789.0" /><polygon id="2308" points="1295.27,5482.0 1295.27,5597.5 1195.25,5655.25 1095.22,5597.5 995.2,5655.25 995.2,5770.75 1095.22,5828.5 1095.22,5944.0 1195.25,6001.75 1295.27,5944.0 1395.3,6001.75 1495.33,5944.0 1595.35,6001.75 1695.38,5944.0 1795.4,6001.75 1895.43,5944.0 1995.46,6001.75 2095.48,5944.0 2095.48,5828.5 2195.51,5770.75 2195.51,5655.25 2295.53,5597.5 2295.53,5482.0 2195.51,5424.25 2195.51,5308.75 2095.48,5251.0 1995.46,5308.75 1895.43,5251.0 1895.43,5135.5 1795.4,5077.75 1695.38,5135.5 1595.35,5077.75 1495.33,5135.5 1495.33,5251.0 1395.3,5308.75 1395.3,5424.25" /><polygon id="2309" points="2995.71,5308.75 2895.69,5251.0 2895.69,5135.5 2995.71,5077.75 2995.71,4962.25 3095.74,4904.5 3195.77,4962.25 3295.79,4904.5 3395.82,4962.25 3395.82,5077.75 3495.84,5135.5 3495.84,5251.0 3595.87,5308.75 3595.87,5424.25 3495.84,5482.0 3495.84,5597.5 3395.82,5655.25 3295.79,5597.5 3195.77,5655.25 3095.74,5597.5 3095.74,5482.0 2995.71,5424.25" /><polygon id="2310" points="3495.84,5944.0 3595.87,6001.75 3595.87,6117.25 3695.9,6175.0 3795.92,6117.25 3795.92,6001.75 3895.95,5944.0 3895.95,5828.5 3995.97,5770.75 3995.97,5655.25 3895.95,5597.5 3895.95,5482.0 3795.92,5424.25 3695.9,5482.0 3595.87,5424.25 3495.84,5482.0 3495.84,5597.5 3395.82,5655.25 3395.82,5770.75 3495.84,5828.5" /><polygon id="2311" points="5696.41,5944.0 5596.39,6001.75 5496.36,5944.0 5496.36,5828.5 5396.34,5770.75 5396.34,5655.25 5496.36,5597.5 5496.36,5482.0 5396.34,5424.25 5396.34,5308.75 5496.36,5251.0 5596.39,5308.75 5696.41,5251.0 5796.44,5308.75 5896.47,5251.0 5996.49,5308.75 5996.49,5424.25 5896.47,5482.0 5896.47,5597.5 5996.49,5655.25 5996.49,5770.75 5896.47,5828.5 5896.47,5944.0 5796.44,6001.75" /><polygon id="2312" points="6096.52,5944.0 5996.49,6001.75 5896.47,5944.0 5896.47,5828.5 5996.49,5770.75 5996.49,5655.25 5896.47,5597.5 5896.47,5482.0 5996.49,5424.25 6096.52,5482.0 6196.54,5424.25 6296.57,5482.0 6396.6,5424.25 6496.62,5482.0 6496.62,5597.5 6596.65,5655.25 6596.65,5770.75 6496.62,5828.5 6396.6,5770.75 6296.57,5828.5 6296.57,5944.0 6196.54,6001.75" /><polygon id="2313" points="5996.49,6001.75 5896.47,5944.0 5796.44,6001.75 5696.41,5944.0 5596.39,6001.75 5596.39,6117.25 5496.36,6175.0 5496.36,6290.5 5396.34,6348.25 5396.34,6463.75 5296.31,6521.5 5296.31,6637.0 5196.29,6694.75 5196.29,6810.25 5296.31,6868.0 5396.34,6810.25 5496.36,6868.0 5596.39,6810.25 5696.41,6868.0 5796.44,6810.25 5796.44,6694.75 5896.47,6637.0 5896.47,6521.5 5996.49,6463.75 5996.49,6348.25 6096.52,6290.5 6096.52,6175.0 6196.54,6117.25 6196.54,6001.75 6096.52,5944.0" /><polygon id="2402" points="3695.9,746.5 3795.92,804.25 3795.92,919.75 3695.9,977.5 3695.9,1093.0 3795.92,1150.75 3795.92,1266.25 3695.9,1324.0 3595.87,1266.25 3495.84,1324.0 3395.82,1266.25 3295.79,1324.0 3195.77,1266.25 3095.74,1324.0 2995.71,1266.25 2895.69,1324.0 2795.66,1266.25 2795.66,1150.75 2695.64,1093.0 2695.64,977.5 2595.61,919.75 2595.61,804.25 2695.64,746.5 2795.66,804.25 2895.69,746.5 2995.71,804.25 3095.74,746.5 3195.77,804.25 3295.79,746.5 3395.82,804.25 3495.84,746.5 3595.87,804.25" /><polygon id="2404" points="1195.25,1497.25 1195.25,1612.75 1095.22,1670.5 1095.22,1786.0 995.2,1843.75 995.2,1959.25 1095.22,2017.0 1195.25,1959.25 1295.27,2017.0 1395.3,1959.25 1495.33,2017.0 1595.35,1959.25 1695.38,2017.0 1795.4,1959.25 1795.4,1843.75 1895.43,1786.0 1895.43,1670.5 1795.4,1612.75 1795.4,1497.25 1695.38,1439.5 1695.38,1324.0 1595.35,1266.25 1595.35,1150.75 1495.33,1093.0 1395.3,1150.75 1395.3,1266.25 1295.27,1324.0 1295.27,1439.5" /><polygon id="2405" points="1795.4,2652.25 1695.38,2710.0 1595.35,2652.25 1495.33,2710.0 1395.3,2652.25 1295.27,2710.0 1195.25,2652.25 1095.22,2710.0 995.2,2652.25 995.2,2536.75 895.17,2479.0 895.17,2363.5 995.2,2305.75 995.2,2190.25 895.17,2132.5 895.17,2017.0 995.2,1959.25 1095.22,2017.0 1195.25,1959.25 1295.27,2017.0 1395.3,1959.25 1495.33,2017.0 1595.35,1959.25 1695.38,2017.0 1795.4,1959.25 1895.43,2017.0 1895.43,2132.5 1795.4,2190.25 1795.4,2305.75 1895.43,2363.5 1895.43,2479.0 1995.46,2536.75 1995.46,2652.25 1895.43,2710.0" /><polygon id="2406" points="2395.56,1959.25 2395.56,1843.75 2495.59,1786.0 2595.61,1843.75 2595.61,1959.25 2695.64,2017.0 2795.66,1959.25 2895.69,2017.0 2895.69,2132.5 2795.66,2190.25 2795.66,2305.75 2695.64,2363.5 2695.64,2479.0 2595.61,2536.75 2495.59,2479.0 2395.56,2536.75 2295.53,2479.0 2195.51,2536.75 2095.48,2479.0 2095.48,2363.5 2195.51,2305.75 2195.51,2190.25 2295.53,2132.5 2295.53,2017.0" /><polygon id="2407" points="1995.46,2998.75 2095.48,3056.5 2095.48,3172.0 2195.51,3229.75 2295.53,3172.0 2395.56,3229.75 2495.59,3172.0 2495.59,3056.5 2395.56,2998.75 2395.56,2883.25 2295.53,2825.5 2295.53,2710.0 2195.51,2652.25 2195.51,2536.75 2095.48,2479.0 1995.46,2536.75 1995.46,2652.25 1895.43,2710.0 1895.43,2825.5 1995.46,2883.25" /><polygon id="2408" points="2395.56,1497.25 2495.59,1439.5 2495.59,1324.0 2595.61,1266.25 2595.61,1150.75 2695.64,1093.0 2795.66,1150.75 2795.66,1266.25 2895.69,1324.0 2895.69,1439.5 2995.71,1497.25 2995.71,1612.75 3095.74,1670.5 3095.74,1786.0 2995.71,1843.75 2995.71,1959.25 2895.69,2017.0 2795.66,1959.25 2695.64,2017.0 2595.61,1959.25 2595.61,1843.75 2495.59,1786.0 2495.59,1670.5 2395.56,1612.75" /><polygon id="2409" points="3695.9,2479.0 3595.87,2536.75 3495.84,2479.0 3395.82,2536.75 3295.79,2479.0 3295.79,2363.5 3195.77,2305.75 3095.74,2363.5 2995.71,2305.75 2995.71,2190.25 2895.69,2132.5 2895.69,2017.0 2995.71,1959.25 3095.74,2017.0 3195.77,1959.25 3295.79,2017.0 3395.82,1959.25 3495.84,2017.0 3595.87,1959.25 3695.9,2017.0 3795.92,1959.25 3895.95,2017.0 3895.95,2132.5 3795.92,2190.25 3795.92,2305.75 3895.95,2363.5 3895.95,2479.0 3795.92,2536.75" /><polygon id="2410" points="4196.03,1959.25 4096.0,2017.0 3995.97,1959.25 3895.95,2017.0 3895.95,2132.5 3795.92,2190.25 3795.92,2305.75 3895.95,2363.5 3895.95,2479.0 3995.97,2536.75 4096.0,2479.0 4196.03,2536.75 4296.05,2479.0 4396.08,2536.75 4496.1,2479.0 4596.13,2536.75 4696.16,2479.0 4696.16,2363.5 4796.18,2305.75 4896.21,2363.5 4996.23,2305.75 4996.23,2190.25 4896.21,2132.5 4896.21,2017.0 4796.18,1959.25 4696.16,2017.0 4596.13,1959.25 4496.1,2017.0 4396.08,1959.25 4296.05,2017.0" /><polygon id="2411" points="5196.29,1959.25 5096.26,2017.0 5096.26,2132.5 4996.23,2190.25 4896.21,2132.5 4896.21,2017.0 4796.18,1959.25 4696.16,2017.0 4596.13,1959.25 4596.13,1843.75 4696.16,1786.0 4696.16,1670.5 4796.18,1612.75 4796.18,1497.25 4696.16,1439.5 4696.16,1324.0 4796.18,1266.25 4796.18,1150.75 4896.21,1093.0 4896.21,977.5 4996.23,919.75 5096.26,977.5 5196.29,919.75 5296.31,977.5 5296.31,1093.0 5196.29,1150.75 5196.29,1266.25 5296.31,1324.0 5296.31,1439.5 5396.34,1497.25 5396.34,1612.75 5496.36,1670.5 5496.36,1786.0 5596.39,1843.75 5596.39,1959.25 5496.36,2017.0 5396.34,1959.25 5296.31,2017.0" /><polygon id="2412" points="5096.26,3172.0 5096.26,3056.5 4996.23,2998.75 4896.21,3056.5 4796.18,2998.75 4796.18,2883.25 4696.16,2825.5 4696.16,2710.0 4596.13,2652.25 4596.13,2536.75 4696.16,2479.0 4796.18,2536.75 4896.21,2479.0 4996.23,2536.75 5096.26,2479.0 5196.29,2536.75 5196.29,2652.25 5296.31,2710.0 5396.34,2652.25 5496.36,2710.0 5496.36,2825.5 5596.39,2883.25 5596.39,2998.75 5696.41,3056.5 5696.41,3172.0 5596.39,3229.75 5496.36,3172.0 5396.34,3229.75 5296.31,3172.0 5196.29,3229.75" /><polygon id="2413" points="6296.57,1439.5 6396.6,1497.25 6496.62,1439.5 6596.65,1497.25 6596.65,1612.75 6696.67,1670.5 6696.67,1786.0 6596.65,1843.75 6496.62,1786.0 6396.6,1843.75 6296.57,1786.0 6196.54,1843.75 6096.52,1786.0 5996.49,1843.75 5896.47,1786.0 5796.44,1843.75 5696.41,1786.0 5696.41,1670.5 5796.44,1612.75 5796.44,1497.25 5896.47,1439.5 5896.47,1324.0 5996.49,1266.25 5996.49,1150.75 6096.52,1093.0 6196.54,1150.75 6196.54,1266.25 6296.57,1324.0" /><polygon id="2414" points="5896.47,3056.5 5896.47,3172.0 5796.44,3229.75 5796.44,3345.25 5896.47,3403.0 5996.49,3345.25 6096.52,3403.0 6096.52,3518.5 6196.54,3576.25 6296.57,3518.5 6396.6,3576.25 6496.62,3518.5 6596.65,3576.25 6696.67,3518.5 6796.7,3576.25 6896.73,3518.5 6996.75,3576.25 7096.78,3518.5 7196.8,3576.25 7296.83,3518.5 7296.83,3403.0 7396.86,3345.25 7396.86,3229.75 7496.88,3172.0 7496.88,3056.5 7396.86,2998.75 7296.83,3056.5 7196.8,2998.75 7096.78,3056.5 6996.75,2998.75 6896.73,3056.5 6796.7,2998.75 6796.7,2883.25 6696.67,2825.5 6596.65,2883.25 6496.62,2825.5 6496.62,2710.0 6396.6,2652.25 6296.57,2710.0 6196.54,2652.25 6096.52,2710.0 6096.52,2825.5 5996.49,2883.25 5996.49,2998.75" /><polygon id="2415" points="2595.61,3922.75 2495.59,3865.0 2395.56,3922.75 2295.53,3865.0 2295.53,3749.5 2195.51,3691.75 2195.51,3576.25 2095.48,3518.5 2095.48,3403.0 2195.51,3345.25 2195.51,3229.75 2295.53,3172.0 2395.56,3229.75 2495.59,3172.0 2495.59,3056.5 2595.61,2998.75 2695.64,3056.5 2695.64,3172.0 2795.66,3229.75 2895.69,3172.0 2995.71,3229.75 2995.71,3345.25 3095.74,3403.0 3095.74,3518.5 3195.77,3576.25 3195.77,3691.75 3095.74,3749.5 2995.71,3691.75 2895.69,3749.5 2895.69,3865.0 2795.66,3922.75 2695.64,3865.0" /><polygon id="2416" points="1795.4,4384.75 1695.38,4442.5 1595.35,4384.75 1595.35,4269.25 1495.33,4211.5 1495.33,4096.0 1395.3,4038.25 1395.3,3922.75 1495.33,3865.0 1495.33,3749.5 1595.35,3691.75 1695.38,3749.5 1795.4,3691.75 1895.43,3749.5 1995.46,3691.75 2095.48,3749.5 2195.51,3691.75 2295.53,3749.5 2295.53,3865.0 2395.56,3922.75 2395.56,4038.25 2495.59,4096.0 2495.59,4211.5 2395.56,4269.25 2295.53,4211.5 2195.51,4269.25 2095.48,4211.5 1995.46,4269.25 1995.46,4384.75 1895.43,4442.5" /><polygon id="2418" points="3995.97,3576.25 4096.0,3518.5 4096.0,3403.0 3995.97,3345.25 3895.95,3403.0 3795.92,3345.25 3795.92,3229.75 3695.9,3172.0 3695.9,3056.5 3595.87,2998.75 3495.84,3056.5 3495.84,3172.0 3395.82,3229.75 3395.82,3345.25 3295.79,3403.0 3295.79,3518.5 3195.77,3576.25 3195.77,3691.75 3295.79,3749.5 3295.79,3865.0 3395.82,3922.75 3495.84,3865.0 3595.87,3922.75 3595.87,4038.25 3695.9,4096.0 3795.92,4038.25 3795.92,3922.75 3895.95,3865.0 3895.95,3749.5 3995.97,3691.75" /><polygon id="2419" points="4096.0,4558.0 3995.97,4615.75 3995.97,4731.25 3895.95,4789.0 3795.92,4731.25 3795.92,4615.75 3695.9,4558.0 3695.9,4442.5 3595.87,4384.75 3595.87,4269.25 3695.9,4211.5 3695.9,4096.0 3795.92,4038.25 3895.95,4096.0 3995.97,4038.25 4096.0,4096.0 4096.0,4211.5 4196.03,4269.25 4196.03,4384.75 4096.0,4442.5" /><polygon id="2420" points="3995.97,3576.25 3995.97,3691.75 3895.95,3749.5 3895.95,3865.0 3795.92,3922.75 3795.92,4038.25 3895.95,4096.0 3995.97,4038.25 4096.0,4096.0 4196.03,4038.25 4296.05,4096.0 4396.08,4038.25 4396.08,3922.75 4496.1,3865.0 4596.13,3922.75 4696.16,3865.0 4696.16,3749.5 4596.13,3691.75 4596.13,3576.25 4496.1,3518.5 4396.08,3576.25 4296.05,3518.5 4296.05,3403.0 4196.03,3345.25 4096.0,3403.0 4096.0,3518.5" /><polygon id="2421" points="4996.23,2998.75 5096.26,3056.5 5096.26,3172.0 5196.29,3229.75 5196.29,3345.25 5096.26,3403.0 5096.26,3518.5 4996.23,3576.25 4896.21,3518.5 4796.18,3576.25 4796.18,3691.75 4696.16,3749.5 4596.13,3691.75 4596.13,3576.25 4496.1,3518.5 4396.08,3576.25 4296.05,3518.5 4296.05,3403.0 4396.08,3345.25 4396.08,3229.75 4496.1,3172.0 4496.1,3056.5 4596.13,2998.75 4596.13,2883.25 4696.16,2825.5 4796.18,2883.25 4796.18,2998.75 4896.21,3056.5" /><polygon id="2422" points="5696.41,3518.5 5596.39,3576.25 5596.39,3691.75 5496.36,3749.5 5496.36,3865.0 5396.34,3922.75 5296.31,3865.0 5196.29,3922.75 5196.29,4038.25 5096.26,4096.0 4996.23,4038.25 4896.21,4096.0 4796.18,4038.25 4796.18,3922.75 4696.16,3865.0 4696.16,3749.5 4796.18,3691.75 4796.18,3576.25 4896.21,3518.5 4996.23,3576.25 5096.26,3518.5 5096.26,3403.0 5196.29,3345.25 5196.29,3229.75 5296.31,3172.0 5396.34,3229.75 5496.36,3172.0 5596.39,3229.75 5696.41,3172.0 5796.44,3229.75 5796.44,3345.25 5696.41,3403.0" /><polygon id="2425" points="6196.54,3576.25 6296.57,3518.5 6396.6,3576.25 6496.62,3518.5 6596.65,3576.25 6696.67,3518.5 6796.7,3576.25 6896.73,3518.5 6996.75,3576.25 7096.78,3518.5 7196.8,3576.25 7196.8,3691.75 7096.78,3749.5 7096.78,3865.0 6996.75,3922.75 6996.75,4038.25 6896.73,4096.0 6796.7,4038.25 6696.67,4096.0 6596.65,4038.25 6496.62,4096.0 6396.6,4038.25 6396.6,3922.75 6296.57,3865.0 6296.57,3749.5 6196.54,3691.75" /><polygon id="2427" points="2895.69,4789.0 2795.66,4731.25 2695.64,4789.0 2595.61,4731.25 2495.59,4789.0 2395.56,4731.25 2295.53,4789.0 2295.53,4904.5 2395.56,4962.25 2395.56,5077.75 2295.53,5135.5 2295.53,5251.0 2395.56,5308.75 2495.59,5251.0 2595.61,5308.75 2695.64,5251.0 2795.66,5308.75 2895.69,5251.0 2895.69,5135.5 2995.71,5077.75 2995.71,4962.25 3095.74,4904.5 3095.74,4789.0 2995.71,4731.25" /><polygon id="2428" points="2495.59,5251.0 2595.61,5308.75 2595.61,5424.25 2495.59,5482.0 2495.59,5597.5 2395.56,5655.25 2295.53,5597.5 2295.53,5482.0 2195.51,5424.25 2195.51,5308.75 2295.53,5251.0 2395.56,5308.75" /><polygon id="2429" points="2895.69,5251.0 2795.66,5308.75 2695.64,5251.0 2595.61,5308.75 2595.61,5424.25 2495.59,5482.0 2495.59,5597.5 2595.61,5655.25 2595.61,5770.75 2695.64,5828.5 2795.66,5770.75 2895.69,5828.5 2995.71,5770.75 2995.71,5655.25 3095.74,5597.5 3095.74,5482.0 2995.71,5424.25 2995.71,5308.75" /><polygon id="2430" points="3495.84,5135.5 3395.82,5077.75 3395.82,4962.25 3495.84,4904.5 3495.84,4789.0 3595.87,4731.25 3695.9,4789.0 3795.92,4731.25 3895.95,4789.0 3895.95,4904.5 3995.97,4962.25 3995.97,5077.75 3895.95,5135.5 3895.95,5251.0 3795.92,5308.75 3795.92,5424.25 3695.9,5482.0 3595.87,5424.25 3595.87,5308.75 3495.84,5251.0" /><polygon id="2431" points="3895.95,5482.0 3795.92,5424.25 3795.92,5308.75 3895.95,5251.0 3895.95,5135.5 3995.97,5077.75 4096.0,5135.5 4196.03,5077.75 4296.05,5135.5 4396.08,5077.75 4496.1,5135.5 4496.1,5251.0 4396.08,5308.75 4396.08,5424.25 4296.05,5482.0 4296.05,5597.5 4196.03,5655.25 4196.03,5770.75 4096.0,5828.5 3995.97,5770.75 3995.97,5655.25 3895.95,5597.5" /><polygon id="2433" points="4896.21,5597.5 4896.21,5482.0 4796.18,5424.25 4796.18,5308.75 4896.21,5251.0 4896.21,5135.5 4796.18,5077.75 4796.18,4962.25 4896.21,4904.5 4996.23,4962.25 5096.26,4904.5 5196.29,4962.25 5296.31,4904.5 5396.34,4962.25 5396.34,5077.75 5496.36,5135.5 5496.36,5251.0 5396.34,5308.75 5396.34,5424.25 5496.36,5482.0 5496.36,5597.5 5396.34,5655.25 5296.31,5597.5 5196.29,5655.25 5096.26,5597.5 4996.23,5655.25" /><polygon id="2436" points="5696.41,4096.0 5696.41,4211.5 5596.39,4269.25 5596.39,4384.75 5696.41,4442.5 5696.41,4558.0 5796.44,4615.75 5896.47,4558.0 5996.49,4615.75 6096.52,4558.0 6096.52,4442.5 5996.49,4384.75 5996.49,4269.25 6096.52,4211.5 6096.52,4096.0 5996.49,4038.25 5896.47,4096.0 5796.44,4038.25" /><polygon id="2437" points="6296.57,5482.0 6396.6,5424.25 6396.6,5308.75 6296.57,5251.0 6296.57,5135.5 6396.6,5077.75 6396.6,4962.25 6296.57,4904.5 6296.57,4789.0 6196.54,4731.25 6196.54,4615.75 6096.52,4558.0 5996.49,4615.75 5896.47,4558.0 5796.44,4615.75 5796.44,4731.25 5896.47,4789.0 5896.47,4904.5 5796.44,4962.25 5796.44,5077.75 5696.41,5135.5 5696.41,5251.0 5796.44,5308.75 5896.47,5251.0 5996.49,5308.75 5996.49,5424.25 6096.52,5482.0 6196.54,5424.25" /><polygon id="2438" points="2395.56,6348.25 2495.59,6290.5 2495.59,6175.0 2395.56,6117.25 2295.53,6175.0 2195.51,6117.25 2095.48,6175.0 2095.48,6290.5 1995.46,6348.25 1995.46,6463.75 2095.48,6521.5 2095.48,6637.0 2195.51,6694.75 2295.53,6637.0 2295.53,6521.5 2395.56,6463.75" /><polygon id="2440" points="2695.64,6637.0 2595.61,6694.75 2495.59,6637.0 2395.56,6694.75 2295.53,6637.0 2195.51,6694.75 2095.48,6637.0 1995.46,6694.75 1995.46,6810.25 2095.48,6868.0 2095.48,6983.5 2195.51,7041.25 2295.53,6983.5 2395.56,7041.25 2495.59,6983.5 2595.61,7041.25 2695.64,6983.5 2795.66,7041.25 2895.69,6983.5 2895.69,6868.0 2795.66,6810.25 2795.66,6694.75" /><polygon id="2443" points="4696.16,6983.5 4596.13,7041.25 4496.1,6983.5 4396.08,7041.25 4296.05,6983.5 4196.03,7041.25 4096.0,6983.5 3995.97,7041.25 3895.95,6983.5 3795.92,7041.25 3695.9,6983.5 3695.9,6868.0 3795.92,6810.25 3795.92,6694.75 3895.95,6637.0 3895.95,6521.5 3995.97,6463.75 4096.0,6521.5 4196.03,6463.75 4196.03,6348.25 4296.05,6290.5 4296.05,6175.0 4396.08,6117.25 4496.1,6175.0 4496.1,6290.5 4596.13,6348.25 4696.16,6290.5 4796.18,6348.25 4796.18,6463.75 4896.21,6521.5 4996.23,6463.75 5096.26,6521.5 5096.26,6637.0 5196.29,6694.75 5196.29,6810.25 5096.26,6868.0 4996.23,6810.25 4896.21,6868.0 4896.21,6983.5 4796.18,7041.25" /><polygon id="2447" points="6296.57,6521.5 6396.6,6463.75 6396.6,6348.25 6296.57,6290.5 6296.57,6175.0 6196.54,6117.25 6096.52,6175.0 6096.52,6290.5 5996.49,6348.25 5996.49,6463.75 5896.47,6521.5 5896.47,6637.0 5796.44,6694.75 5796.44,6810.25 5896.47,6868.0 5996.49,6810.25 6096.52,6868.0 6196.54,6810.25 6196.54,6694.75 6296.57,6637.0" /><polygon id="2448" points="6596.65,5770.75 6696.67,5828.5 6696.67,5944.0 6596.65,6001.75 6596.65,6117.25 6496.62,6175.0 6496.62,6290.5 6396.6,6348.25 6296.57,6290.5 6296.57,6175.0 6196.54,6117.25 6196.54,6001.75 6296.57,5944.0 6296.57,5828.5 6396.6,5770.75 6496.62,5828.5" /><polygon id="2449" points="6796.7,6001.75 6896.73,5944.0 6996.75,6001.75 7096.78,5944.0 7196.8,6001.75 7296.83,5944.0 7296.83,5828.5 7196.8,5770.75 7196.8,5655.25 7096.78,5597.5 7096.78,5482.0 6996.75,5424.25 6996.75,5308.75 6896.73,5251.0 6796.7,5308.75 6696.67,5251.0 6596.65,5308.75 6496.62,5251.0 6396.6,5308.75 6396.6,5424.25 6496.62,5482.0 6496.62,5597.5 6596.65,5655.25 6596.65,5770.75 6696.67,5828.5 6696.67,5944.0" /><polygon id="2453" points="2095.48,5828.5 2095.48,5944.0 1995.46,6001.75 1995.46,6117.25 2095.48,6175.0 2195.51,6117.25 2295.53,6175.0 2395.56,6117.25 2495.59,6175.0 2595.61,6117.25 2595.61,6001.75 2695.64,5944.0 2695.64,5828.5 2595.61,5770.75 2595.61,5655.25 2495.59,5597.5 2395.56,5655.25 2295.53,5597.5 2195.51,5655.25 2195.51,5770.75" /><polygon id="2454" points="2495.59,6290.5 2395.56,6348.25 2395.56,6463.75 2295.53,6521.5 2295.53,6637.0 2395.56,6694.75 2495.59,6637.0 2595.61,6694.75 2695.64,6637.0 2695.64,6521.5 2595.61,6463.75 2595.61,6348.25 2695.64,6290.5 2695.64,6175.0 2595.61,6117.25 2495.59,6175.0" /><polygon id="2455" points="2795.66,6117.25 2695.64,6175.0 2595.61,6117.25 2595.61,6001.75 2695.64,5944.0 2695.64,5828.5 2795.66,5770.75 2895.69,5828.5 2995.71,5770.75 2995.71,5655.25 3095.74,5597.5 3195.77,5655.25 3295.79,5597.5 3395.82,5655.25 3395.82,5770.75 3295.79,5828.5 3295.79,5944.0 3195.77,6001.75 3195.77,6117.25 3095.74,6175.0 2995.71,6117.25 2895.69,6175.0" /><polygon id="2456" points="3595.87,7041.25 3695.9,6983.5 3695.9,6868.0 3795.92,6810.25 3795.92,6694.75 3895.95,6637.0 3895.95,6521.5 3795.92,6463.75 3795.92,6348.25 3695.9,6290.5 3695.9,6175.0 3595.87,6117.25 3595.87,6001.75 3495.84,5944.0 3495.84,5828.5 3395.82,5770.75 3295.79,5828.5 3295.79,5944.0 3195.77,6001.75 3195.77,6117.25 3095.74,6175.0 3095.74,6290.5 3195.77,6348.25 3195.77,6463.75 3295.79,6521.5 3295.79,6637.0 3395.82,6694.75 3395.82,6810.25 3495.84,6868.0 3495.84,6983.5" /><polygon id="2457" points="2495.59,4789.0 2595.61,4731.25 2695.64,4789.0 2795.66,4731.25 2895.69,4789.0 2995.71,4731.25 2995.71,4615.75 3095.74,4558.0 3095.74,4442.5 2995.71,4384.75 2995.71,4269.25 2895.69,4211.5 2895.69,4096.0 2795.66,4038.25 2795.66,3922.75 2695.64,3865.0 2595.61,3922.75 2495.59,3865.0 2395.56,3922.75 2395.56,4038.25 2495.59,4096.0 2495.59,4211.5 2395.56,4269.25 2395.56,4384.75 2495.59,4442.5 2495.59,4558.0 2395.56,4615.75 2395.56,4731.25" /><polygon id="2458" points="2995.71,4269.25 3095.74,4211.5 3195.77,4269.25 3295.79,4211.5 3395.82,4269.25 3395.82,4384.75 3495.84,4442.5 3595.87,4384.75 3595.87,4269.25 3695.9,4211.5 3695.9,4096.0 3595.87,4038.25 3595.87,3922.75 3495.84,3865.0 3395.82,3922.75 3295.79,3865.0 3295.79,3749.5 3195.77,3691.75 3095.74,3749.5 2995.71,3691.75 2895.69,3749.5 2895.69,3865.0 2795.66,3922.75 2795.66,4038.25 2895.69,4096.0 2895.69,4211.5" /><polygon id="2459" points="3595.87,4731.25 3495.84,4789.0 3495.84,4904.5 3395.82,4962.25 3295.79,4904.5 3295.79,4789.0 3395.82,4731.25 3395.82,4615.75 3495.84,4558.0 3495.84,4442.5 3595.87,4384.75 3695.9,4442.5 3695.9,4558.0 3795.92,4615.75 3795.92,4731.25 3695.9,4789.0" /><polygon id="2460" points="5496.36,2825.5 5596.39,2883.25 5596.39,2998.75 5696.41,3056.5 5696.41,3172.0 5796.44,3229.75 5896.47,3172.0 5896.47,3056.5 5996.49,2998.75 5996.49,2883.25 6096.52,2825.5 6096.52,2710.0 6196.54,2652.25 6196.54,2536.75 6096.52,2479.0 6096.52,2363.5 5996.49,2305.75 5896.47,2363.5 5796.44,2305.75 5696.41,2363.5 5696.41,2479.0 5596.39,2536.75 5596.39,2652.25 5496.36,2710.0" /><polygon id="2461" points="6296.57,1786.0 6196.54,1843.75 6096.52,1786.0 5996.49,1843.75 5896.47,1786.0 5796.44,1843.75 5696.41,1786.0 5596.39,1843.75 5596.39,1959.25 5696.41,2017.0 5796.44,1959.25 5896.47,2017.0 5896.47,2132.5 5996.49,2190.25 5996.49,2305.75 6096.52,2363.5 6096.52,2479.0 6196.54,2536.75 6296.57,2479.0 6296.57,2363.5 6396.6,2305.75 6396.6,2190.25 6496.62,2132.5 6496.62,2017.0 6596.65,1959.25 6596.65,1843.75 6496.62,1786.0 6396.6,1843.75" /><polygon id="2462" points="5296.31,2710.0 5396.34,2652.25 5496.36,2710.0 5596.39,2652.25 5596.39,2536.75 5496.36,2479.0 5496.36,2363.5 5396.34,2305.75 5396.34,2190.25 5496.36,2132.5 5496.36,2017.0 5396.34,1959.25 5296.31,2017.0 5196.29,1959.25 5096.26,2017.0 5096.26,2132.5 4996.23,2190.25 4996.23,2305.75 4896.21,2363.5 4796.18,2305.75 4696.16,2363.5 4696.16,2479.0 4796.18,2536.75 4896.21,2479.0 4996.23,2536.75 5096.26,2479.0 5196.29,2536.75 5196.29,2652.25" /><polygon id="2463" points="5296.31,5944.0 5196.29,6001.75 5096.26,5944.0 5096.26,5828.5 4996.23,5770.75 4896.21,5828.5 4796.18,5770.75 4796.18,5655.25 4896.21,5597.5 4996.23,5655.25 5096.26,5597.5 5196.29,5655.25 5296.31,5597.5 5396.34,5655.25 5396.34,5770.75 5496.36,5828.5 5496.36,5944.0 5396.34,6001.75" /><polygon id="2464" points="5396.34,6348.25 5496.36,6290.5 5496.36,6175.0 5596.39,6117.25 5596.39,6001.75 5496.36,5944.0 5396.34,6001.75 5296.31,5944.0 5196.29,6001.75 5196.29,6117.25 5096.26,6175.0 4996.23,6117.25 4896.21,6175.0 4896.21,6290.5 4796.18,6348.25 4796.18,6463.75 4896.21,6521.5 4996.23,6463.75 5096.26,6521.5 5096.26,6637.0 5196.29,6694.75 5296.31,6637.0 5296.31,6521.5 5396.34,6463.75" /><polygon id="2465" points="4596.13,6001.75 4696.16,5944.0 4796.18,6001.75 4896.21,5944.0 4896.21,5828.5 4796.18,5770.75 4796.18,5655.25 4896.21,5597.5 4896.21,5482.0 4796.18,5424.25 4796.18,5308.75 4696.16,5251.0 4596.13,5308.75 4496.1,5251.0 4396.08,5308.75 4396.08,5424.25 4296.05,5482.0 4296.05,5597.5 4196.03,5655.25 4196.03,5770.75 4296.05,5828.5 4296.05,5944.0 4396.08,6001.75 4496.1,5944.0" /><polygon id="2466" points="6896.73,4789.0 6996.75,4731.25 6996.75,4615.75 7096.78,4558.0 7096.78,4442.5 6996.75,4384.75 6996.75,4269.25 7096.78,4211.5 7096.78,4096.0 6996.75,4038.25 6896.73,4096.0 6796.7,4038.25 6696.67,4096.0 6596.65,4038.25 6496.62,4096.0 6496.62,4211.5 6596.65,4269.25 6596.65,4384.75 6696.67,4442.5 6696.67,4558.0 6796.7,4615.75 6796.7,4731.25" /><polygon id="2467" points="6396.6,4038.25 6296.57,4096.0 6196.54,4038.25 6096.52,4096.0 6096.52,4211.5 5996.49,4269.25 5996.49,4384.75 6096.52,4442.5 6096.52,4558.0 6196.54,4615.75 6296.57,4558.0 6296.57,4442.5 6396.6,4384.75 6496.62,4442.5 6596.65,4384.75 6596.65,4269.25 6496.62,4211.5 6496.62,4096.0" /><polygon id="2468" points="6296.57,5251.0 6296.57,5135.5 6396.6,5077.75 6396.6,4962.25 6296.57,4904.5 6296.57,4789.0 6396.6,4731.25 6496.62,4789.0 6596.65,4731.25 6696.67,4789.0 6796.7,4731.25 6896.73,4789.0 6896.73,4904.5 6996.75,4962.25 6996.75,5077.75 6896.73,5135.5 6896.73,5251.0 6796.7,5308.75 6696.67,5251.0 6596.65,5308.75 6496.62,5251.0 6396.6,5308.75" /><polygon id="2469" points="5796.44,4615.75 5696.41,4558.0 5696.41,4442.5 5596.39,4384.75 5496.36,4442.5 5496.36,4558.0 5396.34,4615.75 5396.34,4731.25 5296.31,4789.0 5296.31,4904.5 5396.34,4962.25 5396.34,5077.75 5496.36,5135.5 5496.36,5251.0 5596.39,5308.75 5696.41,5251.0 5696.41,5135.5 5796.44,5077.75 5796.44,4962.25 5896.47,4904.5 5896.47,4789.0 5796.44,4731.25" /><polygon id="2470" points="4596.13,4615.75 4496.1,4558.0 4496.1,4442.5 4596.13,4384.75 4696.16,4442.5 4796.18,4384.75 4796.18,4269.25 4896.21,4211.5 4996.23,4269.25 4996.23,4384.75 4896.21,4442.5 4896.21,4558.0 4996.23,4615.75 4996.23,4731.25 5096.26,4789.0 5096.26,4904.5 4996.23,4962.25 4896.21,4904.5 4796.18,4962.25 4696.16,4904.5 4696.16,4789.0 4596.13,4731.25" /><polygon id="2471" points="5296.31,3865.0 5396.34,3922.75 5496.36,3865.0 5596.39,3922.75 5596.39,4038.25 5696.41,4096.0 5696.41,4211.5 5596.39,4269.25 5596.39,4384.75 5496.36,4442.5 5396.34,4384.75 5396.34,4269.25 5296.31,4211.5 5196.29,4269.25 5096.26,4211.5 4996.23,4269.25 4896.21,4211.5 4896.21,4096.0 4996.23,4038.25 5096.26,4096.0 5196.29,4038.25 5196.29,3922.75" /><polygon id="2472" points="1895.43,1439.5 1795.4,1497.25 1695.38,1439.5 1695.38,1324.0 1595.35,1266.25 1595.35,1150.75 1495.33,1093.0 1495.33,977.5 1595.35,919.75 1595.35,804.25 1695.38,746.5 1795.4,804.25 1895.43,746.5 1995.46,804.25 2095.48,746.5 2195.51,804.25 2295.53,746.5 2395.56,804.25 2495.59,746.5 2595.61,804.25 2595.61,919.75 2695.64,977.5 2695.64,1093.0 2595.61,1150.75 2595.61,1266.25 2495.59,1324.0 2495.59,1439.5 2395.56,1497.25 2395.56,1612.75 2295.53,1670.5 2195.51,1612.75 2195.51,1497.25 2095.48,1439.5 1995.46,1497.25" /><polygon id="2473" points="1795.4,2190.25 1895.43,2132.5 1895.43,2017.0 1995.46,1959.25 2095.48,2017.0 2195.51,1959.25 2295.53,2017.0 2295.53,2132.5 2195.51,2190.25 2195.51,2305.75 2095.48,2363.5 2095.48,2479.0 1995.46,2536.75 1895.43,2479.0 1895.43,2363.5 1795.4,2305.75" /><polygon id="2474" points="2395.56,4615.75 2495.59,4558.0 2495.59,4442.5 2395.56,4384.75 2395.56,4269.25 2295.53,4211.5 2195.51,4269.25 2095.48,4211.5 1995.46,4269.25 1995.46,4384.75 1895.43,4442.5 1795.4,4384.75 1695.38,4442.5 1695.38,4558.0 1795.4,4615.75 1795.4,4731.25 1895.43,4789.0 1895.43,4904.5 1995.46,4962.25 2095.48,4904.5 2195.51,4962.25 2295.53,4904.5 2295.53,4789.0 2395.56,4731.25" /><polygon id="2475" points="695.12,4904.5 795.14,4962.25 795.14,5077.75 895.17,5135.5 895.17,5251.0 995.2,5308.75 995.2,5424.25 1095.22,5482.0 1095.22,5597.5 1195.25,5655.25 1295.27,5597.5 1295.27,5482.0 1395.3,5424.25 1395.3,5308.75 1495.33,5251.0 1495.33,5135.5 1595.35,5077.75 1695.38,5135.5 1795.4,5077.75 1795.4,4962.25 1695.38,4904.5 1595.35,4962.25 1495.33,4904.5 1495.33,4789.0 1395.3,4731.25 1295.27,4789.0 1195.25,4731.25 1095.22,4789.0 995.2,4731.25 895.17,4789.0 795.14,4731.25 695.12,4789.0" /><polygon id="2476" points="1795.4,5077.75 1895.43,5135.5 1895.43,5251.0 1995.46,5308.75 2095.48,5251.0 2195.51,5308.75 2295.53,5251.0 2295.53,5135.5 2395.56,5077.75 2395.56,4962.25 2295.53,4904.5 2195.51,4962.25 2095.48,4904.5 1995.46,4962.25 1895.43,4904.5 1795.4,4962.25" /><polygon id="2477" points="2295.53,2825.5 2395.56,2883.25 2395.56,2998.75 2495.59,3056.5 2595.61,2998.75 2595.61,2883.25 2695.64,2825.5 2695.64,2710.0 2595.61,2652.25 2595.61,2536.75 2495.59,2479.0 2395.56,2536.75 2295.53,2479.0 2195.51,2536.75 2195.51,2652.25 2295.53,2710.0" /><polygon id="2478" points="2795.66,3229.75 2895.69,3172.0 2995.71,3229.75 2995.71,3345.25 3095.74,3403.0 3095.74,3518.5 3195.77,3576.25 3295.79,3518.5 3295.79,3403.0 3395.82,3345.25 3395.82,3229.75 3495.84,3172.0 3495.84,3056.5 3395.82,2998.75 3295.79,3056.5 3195.77,2998.75 3195.77,2883.25 3095.74,2825.5 2995.71,2883.25 2895.69,2825.5 2795.66,2883.25 2695.64,2825.5 2595.61,2883.25 2595.61,2998.75 2695.64,3056.5 2695.64,3172.0" /><polygon id="2479" points="3095.74,2710.0 3195.77,2652.25 3195.77,2536.75 3095.74,2479.0 3095.74,2363.5 3195.77,2305.75 3295.79,2363.5 3295.79,2479.0 3395.82,2536.75 3495.84,2479.0 3595.87,2536.75 3695.9,2479.0 3795.92,2536.75 3795.92,2652.25 3695.9,2710.0 3695.9,2825.5 3595.87,2883.25 3595.87,2998.75 3495.84,3056.5 3395.82,2998.75 3295.79,3056.5 3195.77,2998.75 3195.77,2883.25 3095.74,2825.5" /><polygon id="18205" points="4096.0,6521.5 4196.03,6463.75 4196.03,6348.25 4296.05,6290.5 4296.05,6175.0 4396.08,6117.25 4396.08,6001.75 4296.05,5944.0 4296.05,5828.5 4196.03,5770.75 4096.0,5828.5 3995.97,5770.75 3895.95,5828.5 3895.95,5944.0 3795.92,6001.75 3795.92,6117.25 3695.9,6175.0 3695.9,6290.5 3795.92,6348.25 3795.92,6463.75 3895.95,6521.5 3995.97,6463.75" /><polygon id="18206" points="6196.54,2652.25 6196.54,2536.75 6296.57,2479.0 6296.57,2363.5 6396.6,2305.75 6396.6,2190.25 6496.62,2132.5 6496.62,2017.0 6596.65,1959.25 6596.65,1843.75 6696.67,1786.0 6796.7,1843.75 6796.7,1959.25 6896.73,2017.0 6896.73,2132.5 6996.75,2190.25 6996.75,2305.75 7096.78,2363.5 7096.78,2479.0 7196.8,2536.75 7196.8,2652.25 7296.83,2710.0 7296.83,2825.5 7396.86,2883.25 7396.86,2998.75 7296.83,3056.5 7196.8,2998.75 7096.78,3056.5 6996.75,2998.75 6896.73,3056.5 6796.7,2998.75 6796.7,2883.25 6696.67,2825.5 6596.65,2883.25 6496.62,2825.5 6496.62,2710.0 6396.6,2652.25 6296.57,2710.0" /><polygon id="18207" points="1595.35,3691.75 1495.33,3749.5 1495.33,3865.0 1395.3,3922.75 1395.3,4038.25 1295.27,4096.0 1195.25,4038.25 1195.25,3922.75 1095.22,3865.0 1095.22,3749.5 995.2,3691.75 995.2,3576.25 1095.22,3518.5 1095.22,3403.0 995.2,3345.25 995.2,3229.75 1095.22,3172.0 1195.25,3229.75 1295.27,3172.0 1395.3,3229.75 1395.3,3345.25 1495.33,3403.0 1595.35,3345.25 1695.38,3403.0 1795.4,3345.25 1895.43,3403.0 1995.46,3345.25 1995.46,3229.75 2095.48,3172.0 2195.51,3229.75 2195.51,3345.25 2095.48,3403.0 2095.48,3518.5 2195.51,3576.25 2195.51,3691.75 2095.48,3749.5 1995.46,3691.75 1895.43,3749.5 1795.4,3691.75 1695.38,3749.5" /></svg>