<svg viewBox="0 0 8192 8192"><polygon id="18263" points="3746.0,4413.544973081037 3796.0,4442.414973081037 3796.0,4500.144973081037 3846.0,4529.014973081037 3896.0,4500.144973081037 3946.0,4529.014973081037 3996.0,4500.144973081037 4046.0,4529.014973081037 4096.0,4500.144973081037 4146.0,4529.014973081037 4146.0,4586.744973081037 4196.0,4615.6149730810375 4196.0,4673.354973081037 4246.0,4702.214973081037 4246.0,4759.954973081037 4296.0,4788.824973081038 4346.0,4759.954973081037 4396.0,4788.824973081038 4446.0,4759.954973081037 4446.0,4702.214973081037 4496.0,4673.354973081037 4496.0,4615.6149730810375 4546.0,4586.744973081037 4546.0,4529.014973081037 4496.0,4500.144973081037 4496.0,4442.414973081037 4446.0,4413.544973081037 4396.0,4442.414973081037 4346.0,4413.544973081037 4346.0,4355.804973081037 4296.0,4326.9449730810375 4246.0,4355.804973081037 4196.0,4326.9449730810375 4196.0,4269.204973081037 4146.0,4240.334973081037 4146.0,4182.604973081037 4096.0,4153.734973081037 4096.0,4096.004973081037 4046.0,4067.1349730810375 3996.0,4096.004973081037 3946.0,4067.1349730810375 3896.0,4096.004973081037 3846.0,4067.1349730810375 3796.0,4096.004973081037 3796.0,4153.734973081037 3746.0,4182.604973081037 3746.0,4240.334973081037 3696.0,4269.204973081037 3696.0,4326.9449730810375 3746.0,4355.804973081037" /><polygon id="18264" points="3746.0,4413.544973081037 3796.0,4442.414973081037 3796.0,4500.144973081037 3746.0,4529.014973081037 3746.0,4586.744973081037 3696.0,4615.6149730810375 3696.0,4673.354973081037 3646.0,4702.214973081037 3596.0,4673.354973081037 3546.0,4702.214973081037 3496.0,4673.354973081037 3446.0,4702.214973081037 3396.0,4673.354973081037 3346.0,4702.214973081037 3296.0,4673.354973081037 3296.0,4615.6149730810375 3246.0,4586.744973081037 3246.0,4529.014973081037 3296.0,4500.144973081037 3296.0,4442.414973081037 3346.0,4413.544973081037 3346.0,4355.804973081037 3296.0,4326.9449730810375 3296.0,4269.204973081037 3246.0,4240.334973081037 3246.0,4182.604973081037 3296.0,4153.734973081037 3296.0,4096.004973081037 3346.0,4067.1349730810375 3346.0,4009.3949730810377 3296.0,3980.524973081038 3296.0,3922.794973081038 3346.0,3893.9249730810375 3346.0,3836.1949730810375 3396.0,3807.3249730810376 3396.0,3749.584973081038 3446.0,3720.7249730810377 3496.0,3749.584973081038 3546.0,3720.7249730810377 3596.0,3749.584973081038 3646.0,3720.7249730810377 3696.0,3749.584973081038 3696.0,3807.3249730810376 3746.0,3836.1949730810375 3746.0,3893.9249730810375 3796.0,3922.794973081038 3796.0,3980.524973081038 3846.0,4009.3949730810377 3846.0,4067.1349730810375 3796.0,4096.004973081037 3796.0,4153.734973081037 3746.0,4182.604973081037 3746.0,4240.334973081037 3696.0,4269.204973081037 3696.0,4326.9449730810375 3746.0,4355.804973081037" /><polygon id="18265" points="3696.0,3460.9149730810377 3746.0,3489.7849730810376 3796.0,3460.9149730810377 3796.0,3403.1749730810375 3846.0,3374.314973081038 3896.0,3403.1749730810375 3946.0,3374.314973081038 3996.0,3403.1749730810375 4046.0,3374.314973081038 4096.0,3403.1749730810375 4146.0,3374.314973081038 4196.0,3403.1749730810375 4246.0,3374.314973081038 4296.0,3403.1749730810375 4296.0,3460.9149730810377 4346.0,3489.7849730810376 4346.0,3547.5149730810376 4396.0,3576.3849730810375 4396.0,3634.1149730810375 4446.0,3662.9849730810374 4446.0,3720.7249730810377 4496.0,3749.584973081038 4496.0,3807.3249730810376 4546.0,3836.1949730810375 4596.0,3807.3249730810376 4646.0,3836.1949730810375 4646.0,3893.9249730810375 4596.0,3922.794973081038 4596.0,3980.524973081038 4546.0,4009.3949730810377 4546.0,4067.1349730810375 4496.0,4096.004973081037 4446.0,4067.1349730810375 4396.0,4096.004973081037 4346.0,4067.1349730810375 4296.0,4096.004973081037 4246.0,4067.1349730810375 4196.0,4096.004973081037 4146.0,4067.1349730810375 4096.0,4096.004973081037 4046.0,4067.1349730810375 3996.0,4096.004973081037 3946.0,4067.1349730810375 3896.0,4096.004973081037 3846.0,4067.1349730810375 3846.0,4009.3949730810377 3796.0,3980.524973081038 3796.0,3922.794973081038 3746.0,3893.9249730810375 3746.0,3836.1949730810375 3696.0,3807.3249730810376 3696.0,3749.584973081038 3646.0,3720.7249730810377 3596.0,3749.584973081038 3546.0,3720.7249730810377 3546.0,3662.9849730810374 3596.0,3634.1149730810375 3596.0,3576.3849730810375 3646.0,3547.5149730810376 3646.0,3489.7849730810376" /><polygon id="18266" points="3046.0,4067.1349730810375 2996.0,4096.004973081037 2946.0,4067.1349730810375 2896.0,4096.004973081037 2896.0,4153.734973081037 2846.0,4182.604973081037 2846.0,4240.334973081037 2896.0,4269.204973081037 2896.0,4326.9449730810375 2846.0,4355.804973081037 2846.0,4413.544973081037 2896.0,4442.414973081037 2896.0,4500.144973081037 2846.0,4529.014973081037 2846.0,4586.744973081037 2896.0,4615.6149730810375 2896.0,4673.354973081037 2846.0,4702.214973081037 2846.0,4759.954973081037 2896.0,4788.824973081038 2896.0,4846.554973081037 2946.0,4875.424973081037 2946.0,4933.1549730810375 2996.0,4962.024973081037 3046.0,4933.1549730810375 3096.0,4962.024973081037 3096.0,5019.764973081037 3146.0,5048.624973081037 3196.0,5019.764973081037 3246.0,5048.624973081037 3296.0,5019.764973081037 3296.0,4962.024973081037 3346.0,4933.1549730810375 3346.0,4875.424973081037 3296.0,4846.554973081037 3296.0,4788.824973081038 3346.0,4759.954973081037 3346.0,4702.214973081037 3296.0,4673.354973081037 3296.0,4615.6149730810375 3246.0,4586.744973081037 3246.0,4529.014973081037 3296.0,4500.144973081037 3296.0,4442.414973081037 3346.0,4413.544973081037 3346.0,4355.804973081037 3296.0,4326.9449730810375 3296.0,4269.204973081037 3246.0,4240.334973081037 3246.0,4182.604973081037 3196.0,4153.734973081037 3146.0,4182.604973081037 3096.0,4153.734973081037 3096.0,4096.004973081037" /><polygon id="18267" points="2446.0,4933.1549730810375 2396.0,4962.024973081037 2346.0,4933.1549730810375 2296.0,4962.024973081037 2246.0,4933.1549730810375 2196.0,4962.024973081037 2146.0,4933.1549730810375 2146.0,4875.424973081037 2196.0,4846.554973081037 2196.0,4788.824973081038 2146.0,4759.954973081037 2146.0,4702.214973081037 2196.0,4673.354973081037 2196.0,4615.6149730810375 2246.0,4586.744973081037 2246.0,4529.014973081037 2296.0,4500.144973081037 2346.0,4529.014973081037 2396.0,4500.144973081037 2446.0,4529.014973081037 2496.0,4500.144973081037 2546.0,4529.014973081037 2596.0,4500.144973081037 2646.0,4529.014973081037 2696.0,4500.144973081037 2746.0,4529.014973081037 2796.0,4500.144973081037 2846.0,4529.014973081037 2846.0,4586.744973081037 2896.0,4615.6149730810375 2896.0,4673.354973081037 2846.0,4702.214973081037 2846.0,4759.954973081037 2796.0,4788.824973081038 2796.0,4846.554973081037 2746.0,4875.424973081037 2746.0,4933.1549730810375 2696.0,4962.024973081037 2646.0,4933.1549730810375 2596.0,4962.024973081037 2546.0,4933.1549730810375 2496.0,4962.024973081037" /><polygon id="18268" points="2796.0,4153.734973081037 2796.0,4096.004973081037 2746.0,4067.1349730810375 2746.0,4009.3949730810377 2696.0,3980.524973081038 2646.0,4009.3949730810377 2596.0,3980.524973081038 2596.0,3922.794973081038 2546.0,3893.9249730810375 2496.0,3922.794973081038 2496.0,3980.524973081038 2446.0,4009.3949730810377 2446.0,4067.1349730810375 2396.0,4096.004973081037 2396.0,4153.734973081037 2446.0,4182.604973081037 2446.0,4240.334973081037 2396.0,4269.204973081037 2396.0,4326.9449730810375 2346.0,4355.804973081037 2346.0,4413.544973081037 2296.0,4442.414973081037 2296.0,4500.144973081037 2346.0,4529.014973081037 2396.0,4500.144973081037 2446.0,4529.014973081037 2496.0,4500.144973081037 2546.0,4529.014973081037 2596.0,4500.144973081037 2646.0,4529.014973081037 2696.0,4500.144973081037 2746.0,4529.014973081037 2796.0,4500.144973081037 2846.0,4529.014973081037 2896.0,4500.144973081037 2896.0,4442.414973081037 2846.0,4413.544973081037 2846.0,4355.804973081037 2896.0,4326.9449730810375 2896.0,4269.204973081037 2846.0,4240.334973081037 2846.0,4182.604973081037" /><polygon id="18269" points="2546.0,4933.1549730810375 2496.0,4962.024973081037 2446.0,4933.1549730810375 2396.0,4962.024973081037 2346.0,4933.1549730810375 2296.0,4962.024973081037 2246.0,4933.1549730810375 2196.0,4962.024973081037 2196.0,5019.764973081037 2146.0,5048.624973081037 2146.0,5106.3649730810375 2196.0,5135.234973081037 2196.0,5192.964973081037 2246.0,5221.834973081037 2246.0,5279.564973081037 2296.0,5308.434973081037 2346.0,5279.564973081037 2396.0,5308.434973081037 2396.0,5366.174973081037 2446.0,5395.034973081038 2496.0,5366.174973081037 2546.0,5395.034973081038 2596.0,5366.174973081037 2646.0,5395.034973081038 2696.0,5366.174973081037 2696.0,5308.434973081037 2746.0,5279.564973081037 2746.0,5221.834973081037 2796.0,5192.964973081037 2846.0,5221.834973081037 2896.0,5192.964973081037 2896.0,5135.234973081037 2946.0,5106.3649730810375 2946.0,5048.624973081037 2996.0,5019.764973081037 2996.0,4962.024973081037 2946.0,4933.1549730810375 2946.0,4875.424973081037 2896.0,4846.554973081037 2896.0,4788.824973081038 2846.0,4759.954973081037 2796.0,4788.824973081038 2796.0,4846.554973081037 2746.0,4875.424973081037 2746.0,4933.1549730810375 2696.0,4962.024973081037 2646.0,4933.1549730810375 2596.0,4962.024973081037" /><polygon id="18270" points="1996.0,5192.964973081037 2046.0,5221.834973081037 2096.0,5192.964973081037 2096.0,5135.234973081037 2146.0,5106.3649730810375 2146.0,5048.624973081037 2196.0,5019.764973081037 2196.0,4962.024973081037 2146.0,4933.1549730810375 2146.0,4875.424973081037 2196.0,4846.554973081037 2196.0,4788.824973081038 2146.0,4759.954973081037 2146.0,4702.214973081037 2196.0,4673.354973081037 2196.0,4615.6149730810375 2146.0,4586.744973081037 2146.0,4529.014973081037 2096.0,4500.144973081037 2096.0,4442.414973081037 2046.0,4413.544973081037 2046.0,4355.804973081037 1996.0,4326.9449730810375 1946.0,4355.804973081037 1896.0,4326.9449730810375 1846.0,4355.804973081037 1846.0,4413.544973081037 1796.0,4442.414973081037 1796.0,4500.144973081037 1746.0,4529.014973081037 1746.0,4586.744973081037 1696.0,4615.6149730810375 1696.0,4673.354973081037 1646.0,4702.214973081037 1646.0,4759.954973081037 1696.0,4788.824973081038 1696.0,4846.554973081037 1746.0,4875.424973081037 1746.0,4933.1549730810375 1796.0,4962.024973081037 1796.0,5019.764973081037 1846.0,5048.624973081037 1846.0,5106.3649730810375 1896.0,5135.234973081037 1896.0,5192.964973081037 1946.0,5221.834973081037" /><polygon id="18271" points="5396.0,4615.6149730810375 5446.0,4586.744973081037 5446.0,4529.014973081037 5496.0,4500.144973081037 5496.0,4442.414973081037 5446.0,4413.544973081037 5446.0,4355.804973081037 5396.0,4326.9449730810375 5396.0,4269.204973081037 5346.0,4240.334973081037 5296.0,4269.204973081037 5246.0,4240.334973081037 5196.0,4269.204973081037 5146.0,4240.334973081037 5096.0,4269.204973081037 5046.0,4240.334973081037 4996.0,4269.204973081037 4996.0,4326.9449730810375 4946.0,4355.804973081037 4946.0,4413.544973081037 4896.0,4442.414973081037 4896.0,4500.144973081037 4946.0,4529.014973081037 4946.0,4586.744973081037 4996.0,4615.6149730810375 5046.0,4586.744973081037 5096.0,4615.6149730810375 5096.0,4673.354973081037 5146.0,4702.214973081037 5196.0,4673.354973081037 5246.0,4702.214973081037 5246.0,4759.954973081037 5296.0,4788.824973081038 5346.0,4759.954973081037 5346.0,4702.214973081037 5396.0,4673.354973081037" /><polygon id="18272" points="5246.0,4702.214973081037 5246.0,4759.954973081037 5296.0,4788.824973081038 5296.0,4846.554973081037 5346.0,4875.424973081037 5346.0,4933.1549730810375 5296.0,4962.024973081037 5246.0,4933.1549730810375 5196.0,4962.024973081037 5146.0,4933.1549730810375 5096.0,4962.024973081037 5046.0,4933.1549730810375 4996.0,4962.024973081037 4946.0,4933.1549730810375 4896.0,4962.024973081037 4846.0,4933.1549730810375 4846.0,4875.424973081037 4796.0,4846.554973081037 4796.0,4788.824973081038 4846.0,4759.954973081037 4846.0,4702.214973081037 4896.0,4673.354973081037 4896.0,4615.6149730810375 4946.0,4586.744973081037 4996.0,4615.6149730810375 5046.0,4586.744973081037 5096.0,4615.6149730810375 5096.0,4673.354973081037 5146.0,4702.214973081037 5196.0,4673.354973081037" /><polygon id="18273" points="4796.0,5019.764973081037 4846.0,5048.624973081037 4896.0,5019.764973081037 4946.0,5048.624973081037 4946.0,5106.3649730810375 4996.0,5135.234973081037 4996.0,5192.964973081037 5046.0,5221.834973081037 5046.0,5279.564973081037 4996.0,5308.434973081037 4996.0,5366.174973081037 4946.0,5395.034973081038 4946.0,5452.774973081037 4896.0,5481.644973081037 4846.0,5452.774973081037 4796.0,5481.644973081037 4746.0,5452.774973081037 4696.0,5481.644973081037 4646.0,5452.774973081037 4596.0,5481.644973081037 4546.0,5452.774973081037 4546.0,5395.034973081038 4496.0,5366.174973081037 4446.0,5395.034973081038 4396.0,5366.174973081037 4396.0,5308.434973081037 4346.0,5279.564973081037 4346.0,5221.834973081037 4296.0,5192.964973081037 4296.0,5135.234973081037 4246.0,5106.3649730810375 4246.0,5048.624973081037 4296.0,5019.764973081037 4296.0,4962.024973081037 4246.0,4933.1549730810375 4246.0,4875.424973081037 4296.0,4846.554973081037 4296.0,4788.824973081038 4346.0,4759.954973081037 4396.0,4788.824973081038 4446.0,4759.954973081037 4446.0,4702.214973081037 4496.0,4673.354973081037 4546.0,4702.214973081037 4596.0,4673.354973081037 4646.0,4702.214973081037 4646.0,4759.954973081037 4696.0,4788.824973081038 4696.0,4846.554973081037 4746.0,4875.424973081037 4746.0,4933.1549730810375 4796.0,4962.024973081037" /><polygon id="18274" points="4596.0,4500.144973081037 4546.0,4529.014973081037 4496.0,4500.144973081037 4496.0,4442.414973081037 4546.0,4413.544973081037 4546.0,4355.804973081037 4596.0,4326.9449730810375 4646.0,4355.804973081037 4696.0,4326.9449730810375 4746.0,4355.804973081037 4796.0,4326.9449730810375 4846.0,4355.804973081037 4896.0,4326.9449730810375 4946.0,4355.804973081037 4946.0,4413.544973081037 4896.0,4442.414973081037 4896.0,4500.144973081037 4946.0,4529.014973081037 4946.0,4586.744973081037 4896.0,4615.6149730810375 4846.0,4586.744973081037 4846.0,4529.014973081037 4796.0,4500.144973081037 4746.0,4529.014973081037 4696.0,4500.144973081037 4646.0,4529.014973081037" /><polygon id="18275" points="5046.0,5279.564973081037 5046.0,5221.834973081037 5096.0,5192.964973081037 5146.0,5221.834973081037 5196.0,5192.964973081037 5196.0,5135.234973081037 5246.0,5106.3649730810375 5296.0,5135.234973081037 5346.0,5106.3649730810375 5346.0,5048.624973081037 5396.0,5019.764973081037 5446.0,5048.624973081037 5496.0,5019.764973081037 5546.0,5048.624973081037 5596.0,5019.764973081037 5646.0,5048.624973081037 5696.0,5019.764973081037 5746.0,5048.624973081037 5746.0,5106.3649730810375 5796.0,5135.234973081037 5796.0,5192.964973081037 5846.0,5221.834973081037 5846.0,5279.564973081037 5796.0,5308.434973081037 5796.0,5366.174973081037 5846.0,5395.034973081038 5846.0,5452.774973081037 5796.0,5481.644973081037 5796.0,5539.374973081037 5846.0,5568.244973081037 5846.0,5625.974973081037 5796.0,5654.844973081037 5746.0,5625.974973081037 5696.0,5654.844973081037 5646.0,5625.974973081037 5596.0,5654.844973081037 5546.0,5625.974973081037 5496.0,5654.844973081037 5446.0,5625.974973081037 5396.0,5654.844973081037 5346.0,5625.974973081037 5346.0,5568.244973081037 5296.0,5539.374973081037 5246.0,5568.244973081037 5196.0,5539.374973081037 5196.0,5481.644973081037 5146.0,5452.774973081037 5096.0,5481.644973081037 5046.0,5452.774973081037 4996.0,5481.644973081037 4946.0,5452.774973081037 4946.0,5395.034973081038 4996.0,5366.174973081037 4996.0,5308.434973081037" /><polygon id="18276" points="4446.0,2796.9649730810374 4496.0,2768.0949730810376 4546.0,2796.9649730810374 4546.0,2854.6949730810375 4596.0,2883.564973081038 4596.0,2941.294973081038 4646.0,2970.1649730810377 4646.0,3027.9049730810375 4696.0,3056.7649730810376 4696.0,3114.5049730810374 4646.0,3143.3749730810378 4646.0,3201.1049730810378 4596.0,3229.9749730810377 4596.0,3287.7049730810377 4646.0,3316.5749730810376 4646.0,3374.314973081038 4596.0,3403.1749730810375 4546.0,3374.314973081038 4496.0,3403.1749730810375 4446.0,3374.314973081038 4396.0,3403.1749730810375 4396.0,3460.9149730810377 4346.0,3489.7849730810376 4296.0,3460.9149730810377 4296.0,3403.1749730810375 4246.0,3374.314973081038 4196.0,3403.1749730810375 4146.0,3374.314973081038 4146.0,3316.5749730810376 4096.0,3287.7049730810377 4096.0,3229.9749730810377 4146.0,3201.1049730810378 4146.0,3143.3749730810378 4096.0,3114.5049730810374 4096.0,3056.7649730810376 4146.0,3027.9049730810375 4146.0,2970.1649730810377 4196.0,2941.294973081038 4196.0,2883.564973081038 4246.0,2854.6949730810375 4246.0,2796.9649730810374 4296.0,2768.0949730810376 4346.0,2796.9649730810374 4396.0,2768.0949730810376" /><polygon id="18277" points="4096.0,3403.1749730810375 4146.0,3374.314973081038 4146.0,3316.5749730810376 4096.0,3287.7049730810377 4096.0,3229.9749730810377 4146.0,3201.1049730810378 4146.0,3143.3749730810378 4096.0,3114.5049730810374 4096.0,3056.7649730810376 4146.0,3027.9049730810375 4146.0,2970.1649730810377 4196.0,2941.294973081038 4196.0,2883.564973081038 4146.0,2854.6949730810375 4096.0,2883.564973081038 4046.0,2854.6949730810375 3996.0,2883.564973081038 3946.0,2854.6949730810375 3896.0,2883.564973081038 3846.0,2854.6949730810375 3796.0,2883.564973081038 3746.0,2854.6949730810375 3696.0,2883.564973081038 3696.0,2941.294973081038 3646.0,2970.1649730810377 3646.0,3027.9049730810375 3696.0,3056.7649730810376 3696.0,3114.5049730810374 3646.0,3143.3749730810378 3646.0,3201.1049730810378 3696.0,3229.9749730810377 3746.0,3201.1049730810378 3796.0,3229.9749730810377 3846.0,3201.1049730810378 3896.0,3229.9749730810377 3896.0,3287.7049730810377 3946.0,3316.5749730810376 3946.0,3374.314973081038 3996.0,3403.1749730810375 4046.0,3374.314973081038" /><polygon id="18278" points="3996.0,2883.564973081038 3946.0,2854.6949730810375 3896.0,2883.564973081038 3846.0,2854.6949730810375 3796.0,2883.564973081038 3746.0,2854.6949730810375 3746.0,2796.9649730810374 3696.0,2768.0949730810376 3696.0,2710.3549730810378 3746.0,2681.4949730810376 3746.0,2623.7549730810374 3796.0,2594.8849730810375 3796.0,2537.1549730810375 3846.0,2508.2849730810376 3846.0,2450.5549730810376 3896.0,2421.6849730810377 3896.0,2363.9449730810375 3946.0,2335.084973081038 3946.0,2277.3449730810376 3996.0,2248.4749730810377 3996.0,2190.7449730810376 4046.0,2161.8749730810378 4096.0,2190.7449730810376 4146.0,2161.8749730810378 4196.0,2190.7449730810376 4196.0,2248.4749730810377 4146.0,2277.3449730810376 4146.0,2335.084973081038 4196.0,2363.9449730810375 4196.0,2421.6849730810377 4246.0,2450.5549730810376 4246.0,2508.2849730810376 4196.0,2537.1549730810375 4146.0,2508.2849730810376 4096.0,2537.1549730810375 4096.0,2594.8849730810375 4046.0,2623.7549730810374 4046.0,2681.4949730810376 4096.0,2710.3549730810378 4096.0,2768.0949730810376 4146.0,2796.9649730810374 4196.0,2768.0949730810376 4246.0,2796.9649730810374 4246.0,2854.6949730810375 4196.0,2883.564973081038 4146.0,2854.6949730810375 4096.0,2883.564973081038 4046.0,2854.6949730810375" /><polygon id="18279" points="4646.0,3316.5749730810376 4596.0,3287.7049730810377 4596.0,3229.9749730810377 4646.0,3201.1049730810378 4646.0,3143.3749730810378 4696.0,3114.5049730810374 4696.0,3056.7649730810376 4746.0,3027.9049730810375 4796.0,3056.7649730810376 4846.0,3027.9049730810375 4896.0,3056.7649730810376 4896.0,3114.5049730810374 4946.0,3143.3749730810378 4946.0,3201.1049730810378 4996.0,3229.9749730810377 4996.0,3287.7049730810377 4946.0,3316.5749730810376 4946.0,3374.314973081038 4896.0,3403.1749730810375 4896.0,3460.9149730810377 4846.0,3489.7849730810376 4796.0,3460.9149730810377 4746.0,3489.7849730810376 4696.0,3460.9149730810377 4696.0,3403.1749730810375 4646.0,3374.314973081038" /><polygon id="18280" points="4096.0,2768.0949730810376 4096.0,2710.3549730810378 4046.0,2681.4949730810376 4046.0,2623.7549730810374 4096.0,2594.8849730810375 4096.0,2537.1549730810375 4146.0,2508.2849730810376 4196.0,2537.1549730810375 4246.0,2508.2849730810376 4246.0,2450.5549730810376 4196.0,2421.6849730810377 4196.0,2363.9449730810375 4246.0,2335.084973081038 4296.0,2363.9449730810375 4346.0,2335.084973081038 4396.0,2363.9449730810375 4446.0,2335.084973081038 4496.0,2363.9449730810375 4546.0,2335.084973081038 4596.0,2363.9449730810375 4646.0,2335.084973081038 4696.0,2363.9449730810375 4696.0,2421.6849730810377 4746.0,2450.5549730810376 4746.0,2508.2849730810376 4696.0,2537.1549730810375 4696.0,2594.8849730810375 4646.0,2623.7549730810374 4646.0,2681.4949730810376 4596.0,2710.3549730810378 4596.0,2768.0949730810376 4546.0,2796.9649730810374 4496.0,2768.0949730810376 4446.0,2796.9649730810374 4396.0,2768.0949730810376 4346.0,2796.9649730810374 4296.0,2768.0949730810376 4246.0,2796.9649730810374 4196.0,2768.0949730810376 4146.0,2796.9649730810374" /><polygon id="18281" points="1246.0,3489.7849730810376 1196.0,3460.9149730810377 1146.0,3489.7849730810376 1146.0,3547.5149730810376 1096.0,3576.3849730810375 1096.0,3634.1149730810375 1046.0,3662.9849730810374 1046.0,3720.7249730810377 1096.0,3749.584973081038 1096.0,3807.3249730810376 1046.0,3836.1949730810375 1046.0,3893.9249730810375 996.0,3922.794973081038 996.0,3980.524973081038 1046.0,4009.3949730810377 1046.0,4067.1349730810375 1096.0,4096.004973081037 1146.0,4067.1349730810375 1196.0,4096.004973081037 1246.0,4067.1349730810375 1296.0,4096.004973081037 1346.0,4067.1349730810375 1396.0,4096.004973081037 1446.0,4067.1349730810375 1496.0,4096.004973081037 1546.0,4067.1349730810375 1596.0,4096.004973081037 1646.0,4067.1349730810375 1696.0,4096.004973081037 1746.0,4067.1349730810375 1746.0,4009.3949730810377 1696.0,3980.524973081038 1696.0,3922.794973081038 1746.0,3893.9249730810375 1746.0,3836.1949730810375 1796.0,3807.3249730810376 1796.0,3749.584973081038 1846.0,3720.7249730810377 1846.0,3662.9849730810374 1796.0,3634.1149730810375 1796.0,3576.3849730810375 1846.0,3547.5149730810376 1846.0,3489.7849730810376 1796.0,3460.9149730810377 1796.0,3403.1749730810375 1746.0,3374.314973081038 1746.0,3316.5749730810376 1696.0,3287.7049730810377 1696.0,3229.9749730810377 1646.0,3201.1049730810378 1596.0,3229.9749730810377 1596.0,3287.7049730810377 1546.0,3316.5749730810376 1546.0,3374.314973081038 1496.0,3403.1749730810375 1496.0,3460.9149730810377 1446.0,3489.7849730810376 1396.0,3460.9149730810377 1346.0,3489.7849730810376 1296.0,3460.9149730810377" /><polygon id="18282" points="1696.0,5135.234973081037 1646.0,5106.3649730810375 1596.0,5135.234973081037 1546.0,5106.3649730810375 1496.0,5135.234973081037 1496.0,5192.964973081037 1446.0,5221.834973081037 1396.0,5192.964973081037 1346.0,5221.834973081037 1296.0,5192.964973081037 1246.0,5221.834973081037 1196.0,5192.964973081037 1196.0,5135.234973081037 1146.0,5106.3649730810375 1146.0,5048.624973081037 1096.0,5019.764973081037 1096.0,4962.024973081037 1046.0,4933.1549730810375 1046.0,4875.424973081037 1096.0,4846.554973081037 1096.0,4788.824973081038 1146.0,4759.954973081037 1146.0,4702.214973081037 1196.0,4673.354973081037 1196.0,4615.6149730810375 1246.0,4586.744973081037 1246.0,4529.014973081037 1296.0,4500.144973081037 1346.0,4529.014973081037 1396.0,4500.144973081037 1446.0,4529.014973081037 1496.0,4500.144973081037 1546.0,4529.014973081037 1596.0,4500.144973081037 1646.0,4529.014973081037 1696.0,4500.144973081037 1746.0,4529.014973081037 1746.0,4586.744973081037 1696.0,4615.6149730810375 1696.0,4673.354973081037 1646.0,4702.214973081037 1646.0,4759.954973081037 1696.0,4788.824973081038 1696.0,4846.554973081037 1746.0,4875.424973081037 1746.0,4933.1549730810375 1796.0,4962.024973081037 1796.0,5019.764973081037 1846.0,5048.624973081037 1846.0,5106.3649730810375 1796.0,5135.234973081037 1746.0,5106.3649730810375" /><polygon id="18283" points="2046.0,5452.774973081037 2096.0,5481.644973081037 2096.0,5539.374973081037 2046.0,5568.244973081037 1996.0,5539.374973081037 1946.0,5568.244973081037 1896.0,5539.374973081037 1846.0,5568.244973081037 1796.0,5539.374973081037 1746.0,5568.244973081037 1746.0,5625.974973081037 1696.0,5654.844973081037 1646.0,5625.974973081037 1596.0,5654.844973081037 1546.0,5625.974973081037 1496.0,5654.844973081037 1446.0,5625.974973081037 1446.0,5568.244973081037 1396.0,5539.374973081037 1396.0,5481.644973081037 1446.0,5452.774973081037 1446.0,5395.034973081038 1496.0,5366.174973081037 1546.0,5395.034973081038 1596.0,5366.174973081037 1646.0,5395.034973081038 1696.0,5366.174973081037 1696.0,5308.434973081037 1746.0,5279.564973081037 1796.0,5308.434973081037 1846.0,5279.564973081037 1896.0,5308.434973081037 1946.0,5279.564973081037 1996.0,5308.434973081037 1996.0,5366.174973081037 2046.0,5395.034973081038" /><polygon id="18284" points="1596.0,5885.784973081038 1646.0,5914.6549730810375 1646.0,5972.384973081037 1696.0,6001.254973081037 1746.0,5972.384973081037 1796.0,6001.254973081037 1796.0,6058.994973081037 1846.0,6087.854973081037 1896.0,6058.994973081037 1946.0,6087.854973081037 1996.0,6058.994973081037 2046.0,6087.854973081037 2096.0,6058.994973081037 2146.0,6087.854973081037 2196.0,6058.994973081037 2196.0,6001.254973081037 2246.0,5972.384973081037 2246.0,5914.6549730810375 2296.0,5885.784973081038 2346.0,5914.6549730810375 2396.0,5885.784973081038 2396.0,5828.054973081037 2446.0,5799.184973081037 2446.0,5741.4449730810375 2496.0,5712.584973081037 2496.0,5654.844973081037 2446.0,5625.974973081037 2446.0,5568.244973081037 2396.0,5539.374973081037 2346.0,5568.244973081037 2296.0,5539.374973081037 2296.0,5481.644973081037 2246.0,5452.774973081037 2196.0,5481.644973081037 2146.0,5452.774973081037 2096.0,5481.644973081037 2046.0,5452.774973081037 1996.0,5481.644973081037 1946.0,5452.774973081037 1896.0,5481.644973081037 1896.0,5539.374973081037 1846.0,5568.244973081037 1796.0,5539.374973081037 1746.0,5568.244973081037 1746.0,5625.974973081037 1696.0,5654.844973081037 1646.0,5625.974973081037 1596.0,5654.844973081037 1546.0,5625.974973081037 1496.0,5654.844973081037 1496.0,5712.584973081037 1546.0,5741.4449730810375 1546.0,5799.184973081037 1596.0,5828.054973081037" /><polygon id="18285" points="2496.0,5828.054973081037 2546.0,5799.184973081037 2596.0,5828.054973081037 2596.0,5885.784973081038 2546.0,5914.6549730810375 2546.0,5972.384973081037 2596.0,6001.254973081037 2596.0,6058.994973081037 2646.0,6087.854973081037 2646.0,6145.594973081037 2696.0,6174.464973081037 2746.0,6145.594973081037 2796.0,6174.464973081037 2846.0,6145.594973081037 2896.0,6174.464973081037 2946.0,6145.594973081037 2996.0,6174.464973081037 3046.0,6145.594973081037 3096.0,6174.464973081037 3146.0,6145.594973081037 3146.0,6087.854973081037 3196.0,6058.994973081037 3196.0,6001.254973081037 3246.0,5972.384973081037 3246.0,5914.6549730810375 3296.0,5885.784973081038 3296.0,5828.054973081037 3246.0,5799.184973081037 3246.0,5741.4449730810375 3196.0,5712.584973081037 3196.0,5654.844973081037 3146.0,5625.974973081037 3096.0,5654.844973081037 3046.0,5625.974973081037 2996.0,5654.844973081037 2946.0,5625.974973081037 2946.0,5568.244973081037 2896.0,5539.374973081037 2896.0,5481.644973081037 2846.0,5452.774973081037 2846.0,5395.034973081038 2796.0,5366.174973081037 2746.0,5395.034973081038 2696.0,5366.174973081037 2646.0,5395.034973081038 2596.0,5366.174973081037 2546.0,5395.034973081038 2546.0,5452.774973081037 2496.0,5481.644973081037 2496.0,5539.374973081037 2446.0,5568.244973081037 2446.0,5625.974973081037 2496.0,5654.844973081037 2496.0,5712.584973081037 2446.0,5741.4449730810375 2446.0,5799.184973081037" /><polygon id="18286" points="3696.0,6405.4049730810375 3646.0,6434.264973081037 3646.0,6492.004973081037 3596.0,6520.874973081037 3546.0,6492.004973081037 3496.0,6520.874973081037 3446.0,6492.004973081037 3396.0,6520.874973081037 3346.0,6492.004973081037 3296.0,6520.874973081037 3246.0,6492.004973081037 3196.0,6520.874973081037 3146.0,6492.004973081037 3096.0,6520.874973081037 3046.0,6492.004973081037 2996.0,6520.874973081037 2946.0,6492.004973081037 2946.0,6434.264973081037 2896.0,6405.4049730810375 2896.0,6347.664973081037 2946.0,6318.794973081037 2946.0,6261.064973081037 2996.0,6232.1949730810375 2996.0,6174.464973081037 3046.0,6145.594973081037 3096.0,6174.464973081037 3146.0,6145.594973081037 3146.0,6087.854973081037 3196.0,6058.994973081037 3196.0,6001.254973081037 3246.0,5972.384973081037 3246.0,5914.6549730810375 3296.0,5885.784973081038 3346.0,5914.6549730810375 3396.0,5885.784973081038 3446.0,5914.6549730810375 3496.0,5885.784973081038 3546.0,5914.6549730810375 3596.0,5885.784973081038 3646.0,5914.6549730810375 3696.0,5885.784973081038 3746.0,5914.6549730810375 3796.0,5885.784973081038 3846.0,5914.6549730810375 3846.0,5972.384973081037 3896.0,6001.254973081037 3946.0,5972.384973081037 3996.0,6001.254973081037 3996.0,6058.994973081037 3946.0,6087.854973081037 3946.0,6145.594973081037 3896.0,6174.464973081037 3896.0,6232.1949730810375 3846.0,6261.064973081037 3846.0,6318.794973081037 3796.0,6347.664973081037 3796.0,6405.4049730810375 3746.0,6434.264973081037" /><polygon id="18287" points="4496.0,5712.584973081037 4496.0,5654.844973081037 4546.0,5625.974973081037 4596.0,5654.844973081037 4646.0,5625.974973081037 4696.0,5654.844973081037 4746.0,5625.974973081037 4796.0,5654.844973081037 4846.0,5625.974973081037 4896.0,5654.844973081037 4946.0,5625.974973081037 4996.0,5654.844973081037 5046.0,5625.974973081037 5096.0,5654.844973081037 5146.0,5625.974973081037 5196.0,5654.844973081037 5246.0,5625.974973081037 5296.0,5654.844973081037 5296.0,5712.584973081037 5346.0,5741.4449730810375 5346.0,5799.184973081037 5396.0,5828.054973081037 5396.0,5885.784973081038 5446.0,5914.6549730810375 5446.0,5972.384973081037 5396.0,6001.254973081037 5396.0,6058.994973081037 5446.0,6087.854973081037 5446.0,6145.594973081037 5396.0,6174.464973081037 5346.0,6145.594973081037 5296.0,6174.464973081037 5246.0,6145.594973081037 5196.0,6174.464973081037 5196.0,6232.1949730810375 5146.0,6261.064973081037 5096.0,6232.1949730810375 5046.0,6261.064973081037 5046.0,6318.794973081037 4996.0,6347.664973081037 4946.0,6318.794973081037 4946.0,6261.064973081037 4896.0,6232.1949730810375 4846.0,6261.064973081037 4796.0,6232.1949730810375 4746.0,6261.064973081037 4696.0,6232.1949730810375 4646.0,6261.064973081037 4596.0,6232.1949730810375 4546.0,6261.064973081037 4496.0,6232.1949730810375 4496.0,6174.464973081037 4446.0,6145.594973081037 4446.0,6087.854973081037 4396.0,6058.994973081037 4396.0,6001.254973081037 4346.0,5972.384973081037 4346.0,5914.6549730810375 4396.0,5885.784973081038 4396.0,5828.054973081037 4446.0,5799.184973081037 4446.0,5741.4449730810375" /><polygon id="18288" points="5396.0,6520.874973081037 5396.0,6578.604973081037 5346.0,6607.474973081037 5346.0,6665.204973081037 5396.0,6694.074973081038 5396.0,6751.814973081037 5346.0,6780.674973081037 5296.0,6751.814973081037 5246.0,6780.674973081037 5196.0,6751.814973081037 5146.0,6780.674973081037 5096.0,6751.814973081037 5046.0,6780.674973081037 4996.0,6751.814973081037 4996.0,6694.074973081038 4946.0,6665.204973081037 4946.0,6607.474973081037 4996.0,6578.604973081037 4996.0,6520.874973081037 4946.0,6492.004973081037 4946.0,6434.264973081037 4996.0,6405.4049730810375 4996.0,6347.664973081037 5046.0,6318.794973081037 5046.0,6261.064973081037 5096.0,6232.1949730810375 5146.0,6261.064973081037 5196.0,6232.1949730810375 5246.0,6261.064973081037 5296.0,6232.1949730810375 5346.0,6261.064973081037 5346.0,6318.794973081037 5396.0,6347.664973081037 5396.0,6405.4049730810375 5346.0,6434.264973081037 5346.0,6492.004973081037" /><polygon id="18289" points="5846.0,6780.674973081037 5896.0,6751.814973081037 5896.0,6694.074973081038 5946.0,6665.204973081037 5946.0,6607.474973081037 5996.0,6578.604973081037 5996.0,6520.874973081037 5946.0,6492.004973081037 5946.0,6434.264973081037 5896.0,6405.4049730810375 5896.0,6347.664973081037 5846.0,6318.794973081037 5796.0,6347.664973081037 5746.0,6318.794973081037 5746.0,6261.064973081037 5696.0,6232.1949730810375 5646.0,6261.064973081037 5596.0,6232.1949730810375 5546.0,6261.064973081037 5496.0,6232.1949730810375 5446.0,6261.064973081037 5396.0,6232.1949730810375 5346.0,6261.064973081037 5346.0,6318.794973081037 5396.0,6347.664973081037 5396.0,6405.4049730810375 5346.0,6434.264973081037 5346.0,6492.004973081037 5396.0,6520.874973081037 5396.0,6578.604973081037 5346.0,6607.474973081037 5346.0,6665.204973081037 5396.0,6694.074973081038 5396.0,6751.814973081037 5446.0,6780.674973081037 5496.0,6751.814973081037 5546.0,6780.674973081037 5596.0,6751.814973081037 5646.0,6780.674973081037 5696.0,6751.814973081037 5746.0,6780.674973081037 5796.0,6751.814973081037" /><polygon id="18290" points="5596.0,6058.994973081037 5596.0,6001.254973081037 5646.0,5972.384973081037 5646.0,5914.6549730810375 5696.0,5885.784973081038 5746.0,5914.6549730810375 5796.0,5885.784973081038 5796.0,5828.054973081037 5746.0,5799.184973081037 5746.0,5741.4449730810375 5796.0,5712.584973081037 5796.0,5654.844973081037 5846.0,5625.974973081037 5846.0,5568.244973081037 5896.0,5539.374973081037 5946.0,5568.244973081037 5996.0,5539.374973081037 5996.0,5481.644973081037 6046.0,5452.774973081037 6096.0,5481.644973081037 6146.0,5452.774973081037 6146.0,5395.034973081038 6196.0,5366.174973081037 6246.0,5395.034973081038 6246.0,5452.774973081037 6296.0,5481.644973081037 6296.0,5539.374973081037 6346.0,5568.244973081037 6346.0,5625.974973081037 6396.0,5654.844973081037 6396.0,5712.584973081037 6446.0,5741.4449730810375 6446.0,5799.184973081037 6496.0,5828.054973081037 6496.0,5885.784973081038 6546.0,5914.6549730810375 6546.0,5972.384973081037 6596.0,6001.254973081037 6646.0,5972.384973081037 6696.0,6001.254973081037 6696.0,6058.994973081037 6746.0,6087.854973081037 6746.0,6145.594973081037 6796.0,6174.464973081037 6846.0,6145.594973081037 6896.0,6174.464973081037 6896.0,6232.1949730810375 6846.0,6261.064973081037 6796.0,6232.1949730810375 6746.0,6261.064973081037 6746.0,6318.794973081037 6696.0,6347.664973081037 6696.0,6405.4049730810375 6646.0,6434.264973081037 6596.0,6405.4049730810375 6546.0,6434.264973081037 6496.0,6405.4049730810375 6496.0,6347.664973081037 6446.0,6318.794973081037 6396.0,6347.664973081037 6346.0,6318.794973081037 6346.0,6261.064973081037 6296.0,6232.1949730810375 6296.0,6174.464973081037 6246.0,6145.594973081037 6196.0,6174.464973081037 6146.0,6145.594973081037 6096.0,6174.464973081037 6046.0,6145.594973081037 5996.0,6174.464973081037 5946.0,6145.594973081037 5896.0,6174.464973081037 5846.0,6145.594973081037 5796.0,6174.464973081037 5746.0,6145.594973081037 5696.0,6174.464973081037 5646.0,6145.594973081037 5646.0,6087.854973081037" /><polygon id="18291" points="5896.0,4326.9449730810375 5896.0,4269.204973081037 5946.0,4240.334973081037 5946.0,4182.604973081037 5996.0,4153.734973081037 6046.0,4182.604973081037 6096.0,4153.734973081037 6146.0,4182.604973081037 6196.0,4153.734973081037 6246.0,4182.604973081037 6246.0,4240.334973081037 6296.0,4269.204973081037 6296.0,4326.9449730810375 6346.0,4355.804973081037 6346.0,4413.544973081037 6396.0,4442.414973081037 6396.0,4500.144973081037 6446.0,4529.014973081037 6446.0,4586.744973081037 6396.0,4615.6149730810375 6396.0,4673.354973081037 6346.0,4702.214973081037 6346.0,4759.954973081037 6296.0,4788.824973081038 6296.0,4846.554973081037 6246.0,4875.424973081037 6246.0,4933.1549730810375 6196.0,4962.024973081037 6146.0,4933.1549730810375 6096.0,4962.024973081037 6046.0,4933.1549730810375 6046.0,4875.424973081037 5996.0,4846.554973081037 5946.0,4875.424973081037 5896.0,4846.554973081037 5846.0,4875.424973081037 5796.0,4846.554973081037 5796.0,4788.824973081038 5746.0,4759.954973081037 5746.0,4702.214973081037 5796.0,4673.354973081037 5796.0,4615.6149730810375 5846.0,4586.744973081037 5846.0,4529.014973081037 5796.0,4500.144973081037 5796.0,4442.414973081037 5846.0,4413.544973081037 5846.0,4355.804973081037" /><polygon id="18292" points="5696.0,5019.764973081037 5746.0,5048.624973081037 5746.0,5106.3649730810375 5796.0,5135.234973081037 5846.0,5106.3649730810375 5896.0,5135.234973081037 5946.0,5106.3649730810375 5996.0,5135.234973081037 6046.0,5106.3649730810375 6096.0,5135.234973081037 6096.0,5192.964973081037 6146.0,5221.834973081037 6196.0,5192.964973081037 6196.0,5135.234973081037 6246.0,5106.3649730810375 6246.0,5048.624973081037 6296.0,5019.764973081037 6296.0,4962.024973081037 6246.0,4933.1549730810375 6196.0,4962.024973081037 6146.0,4933.1549730810375 6096.0,4962.024973081037 6046.0,4933.1549730810375 6046.0,4875.424973081037 5996.0,4846.554973081037 5946.0,4875.424973081037 5896.0,4846.554973081037 5846.0,4875.424973081037 5796.0,4846.554973081037 5796.0,4788.824973081038 5746.0,4759.954973081037 5696.0,4788.824973081038 5696.0,4846.554973081037 5646.0,4875.424973081037 5646.0,4933.1549730810375 5596.0,4962.024973081037 5596.0,5019.764973081037 5646.0,5048.624973081037" /><polygon id="18293" points="6146.0,3547.5149730810376 6146.0,3489.7849730810376 6196.0,3460.9149730810377 6246.0,3489.7849730810376 6296.0,3460.9149730810377 6296.0,3403.1749730810375 6346.0,3374.314973081038 6396.0,3403.1749730810375 6446.0,3374.314973081038 6446.0,3316.5749730810376 6496.0,3287.7049730810377 6546.0,3316.5749730810376 6596.0,3287.7049730810377 6646.0,3316.5749730810376 6646.0,3374.314973081038 6696.0,3403.1749730810375 6696.0,3460.9149730810377 6646.0,3489.7849730810376 6646.0,3547.5149730810376 6696.0,3576.3849730810375 6696.0,3634.1149730810375 6746.0,3662.9849730810374 6746.0,3720.7249730810377 6696.0,3749.584973081038 6696.0,3807.3249730810376 6646.0,3836.1949730810375 6646.0,3893.9249730810375 6596.0,3922.794973081038 6596.0,3980.524973081038 6546.0,4009.3949730810377 6496.0,3980.524973081038 6446.0,4009.3949730810377 6396.0,3980.524973081038 6346.0,4009.3949730810377 6346.0,4067.1349730810375 6296.0,4096.004973081037 6296.0,4153.734973081037 6246.0,4182.604973081037 6196.0,4153.734973081037 6146.0,4182.604973081037 6096.0,4153.734973081037 6096.0,4096.004973081037 6146.0,4067.1349730810375 6146.0,4009.3949730810377 6096.0,3980.524973081038 6096.0,3922.794973081038 6046.0,3893.9249730810375 5996.0,3922.794973081038 5946.0,3893.9249730810375 5946.0,3836.1949730810375 5896.0,3807.3249730810376 5896.0,3749.584973081038 5946.0,3720.7249730810377 5996.0,3749.584973081038 6046.0,3720.7249730810377 6046.0,3662.9849730810374 6096.0,3634.1149730810375 6096.0,3576.3849730810375" /><polygon id="18294" points="6046.0,3374.314973081038 6046.0,3316.5749730810376 5996.0,3287.7049730810377 5996.0,3229.9749730810377 5946.0,3201.1049730810378 5896.0,3229.9749730810377 5846.0,3201.1049730810378 5846.0,3143.3749730810378 5796.0,3114.5049730810374 5796.0,3056.7649730810376 5746.0,3027.9049730810375 5696.0,3056.7649730810376 5646.0,3027.9049730810375 5596.0,3056.7649730810376 5546.0,3027.9049730810375 5546.0,2970.1649730810377 5596.0,2941.294973081038 5596.0,2883.564973081038 5546.0,2854.6949730810375 5546.0,2796.9649730810374 5596.0,2768.0949730810376 5646.0,2796.9649730810374 5696.0,2768.0949730810376 5696.0,2710.3549730810378 5746.0,2681.4949730810376 5796.0,2710.3549730810378 5846.0,2681.4949730810376 5896.0,2710.3549730810378 5946.0,2681.4949730810376 5996.0,2710.3549730810378 5996.0,2768.0949730810376 6046.0,2796.9649730810374 6096.0,2768.0949730810376 6146.0,2796.9649730810374 6196.0,2768.0949730810376 6246.0,2796.9649730810374 6246.0,2854.6949730810375 6296.0,2883.564973081038 6296.0,2941.294973081038 6346.0,2970.1649730810377 6346.0,3027.9049730810375 6396.0,3056.7649730810376 6446.0,3027.9049730810375 6496.0,3056.7649730810376 6496.0,3114.5049730810374 6446.0,3143.3749730810378 6446.0,3201.1049730810378 6496.0,3229.9749730810377 6496.0,3287.7049730810377 6446.0,3316.5749730810376 6446.0,3374.314973081038 6396.0,3403.1749730810375 6346.0,3374.314973081038 6296.0,3403.1749730810375 6296.0,3460.9149730810377 6246.0,3489.7849730810376 6196.0,3460.9149730810377 6146.0,3489.7849730810376 6096.0,3460.9149730810377 6096.0,3403.1749730810375" /><polygon id="18295" points="5346.0,3143.3749730810378 5296.0,3114.5049730810374 5246.0,3143.3749730810378 5196.0,3114.5049730810374 5146.0,3143.3749730810378 5096.0,3114.5049730810374 5046.0,3143.3749730810378 4996.0,3114.5049730810374 4946.0,3143.3749730810378 4896.0,3114.5049730810374 4896.0,3056.7649730810376 4846.0,3027.9049730810375 4796.0,3056.7649730810376 4746.0,3027.9049730810375 4746.0,2970.1649730810377 4696.0,2941.294973081038 4696.0,2883.564973081038 4646.0,2854.6949730810375 4646.0,2796.9649730810374 4696.0,2768.0949730810376 4696.0,2710.3549730810378 4746.0,2681.4949730810376 4746.0,2623.7549730810374 4796.0,2594.8849730810375 4796.0,2537.1549730810375 4846.0,2508.2849730810376 4846.0,2450.5549730810376 4896.0,2421.6849730810377 4946.0,2450.5549730810376 4996.0,2421.6849730810377 5046.0,2450.5549730810376 5096.0,2421.6849730810377 5146.0,2450.5549730810376 5196.0,2421.6849730810377 5246.0,2450.5549730810376 5296.0,2421.6849730810377 5346.0,2450.5549730810376 5346.0,2508.2849730810376 5396.0,2537.1549730810375 5446.0,2508.2849730810376 5496.0,2537.1549730810375 5546.0,2508.2849730810376 5596.0,2537.1549730810375 5596.0,2594.8849730810375 5646.0,2623.7549730810374 5696.0,2594.8849730810375 5746.0,2623.7549730810374 5746.0,2681.4949730810376 5696.0,2710.3549730810378 5696.0,2768.0949730810376 5646.0,2796.9649730810374 5596.0,2768.0949730810376 5546.0,2796.9649730810374 5546.0,2854.6949730810375 5596.0,2883.564973081038 5596.0,2941.294973081038 5546.0,2970.1649730810377 5546.0,3027.9049730810375 5496.0,3056.7649730810376 5496.0,3114.5049730810374 5446.0,3143.3749730810378 5396.0,3114.5049730810374" /><polygon id="18296" points="5296.0,2190.7449730810376 5346.0,2161.8749730810378 5396.0,2190.7449730810376 5446.0,2161.8749730810378 5496.0,2190.7449730810376 5546.0,2161.8749730810378 5596.0,2190.7449730810376 5646.0,2161.8749730810378 5646.0,2104.1449730810377 5596.0,2075.274973081038 5596.0,2017.5349730810374 5646.0,1988.6749730810375 5646.0,1930.9349730810375 5696.0,1902.0649730810374 5696.0,1844.3349730810373 5746.0,1815.4649730810374 5746.0,1757.7349730810374 5796.0,1728.8649730810373 5796.0,1671.1249730810373 5846.0,1642.2649730810374 5846.0,1584.5249730810374 5896.0,1555.6549730810375 5896.0,1497.9249730810375 5846.0,1469.0549730810374 5846.0,1411.3249730810373 5796.0,1382.4549730810375 5746.0,1411.3249730810373 5696.0,1382.4549730810375 5646.0,1411.3249730810373 5646.0,1469.0549730810374 5596.0,1497.9249730810375 5546.0,1469.0549730810374 5496.0,1497.9249730810375 5446.0,1469.0549730810374 5446.0,1411.3249730810373 5396.0,1382.4549730810375 5346.0,1411.3249730810373 5296.0,1382.4549730810375 5246.0,1411.3249730810373 5196.0,1382.4549730810375 5146.0,1411.3249730810373 5096.0,1382.4549730810375 5046.0,1411.3249730810373 4996.0,1382.4549730810375 4946.0,1411.3249730810373 4896.0,1382.4549730810375 4846.0,1411.3249730810373 4846.0,1469.0549730810374 4796.0,1497.9249730810375 4746.0,1469.0549730810374 4696.0,1497.9249730810375 4696.0,1555.6549730810375 4746.0,1584.5249730810374 4746.0,1642.2649730810374 4796.0,1671.1249730810373 4796.0,1728.8649730810373 4846.0,1757.7349730810374 4846.0,1815.4649730810374 4896.0,1844.3349730810373 4896.0,1902.0649730810374 4946.0,1930.9349730810375 4946.0,1988.6749730810375 4996.0,2017.5349730810374 4996.0,2075.274973081038 5046.0,2104.1449730810377 5046.0,2161.8749730810378 5096.0,2190.7449730810376 5146.0,2161.8749730810378 5196.0,2190.7449730810376 5246.0,2161.8749730810378" /><polygon id="18297" points="4846.0,2161.8749730810378 4796.0,2190.7449730810376 4796.0,2248.4749730810377 4746.0,2277.3449730810376 4696.0,2248.4749730810377 4646.0,2277.3449730810376 4646.0,2335.084973081038 4596.0,2363.9449730810375 4546.0,2335.084973081038 4496.0,2363.9449730810375 4446.0,2335.084973081038 4396.0,2363.9449730810375 4346.0,2335.084973081038 4346.0,2277.3449730810376 4296.0,2248.4749730810377 4296.0,2190.7449730810376 4346.0,2161.8749730810378 4346.0,2104.1449730810377 4396.0,2075.274973081038 4396.0,2017.5349730810374 4446.0,1988.6749730810375 4446.0,1930.9349730810375 4496.0,1902.0649730810374 4496.0,1844.3349730810373 4446.0,1815.4649730810374 4446.0,1757.7349730810374 4396.0,1728.8649730810373 4396.0,1671.1249730810373 4446.0,1642.2649730810374 4446.0,1584.5249730810374 4496.0,1555.6549730810375 4546.0,1584.5249730810374 4596.0,1555.6549730810375 4646.0,1584.5249730810374 4696.0,1555.6549730810375 4746.0,1584.5249730810374 4746.0,1642.2649730810374 4796.0,1671.1249730810373 4796.0,1728.8649730810373 4846.0,1757.7349730810374 4846.0,1815.4649730810374 4896.0,1844.3349730810373 4896.0,1902.0649730810374 4946.0,1930.9349730810375 4946.0,1988.6749730810375 4996.0,2017.5349730810374 4996.0,2075.274973081038 5046.0,2104.1449730810377 5046.0,2161.8749730810378 4996.0,2190.7449730810376 4946.0,2161.8749730810378 4896.0,2190.7449730810376" /><polygon id="18298" points="4446.0,1988.6749730810375 4396.0,2017.5349730810374 4396.0,2075.274973081038 4346.0,2104.1449730810377 4346.0,2161.8749730810378 4296.0,2190.7449730810376 4246.0,2161.8749730810378 4196.0,2190.7449730810376 4146.0,2161.8749730810378 4096.0,2190.7449730810376 4046.0,2161.8749730810378 3996.0,2190.7449730810376 3946.0,2161.8749730810378 3896.0,2190.7449730810376 3846.0,2161.8749730810378 3846.0,2104.1449730810377 3796.0,2075.274973081038 3746.0,2104.1449730810377 3746.0,2161.8749730810378 3696.0,2190.7449730810376 3646.0,2161.8749730810378 3646.0,2104.1449730810377 3696.0,2075.274973081038 3696.0,2017.5349730810374 3646.0,1988.6749730810375 3646.0,1930.9349730810375 3696.0,1902.0649730810374 3696.0,1844.3349730810373 3746.0,1815.4649730810374 3746.0,1757.7349730810374 3696.0,1728.8649730810373 3646.0,1757.7349730810374 3596.0,1728.8649730810373 3596.0,1671.1249730810373 3546.0,1642.2649730810374 3546.0,1584.5249730810374 3596.0,1555.6549730810375 3596.0,1497.9249730810375 3646.0,1469.0549730810374 3646.0,1411.3249730810373 3696.0,1382.4549730810375 3746.0,1411.3249730810373 3796.0,1382.4549730810375 3846.0,1411.3249730810373 3896.0,1382.4549730810375 3946.0,1411.3249730810373 3946.0,1469.0549730810374 3996.0,1497.9249730810375 4046.0,1469.0549730810374 4096.0,1497.9249730810375 4146.0,1469.0549730810374 4196.0,1497.9249730810375 4196.0,1555.6549730810375 4246.0,1584.5249730810374 4296.0,1555.6549730810375 4346.0,1584.5249730810374 4396.0,1555.6549730810375 4446.0,1584.5249730810374 4446.0,1642.2649730810374 4396.0,1671.1249730810373 4396.0,1728.8649730810373 4446.0,1757.7349730810374 4446.0,1815.4649730810374 4496.0,1844.3349730810373 4496.0,1902.0649730810374 4446.0,1930.9349730810375" /><polygon id="18299" points="3346.0,2161.8749730810378 3396.0,2190.7449730810376 3446.0,2161.8749730810378 3496.0,2190.7449730810376 3546.0,2161.8749730810378 3596.0,2190.7449730810376 3646.0,2161.8749730810378 3696.0,2190.7449730810376 3696.0,2248.4749730810377 3746.0,2277.3449730810376 3746.0,2335.084973081038 3796.0,2363.9449730810375 3796.0,2421.6849730810377 3746.0,2450.5549730810376 3746.0,2508.2849730810376 3696.0,2537.1549730810375 3696.0,2594.8849730810375 3646.0,2623.7549730810374 3596.0,2594.8849730810375 3546.0,2623.7549730810374 3546.0,2681.4949730810376 3496.0,2710.3549730810378 3446.0,2681.4949730810376 3396.0,2710.3549730810378 3346.0,2681.4949730810376 3346.0,2623.7549730810374 3296.0,2594.8849730810375 3246.0,2623.7549730810374 3246.0,2681.4949730810376 3196.0,2710.3549730810378 3196.0,2768.0949730810376 3146.0,2796.9649730810374 3096.0,2768.0949730810376 3046.0,2796.9649730810374 2996.0,2768.0949730810376 2946.0,2796.9649730810374 2896.0,2768.0949730810376 2896.0,2710.3549730810378 2946.0,2681.4949730810376 2946.0,2623.7549730810374 2996.0,2594.8849730810375 2996.0,2537.1549730810375 3046.0,2508.2849730810376 3046.0,2450.5549730810376 2996.0,2421.6849730810377 2996.0,2363.9449730810375 3046.0,2335.084973081038 3046.0,2277.3449730810376 2996.0,2248.4749730810377 2996.0,2190.7449730810376 3046.0,2161.8749730810378 3096.0,2190.7449730810376 3146.0,2161.8749730810378 3196.0,2190.7449730810376 3196.0,2248.4749730810377 3246.0,2277.3449730810376 3296.0,2248.4749730810377 3296.0,2190.7449730810376" /><polygon id="18300" points="2196.0,2883.564973081038 2246.0,2854.6949730810375 2296.0,2883.564973081038 2296.0,2941.294973081038 2346.0,2970.1649730810377 2396.0,2941.294973081038 2446.0,2970.1649730810377 2496.0,2941.294973081038 2546.0,2970.1649730810377 2596.0,2941.294973081038 2596.0,2883.564973081038 2646.0,2854.6949730810375 2696.0,2883.564973081038 2746.0,2854.6949730810375 2746.0,2796.9649730810374 2696.0,2768.0949730810376 2696.0,2710.3549730810378 2646.0,2681.4949730810376 2646.0,2623.7549730810374 2596.0,2594.8849730810375 2596.0,2537.1549730810375 2546.0,2508.2849730810376 2546.0,2450.5549730810376 2596.0,2421.6849730810377 2596.0,2363.9449730810375 2546.0,2335.084973081038 2546.0,2277.3449730810376 2496.0,2248.4749730810377 2446.0,2277.3449730810376 2396.0,2248.4749730810377 2346.0,2277.3449730810376 2346.0,2335.084973081038 2296.0,2363.9449730810375 2296.0,2421.6849730810377 2246.0,2450.5549730810376 2196.0,2421.6849730810377 2146.0,2450.5549730810376 2146.0,2508.2849730810376 2096.0,2537.1549730810375 2096.0,2594.8849730810375 2046.0,2623.7549730810374 2046.0,2681.4949730810376 2096.0,2710.3549730810378 2096.0,2768.0949730810376 2146.0,2796.9649730810374 2146.0,2854.6949730810375" /><polygon id="18301" points="2296.0,3114.5049730810374 2246.0,3143.3749730810378 2246.0,3201.1049730810378 2196.0,3229.9749730810377 2146.0,3201.1049730810378 2096.0,3229.9749730810377 2096.0,3287.7049730810377 2046.0,3316.5749730810376 1996.0,3287.7049730810377 1946.0,3316.5749730810376 1946.0,3374.314973081038 1896.0,3403.1749730810375 1846.0,3374.314973081038 1796.0,3403.1749730810375 1746.0,3374.314973081038 1746.0,3316.5749730810376 1696.0,3287.7049730810377 1696.0,3229.9749730810377 1646.0,3201.1049730810378 1646.0,3143.3749730810378 1596.0,3114.5049730810374 1596.0,3056.7649730810376 1646.0,3027.9049730810375 1646.0,2970.1649730810377 1696.0,2941.294973081038 1696.0,2883.564973081038 1746.0,2854.6949730810375 1796.0,2883.564973081038 1846.0,2854.6949730810375 1846.0,2796.9649730810374 1896.0,2768.0949730810376 1896.0,2710.3549730810378 1946.0,2681.4949730810376 1946.0,2623.7549730810374 1996.0,2594.8849730810375 2046.0,2623.7549730810374 2046.0,2681.4949730810376 2096.0,2710.3549730810378 2096.0,2768.0949730810376 2146.0,2796.9649730810374 2146.0,2854.6949730810375 2196.0,2883.564973081038 2246.0,2854.6949730810375 2296.0,2883.564973081038 2296.0,2941.294973081038 2346.0,2970.1649730810377 2346.0,3027.9049730810375 2296.0,3056.7649730810376" /><polygon id="18302" points="6996.0,6174.464973081037 7046.0,6145.594973081037 7046.0,6087.854973081037 7096.0,6058.994973081037 7096.0,6001.254973081037 7146.0,5972.384973081037 7146.0,5914.6549730810375 7196.0,5885.784973081038 7196.0,5828.054973081037 7246.0,5799.184973081037 7246.0,5741.4449730810375 7196.0,5712.584973081037 7196.0,5654.844973081037 7246.0,5625.974973081037 7246.0,5568.244973081037 7196.0,5539.374973081037 7196.0,5481.644973081037 7146.0,5452.774973081037 7146.0,5395.034973081038 7096.0,5366.174973081037 7096.0,5308.434973081037 7046.0,5279.564973081037 6996.0,5308.434973081037 6946.0,5279.564973081037 6896.0,5308.434973081037 6846.0,5279.564973081037 6796.0,5308.434973081037 6746.0,5279.564973081037 6696.0,5308.434973081037 6646.0,5279.564973081037 6646.0,5221.834973081037 6596.0,5192.964973081037 6596.0,5135.234973081037 6546.0,5106.3649730810375 6496.0,5135.234973081037 6446.0,5106.3649730810375 6396.0,5135.234973081037 6346.0,5106.3649730810375 6346.0,5048.624973081037 6296.0,5019.764973081037 6246.0,5048.624973081037 6246.0,5106.3649730810375 6196.0,5135.234973081037 6196.0,5192.964973081037 6146.0,5221.834973081037 6146.0,5279.564973081037 6196.0,5308.434973081037 6196.0,5366.174973081037 6246.0,5395.034973081038 6246.0,5452.774973081037 6296.0,5481.644973081037 6296.0,5539.374973081037 6346.0,5568.244973081037 6346.0,5625.974973081037 6396.0,5654.844973081037 6396.0,5712.584973081037 6446.0,5741.4449730810375 6446.0,5799.184973081037 6496.0,5828.054973081037 6496.0,5885.784973081038 6546.0,5914.6549730810375 6546.0,5972.384973081037 6596.0,6001.254973081037 6646.0,5972.384973081037 6696.0,6001.254973081037 6696.0,6058.994973081037 6746.0,6087.854973081037 6746.0,6145.594973081037 6796.0,6174.464973081037 6846.0,6145.594973081037 6896.0,6174.464973081037 6946.0,6145.594973081037" /><polygon id="18303" points="4196.0,1324.7149730810374 4246.0,1295.8549730810373 4246.0,1238.1149730810373 4296.0,1209.2449730810374 4296.0,1151.5149730810374 4246.0,1122.6449730810375 4246.0,1064.9149730810375 4296.0,1036.0449730810374 4296.0,978.3049730810374 4346.0,949.4449730810373 4396.0,978.3049730810374 4446.0,949.4449730810373 4496.0,978.3049730810374 4546.0,949.4449730810373 4596.0,978.3049730810374 4646.0,949.4449730810373 4696.0,978.3049730810374 4746.0,949.4449730810373 4796.0,978.3049730810374 4796.0,1036.0449730810374 4846.0,1064.9149730810375 4846.0,1122.6449730810375 4796.0,1151.5149730810374 4796.0,1209.2449730810374 4846.0,1238.1149730810373 4846.0,1295.8549730810373 4896.0,1324.7149730810374 4896.0,1382.4549730810375 4846.0,1411.3249730810373 4846.0,1469.0549730810374 4796.0,1497.9249730810375 4746.0,1469.0549730810374 4696.0,1497.9249730810375 4696.0,1555.6549730810375 4646.0,1584.5249730810374 4596.0,1555.6549730810375 4546.0,1584.5249730810374 4496.0,1555.6549730810375 4446.0,1584.5249730810374 4396.0,1555.6549730810375 4346.0,1584.5249730810374 4296.0,1555.6549730810375 4246.0,1584.5249730810374 4196.0,1555.6549730810375 4196.0,1497.9249730810375 4146.0,1469.0549730810374 4146.0,1411.3249730810373 4196.0,1382.4549730810375" /><polygon id="18304" points="596.0,4153.734973081037 646.0,4182.604973081037 696.0,4153.734973081037 746.0,4182.604973081037 796.0,4153.734973081037 846.0,4182.604973081037 896.0,4153.734973081037 896.0,4096.004973081037 946.0,4067.1349730810375 946.0,4009.3949730810377 996.0,3980.524973081038 1046.0,4009.3949730810377 1046.0,4067.1349730810375 1096.0,4096.004973081037 1146.0,4067.1349730810375 1196.0,4096.004973081037 1196.0,4153.734973081037 1146.0,4182.604973081037 1146.0,4240.334973081037 1096.0,4269.204973081037 1096.0,4326.9449730810375 1146.0,4355.804973081037 1146.0,4413.544973081037 1196.0,4442.414973081037 1196.0,4500.144973081037 1246.0,4529.014973081037 1246.0,4586.744973081037 1196.0,4615.6149730810375 1196.0,4673.354973081037 1146.0,4702.214973081037 1146.0,4759.954973081037 1096.0,4788.824973081038 1096.0,4846.554973081037 1046.0,4875.424973081037 996.0,4846.554973081037 996.0,4788.824973081038 946.0,4759.954973081037 896.0,4788.824973081038 846.0,4759.954973081037 796.0,4788.824973081038 746.0,4759.954973081037 696.0,4788.824973081038 646.0,4759.954973081037 596.0,4788.824973081038 546.0,4759.954973081037 546.0,4702.214973081037 496.0,4673.354973081037 496.0,4615.6149730810375 446.0,4586.744973081037 446.0,4529.014973081037 396.0,4500.144973081037 396.0,4442.414973081037 446.0,4413.544973081037 446.0,4355.804973081037 496.0,4326.9449730810375 496.0,4269.204973081037 546.0,4240.334973081037 546.0,4182.604973081037" /><polygon id="18305" points="7096.0,6347.664973081037 7046.0,6318.794973081037 7046.0,6261.064973081037 6996.0,6232.1949730810375 6996.0,6174.464973081037 6946.0,6145.594973081037 6896.0,6174.464973081037 6896.0,6232.1949730810375 6846.0,6261.064973081037 6796.0,6232.1949730810375 6746.0,6261.064973081037 6746.0,6318.794973081037 6696.0,6347.664973081037 6696.0,6405.4049730810375 6646.0,6434.264973081037 6596.0,6405.4049730810375 6546.0,6434.264973081037 6546.0,6492.004973081037 6496.0,6520.874973081037 6496.0,6578.604973081037 6446.0,6607.474973081037 6446.0,6665.204973081037 6496.0,6694.074973081038 6496.0,6751.814973081037 6546.0,6780.674973081037 6596.0,6751.814973081037 6646.0,6780.674973081037 6646.0,6838.414973081037 6696.0,6867.284973081038 6746.0,6838.414973081037 6796.0,6867.284973081038 6846.0,6838.414973081037 6896.0,6867.284973081038 6946.0,6838.414973081037 6996.0,6867.284973081038 7046.0,6838.414973081037 7046.0,6780.674973081037 7096.0,6751.814973081037 7146.0,6780.674973081037 7196.0,6751.814973081037 7196.0,6694.074973081038 7246.0,6665.204973081037 7246.0,6607.474973081037 7296.0,6578.604973081037 7296.0,6520.874973081037 7346.0,6492.004973081037 7346.0,6434.264973081037 7296.0,6405.4049730810375 7246.0,6434.264973081037 7196.0,6405.4049730810375 7146.0,6434.264973081037 7096.0,6405.4049730810375" /><polygon id="18307" points="2796.0,3403.1749730810375 2846.0,3374.314973081038 2896.0,3403.1749730810375 2946.0,3374.314973081038 2996.0,3403.1749730810375 2996.0,3460.9149730810377 2946.0,3489.7849730810376 2946.0,3547.5149730810376 2896.0,3576.3849730810375 2896.0,3634.1149730810375 2946.0,3662.9849730810374 2946.0,3720.7249730810377 2896.0,3749.584973081038 2846.0,3720.7249730810377 2796.0,3749.584973081038 2746.0,3720.7249730810377 2696.0,3749.584973081038 2646.0,3720.7249730810377 2646.0,3662.9849730810374 2696.0,3634.1149730810375 2696.0,3576.3849730810375 2646.0,3547.5149730810376 2646.0,3489.7849730810376 2596.0,3460.9149730810377 2596.0,3403.1749730810375 2646.0,3374.314973081038 2696.0,3403.1749730810375 2746.0,3374.314973081038" /><polygon id="18308" points="5196.0,3634.1149730810375 5246.0,3662.9849730810374 5296.0,3634.1149730810375 5296.0,3576.3849730810375 5346.0,3547.5149730810376 5396.0,3576.3849730810375 5446.0,3547.5149730810376 5496.0,3576.3849730810375 5496.0,3634.1149730810375 5546.0,3662.9849730810374 5546.0,3720.7249730810377 5496.0,3749.584973081038 5496.0,3807.3249730810376 5546.0,3836.1949730810375 5546.0,3893.9249730810375 5496.0,3922.794973081038 5496.0,3980.524973081038 5446.0,4009.3949730810377 5396.0,3980.524973081038 5346.0,4009.3949730810377 5296.0,3980.524973081038 5246.0,4009.3949730810377 5196.0,3980.524973081038 5196.0,3922.794973081038 5146.0,3893.9249730810375 5146.0,3836.1949730810375 5096.0,3807.3249730810376 5096.0,3749.584973081038 5146.0,3720.7249730810377 5146.0,3662.9849730810374" /><polygon id="18309" points="3496.0,5308.434973081037 3546.0,5279.564973081037 3546.0,5221.834973081037 3596.0,5192.964973081037 3596.0,5135.234973081037 3646.0,5106.3649730810375 3696.0,5135.234973081037 3746.0,5106.3649730810375 3796.0,5135.234973081037 3796.0,5192.964973081037 3846.0,5221.834973081037 3846.0,5279.564973081037 3896.0,5308.434973081037 3896.0,5366.174973081037 3846.0,5395.034973081038 3846.0,5452.774973081037 3796.0,5481.644973081037 3796.0,5539.374973081037 3746.0,5568.244973081037 3746.0,5625.974973081037 3696.0,5654.844973081037 3646.0,5625.974973081037 3596.0,5654.844973081037 3546.0,5625.974973081037 3546.0,5568.244973081037 3496.0,5539.374973081037 3496.0,5481.644973081037 3546.0,5452.774973081037 3546.0,5395.034973081038 3496.0,5366.174973081037" /><polygon id="18329" points="5096.0,2421.6849730810377 5046.0,2450.5549730810376 4996.0,2421.6849730810377 4946.0,2450.5549730810376 4896.0,2421.6849730810377 4846.0,2450.5549730810376 4846.0,2508.2849730810376 4796.0,2537.1549730810375 4746.0,2508.2849730810376 4746.0,2450.5549730810376 4696.0,2421.6849730810377 4696.0,2363.9449730810375 4646.0,2335.084973081038 4646.0,2277.3449730810376 4696.0,2248.4749730810377 4746.0,2277.3449730810376 4796.0,2248.4749730810377 4796.0,2190.7449730810376 4846.0,2161.8749730810378 4896.0,2190.7449730810376 4946.0,2161.8749730810378 4996.0,2190.7449730810376 5046.0,2161.8749730810378 5096.0,2190.7449730810376 5146.0,2161.8749730810378 5196.0,2190.7449730810376 5246.0,2161.8749730810378 5296.0,2190.7449730810376 5296.0,2248.4749730810377 5346.0,2277.3449730810376 5346.0,2335.084973081038 5296.0,2363.9449730810375 5296.0,2421.6849730810377 5246.0,2450.5549730810376 5196.0,2421.6849730810377 5146.0,2450.5549730810376" /><polygon id="18330" points="5796.0,4615.6149730810375 5846.0,4586.744973081037 5846.0,4529.014973081037 5796.0,4500.144973081037 5746.0,4529.014973081037 5696.0,4500.144973081037 5646.0,4529.014973081037 5596.0,4500.144973081037 5546.0,4529.014973081037 5496.0,4500.144973081037 5446.0,4529.014973081037 5446.0,4586.744973081037 5396.0,4615.6149730810375 5396.0,4673.354973081037 5346.0,4702.214973081037 5346.0,4759.954973081037 5296.0,4788.824973081038 5296.0,4846.554973081037 5346.0,4875.424973081037 5346.0,4933.1549730810375 5396.0,4962.024973081037 5446.0,4933.1549730810375 5496.0,4962.024973081037 5546.0,4933.1549730810375 5596.0,4962.024973081037 5646.0,4933.1549730810375 5646.0,4875.424973081037 5696.0,4846.554973081037 5696.0,4788.824973081038 5746.0,4759.954973081037 5746.0,4702.214973081037 5796.0,4673.354973081037" /><polygon id="18331" points="5396.0,5885.784973081038 5446.0,5914.6549730810375 5446.0,5972.384973081037 5396.0,6001.254973081037 5396.0,6058.994973081037 5446.0,6087.854973081037 5496.0,6058.994973081037 5546.0,6087.854973081037 5596.0,6058.994973081037 5596.0,6001.254973081037 5646.0,5972.384973081037 5646.0,5914.6549730810375 5696.0,5885.784973081038 5746.0,5914.6549730810375 5796.0,5885.784973081038 5796.0,5828.054973081037 5746.0,5799.184973081037 5746.0,5741.4449730810375 5796.0,5712.584973081037 5796.0,5654.844973081037 5746.0,5625.974973081037 5696.0,5654.844973081037 5646.0,5625.974973081037 5596.0,5654.844973081037 5546.0,5625.974973081037 5496.0,5654.844973081037 5446.0,5625.974973081037 5396.0,5654.844973081037 5346.0,5625.974973081037 5296.0,5654.844973081037 5296.0,5712.584973081037 5346.0,5741.4449730810375 5346.0,5799.184973081037 5396.0,5828.054973081037" /><polygon id="18343" points="1746.0,4240.334973081037 1746.0,4182.604973081037 1696.0,4153.734973081037 1696.0,4096.004973081037 1646.0,4067.1349730810375 1596.0,4096.004973081037 1546.0,4067.1349730810375 1496.0,4096.004973081037 1446.0,4067.1349730810375 1396.0,4096.004973081037 1346.0,4067.1349730810375 1296.0,4096.004973081037 1246.0,4067.1349730810375 1196.0,4096.004973081037 1196.0,4153.734973081037 1146.0,4182.604973081037 1146.0,4240.334973081037 1096.0,4269.204973081037 1096.0,4326.9449730810375 1146.0,4355.804973081037 1146.0,4413.544973081037 1196.0,4442.414973081037 1196.0,4500.144973081037 1246.0,4529.014973081037 1296.0,4500.144973081037 1346.0,4529.014973081037 1396.0,4500.144973081037 1446.0,4529.014973081037 1496.0,4500.144973081037 1546.0,4529.014973081037 1596.0,4500.144973081037 1646.0,4529.014973081037 1696.0,4500.144973081037 1696.0,4442.414973081037 1746.0,4413.544973081037 1746.0,4355.804973081037 1796.0,4326.9449730810375 1796.0,4269.204973081037" /><polygon id="18344" points="3796.0,6520.874973081037 3846.0,6492.004973081037 3896.0,6520.874973081037 3946.0,6492.004973081037 3996.0,6520.874973081037 4046.0,6492.004973081037 4096.0,6520.874973081037 4146.0,6492.004973081037 4196.0,6520.874973081037 4246.0,6492.004973081037 4296.0,6520.874973081037 4346.0,6492.004973081037 4396.0,6520.874973081037 4446.0,6492.004973081037 4446.0,6434.264973081037 4496.0,6405.4049730810375 4496.0,6347.664973081037 4546.0,6318.794973081037 4596.0,6347.664973081037 4646.0,6318.794973081037 4646.0,6261.064973081037 4596.0,6232.1949730810375 4546.0,6261.064973081037 4496.0,6232.1949730810375 4496.0,6174.464973081037 4446.0,6145.594973081037 4446.0,6087.854973081037 4396.0,6058.994973081037 4396.0,6001.254973081037 4346.0,5972.384973081037 4346.0,5914.6549730810375 4296.0,5885.784973081038 4246.0,5914.6549730810375 4196.0,5885.784973081038 4146.0,5914.6549730810375 4146.0,5972.384973081037 4096.0,6001.254973081037 4096.0,6058.994973081037 4046.0,6087.854973081037 3996.0,6058.994973081037 3946.0,6087.854973081037 3946.0,6145.594973081037 3896.0,6174.464973081037 3896.0,6232.1949730810375 3846.0,6261.064973081037 3846.0,6318.794973081037 3796.0,6347.664973081037 3796.0,6405.4049730810375 3746.0,6434.264973081037 3746.0,6492.004973081037" /><polygon id="18346" points="3996.0,4846.554973081037 3946.0,4875.424973081037 3896.0,4846.554973081037 3846.0,4875.424973081037 3796.0,4846.554973081037 3796.0,4788.824973081038 3746.0,4759.954973081037 3746.0,4702.214973081037 3696.0,4673.354973081037 3696.0,4615.6149730810375 3746.0,4586.744973081037 3746.0,4529.014973081037 3796.0,4500.144973081037 3846.0,4529.014973081037 3896.0,4500.144973081037 3946.0,4529.014973081037 3996.0,4500.144973081037 4046.0,4529.014973081037 4096.0,4500.144973081037 4146.0,4529.014973081037 4146.0,4586.744973081037 4196.0,4615.6149730810375 4196.0,4673.354973081037 4246.0,4702.214973081037 4246.0,4759.954973081037 4296.0,4788.824973081038 4296.0,4846.554973081037 4246.0,4875.424973081037 4196.0,4846.554973081037 4146.0,4875.424973081037 4096.0,4846.554973081037 4046.0,4875.424973081037" /><polygon id="18347" points="7846.0,25.68497308103742 7896.0,-3.185026918962585 7946.0,25.68497308103742 7996.0,-3.185026918962585 8046.0,25.68497308103742 8046.0,83.41497308103743 8096.0,112.28497308103744 8096.0,170.01497308103743 8046.0,198.88497308103743 8046.0,256.6249730810374 8096.0,285.4849730810374 8096.0,343.2249730810374 8046.0,372.0949730810374 8046.0,429.8249730810374 8096.0,458.69497308103735 8096.0,516.4249730810374 8046.0,545.2949730810374 8046.0,603.0349730810374 8096.0,631.8949730810374 8096.0,689.6349730810374 8046.0,718.5049730810374 8046.0,776.2349730810374 8096.0,805.1049730810374 8096.0,862.8349730810374 8046.0,891.7049730810375 8046.0,949.4449730810373 8096.0,978.3049730810374 8096.0,1036.0449730810374 8046.0,1064.9149730810375 8046.0,1122.6449730810375 8096.0,1151.5149730810374 8096.0,1209.2449730810374 8046.0,1238.1149730810373 8046.0,1295.8549730810373 8096.0,1324.7149730810374 8096.0,1382.4549730810375 8046.0,1411.3249730810373 8046.0,1469.0549730810374 8096.0,1497.9249730810375 8096.0,1555.6549730810375 8046.0,1584.5249730810374 8046.0,1642.2649730810374 8096.0,1671.1249730810373 8096.0,1728.8649730810373 8046.0,1757.7349730810374 8046.0,1815.4649730810374 8096.0,1844.3349730810373 8096.0,1902.0649730810374 8046.0,1930.9349730810375 8046.0,1988.6749730810375 8096.0,2017.5349730810374 8096.0,2075.274973081038 8046.0,2104.1449730810377 8046.0,2161.8749730810378 8096.0,2190.7449730810376 8096.0,2248.4749730810377 8046.0,2277.3449730810376 8046.0,2335.084973081038 8096.0,2363.9449730810375 8096.0,2421.6849730810377 8046.0,2450.5549730810376 8046.0,2508.2849730810376 8096.0,2537.1549730810375 8096.0,2594.8849730810375 8046.0,2623.7549730810374 8046.0,2681.4949730810376 8096.0,2710.3549730810378 8096.0,2768.0949730810376 8046.0,2796.9649730810374 8046.0,2854.6949730810375 8096.0,2883.564973081038 8096.0,2941.294973081038 8046.0,2970.1649730810377 8046.0,3027.9049730810375 8096.0,3056.7649730810376 8096.0,3114.5049730810374 8046.0,3143.3749730810378 8046.0,3201.1049730810378 8096.0,3229.9749730810377 8096.0,3287.7049730810377 8046.0,3316.5749730810376 8046.0,3374.314973081038 8096.0,3403.1749730810375 8096.0,3460.9149730810377 8046.0,3489.7849730810376 8046.0,3547.5149730810376 8096.0,3576.3849730810375 8096.0,3634.1149730810375 8046.0,3662.9849730810374 8046.0,3720.7249730810377 8096.0,3749.584973081038 8096.0,3807.3249730810376 8046.0,3836.1949730810375 8046.0,3893.9249730810375 8096.0,3922.794973081038 8096.0,3980.524973081038 8046.0,4009.3949730810377 8046.0,4067.1349730810375 8096.0,4096.004973081037 8096.0,4153.734973081037 8046.0,4182.604973081037 8046.0,4240.334973081037 8096.0,4269.204973081037 8096.0,4326.9449730810375 8046.0,4355.804973081037 8046.0,4413.544973081037 8096.0,4442.414973081037 8096.0,4500.144973081037 8046.0,4529.014973081037 8046.0,4586.744973081037 8096.0,4615.6149730810375 8096.0,4673.354973081037 8046.0,4702.214973081037 8046.0,4759.954973081037 8096.0,4788.824973081038 8096.0,4846.554973081037 8046.0,4875.424973081037 8046.0,4933.1549730810375 8096.0,4962.024973081037 8096.0,5019.764973081037 8046.0,5048.624973081037 8046.0,5106.3649730810375 8096.0,5135.234973081037 8096.0,5192.964973081037 8046.0,5221.834973081037 8046.0,5279.564973081037 8096.0,5308.434973081037 8096.0,5366.174973081037 8046.0,5395.034973081038 8046.0,5452.774973081037 8096.0,5481.644973081037 8096.0,5539.374973081037 8046.0,5568.244973081037 8046.0,5625.974973081037 8096.0,5654.844973081037 8096.0,5712.584973081037 8046.0,5741.4449730810375 8046.0,5799.184973081037 8096.0,5828.054973081037 8096.0,5885.784973081038 8046.0,5914.6549730810375 8046.0,5972.384973081037 8096.0,6001.254973081037 8096.0,6058.994973081037 8046.0,6087.854973081037 8046.0,6145.594973081037 8096.0,6174.464973081037 8096.0,6232.1949730810375 8046.0,6261.064973081037 8046.0,6318.794973081037 8096.0,6347.664973081037 8096.0,6405.4049730810375 8046.0,6434.264973081037 8046.0,6492.004973081037 8096.0,6520.874973081037 8096.0,6578.604973081037 8046.0,6607.474973081037 8046.0,6665.204973081037 8096.0,6694.074973081038 8096.0,6751.814973081037 8046.0,6780.674973081037 8046.0,6838.414973081037 8096.0,6867.284973081038 8096.0,6925.014973081037 8046.0,6953.884973081037 8046.0,7011.6149730810375 8096.0,7040.484973081037 8096.0,7098.224973081037 8046.0,7127.084973081037 8046.0,7184.824973081038 8096.0,7213.6949730810375 8096.0,7271.424973081037 8046.0,7300.294973081037 8046.0,7358.024973081037 8096.0,7386.894973081037 8096.0,7444.634973081037 8046.0,7473.494973081037 8046.0,7531.234973081037 8096.0,7560.104973081037 8096.0,7617.834973081037 8046.0,7646.704973081037 8046.0,7704.434973081037 8096.0,7733.304973081037 8096.0,7791.044973081037 8046.0,7819.9049730810375 8046.0,7877.644973081037 8096.0,7906.514973081037 8096.0,7964.244973081037 8046.0,7993.1149730810375 8046.0,8050.844973081037 7996.0,8079.714973081037 7946.0,8050.844973081037 7896.0,8079.714973081037 7846.0,8050.844973081037 7796.0,8079.714973081037 7746.0,8050.844973081037 7696.0,8079.714973081037 7646.0,8050.844973081037 7596.0,8079.714973081037 7546.0,8050.844973081037 7496.0,8079.714973081037 7446.0,8050.844973081037 7396.0,8079.714973081037 7346.0,8050.844973081037 7296.0,8079.714973081037 7246.0,8050.844973081037 7196.0,8079.714973081037 7146.0,8050.844973081037 7096.0,8079.714973081037 7046.0,8050.844973081037 6996.0,8079.714973081037 6946.0,8050.844973081037 6896.0,8079.714973081037 6846.0,8050.844973081037 6796.0,8079.714973081037 6746.0,8050.844973081037 6696.0,8079.714973081037 6646.0,8050.844973081037 6596.0,8079.714973081037 6546.0,8050.844973081037 6496.0,8079.714973081037 6446.0,8050.844973081037 6396.0,8079.714973081037 6346.0,8050.844973081037 6296.0,8079.714973081037 6246.0,8050.844973081037 6196.0,8079.714973081037 6146.0,8050.844973081037 6096.0,8079.714973081037 6046.0,8050.844973081037 5996.0,8079.714973081037 5946.0,8050.844973081037 5896.0,8079.714973081037 5846.0,8050.844973081037 5796.0,8079.714973081037 5746.0,8050.844973081037 5696.0,8079.714973081037 5646.0,8050.844973081037 5596.0,8079.714973081037 5546.0,8050.844973081037 5496.0,8079.714973081037 5446.0,8050.844973081037 5396.0,8079.714973081037 5346.0,8050.844973081037 5296.0,8079.714973081037 5246.0,8050.844973081037 5196.0,8079.714973081037 5146.0,8050.844973081037 5096.0,8079.714973081037 5046.0,8050.844973081037 4996.0,8079.714973081037 4946.0,8050.844973081037 4896.0,8079.714973081037 4846.0,8050.844973081037 4796.0,8079.714973081037 4746.0,8050.844973081037 4696.0,8079.714973081037 4646.0,8050.844973081037 4596.0,8079.714973081037 4546.0,8050.844973081037 4496.0,8079.714973081037 4446.0,8050.844973081037 4396.0,8079.714973081037 4346.0,8050.844973081037 4296.0,8079.714973081037 4246.0,8050.844973081037 4196.0,8079.714973081037 4146.0,8050.844973081037 4096.0,8079.714973081037 4046.0,8050.844973081037 3996.0,8079.714973081037 3946.0,8050.844973081037 3896.0,8079.714973081037 3846.0,8050.844973081037 3796.0,8079.714973081037 3746.0,8050.844973081037 3696.0,8079.714973081037 3646.0,8050.844973081037 3596.0,8079.714973081037 3546.0,8050.844973081037 3496.0,8079.714973081037 3446.0,8050.844973081037 3396.0,8079.714973081037 3346.0,8050.844973081037 3296.0,8079.714973081037 3246.0,8050.844973081037 3196.0,8079.714973081037 3146.0,8050.844973081037 3096.0,8079.714973081037 3046.0,8050.844973081037 2996.0,8079.714973081037 2946.0,8050.844973081037 2896.0,8079.714973081037 2846.0,8050.844973081037 2796.0,8079.714973081037 2746.0,8050.844973081037 2696.0,8079.714973081037 2646.0,8050.844973081037 2596.0,8079.714973081037 2546.0,8050.844973081037 2496.0,8079.714973081037 2446.0,8050.844973081037 2396.0,8079.714973081037 2346.0,8050.844973081037 2296.0,8079.714973081037 2246.0,8050.844973081037 2196.0,8079.714973081037 2146.0,8050.844973081037 2096.0,8079.714973081037 2046.0,8050.844973081037 1996.0,8079.714973081037 1946.0,8050.844973081037 1896.0,8079.714973081037 1846.0,8050.844973081037 1796.0,8079.714973081037 1746.0,8050.844973081037 1696.0,8079.714973081037 1646.0,8050.844973081037 1596.0,8079.714973081037 1546.0,8050.844973081037 1496.0,8079.714973081037 1446.0,8050.844973081037 1396.0,8079.714973081037 1346.0,8050.844973081037 1296.0,8079.714973081037 1246.0,8050.844973081037 1196.0,8079.714973081037 1146.0,8050.844973081037 1096.0,8079.714973081037 1046.0,8050.844973081037 996.0,8079.714973081037 946.0,8050.844973081037 896.0,8079.714973081037 846.0,8050.844973081037 796.0,8079.714973081037 746.0,8050.844973081037 696.0,8079.714973081037 646.0,8050.844973081037 596.0,8079.714973081037 546.0,8050.844973081037 496.0,8079.714973081037 446.0,8050.844973081037 396.0,8079.714973081037 346.0,8050.844973081037 296.0,8079.714973081037 246.0,8050.844973081037 196.0,8079.714973081037 146.0,8050.844973081037 96.0,8079.714973081037 46.0,8050.844973081037 46.0,7993.1149730810375 96.0,7964.244973081037 96.0,7906.514973081037 46.0,7877.644973081037 46.0,7819.9049730810375 96.0,7791.044973081037 96.0,7733.304973081037 46.0,7704.434973081037 46.0,7646.704973081037 96.0,7617.834973081037 96.0,7560.104973081037 46.0,7531.234973081037 46.0,7473.494973081037 96.0,7444.634973081037 96.0,7386.894973081037 46.0,7358.024973081037 46.0,7300.294973081037 96.0,7271.424973081037 96.0,7213.6949730810375 46.0,7184.824973081038 46.0,7127.084973081037 96.0,7098.224973081037 96.0,7040.484973081037 46.0,7011.6149730810375 46.0,6953.884973081037 96.0,6925.014973081037 96.0,6867.284973081038 46.0,6838.414973081037 46.0,6780.674973081037 96.0,6751.814973081037 96.0,6694.074973081038 46.0,6665.204973081037 46.0,6607.474973081037 96.0,6578.604973081037 96.0,6520.874973081037 46.0,6492.004973081037 46.0,6434.264973081037 96.0,6405.4049730810375 96.0,6347.664973081037 46.0,6318.794973081037 46.0,6261.064973081037 96.0,6232.1949730810375 96.0,6174.464973081037 46.0,6145.594973081037 46.0,6087.854973081037 96.0,6058.994973081037 96.0,6001.254973081037 46.0,5972.384973081037 46.0,5914.6549730810375 96.0,5885.784973081038 96.0,5828.054973081037 46.0,5799.184973081037 46.0,5741.4449730810375 96.0,5712.584973081037 96.0,5654.844973081037 46.0,5625.974973081037 46.0,5568.244973081037 96.0,5539.374973081037 96.0,5481.644973081037 46.0,5452.774973081037 46.0,5395.034973081038 96.0,5366.174973081037 96.0,5308.434973081037 46.0,5279.564973081037 46.0,5221.834973081037 96.0,5192.964973081037 96.0,5135.234973081037 46.0,5106.3649730810375 46.0,5048.624973081037 96.0,5019.764973081037 96.0,4962.024973081037 46.0,4933.1549730810375 46.0,4875.424973081037 96.0,4846.554973081037 96.0,4788.824973081038 46.0,4759.954973081037 46.0,4702.214973081037 96.0,4673.354973081037 96.0,4615.6149730810375 46.0,4586.744973081037 46.0,4529.014973081037 96.0,4500.144973081037 96.0,4442.414973081037 46.0,4413.544973081037 46.0,4355.804973081037 96.0,4326.9449730810375 96.0,4269.204973081037 46.0,4240.334973081037 46.0,4182.604973081037 96.0,4153.734973081037 96.0,4096.004973081037 46.0,4067.1349730810375 46.0,4009.3949730810377 96.0,3980.524973081038 96.0,3922.794973081038 46.0,3893.9249730810375 46.0,3836.1949730810375 96.0,3807.3249730810376 96.0,3749.584973081038 46.0,3720.7249730810377 46.0,3662.9849730810374 96.0,3634.1149730810375 96.0,3576.3849730810375 46.0,3547.5149730810376 46.0,3489.7849730810376 96.0,3460.9149730810377 96.0,3403.1749730810375 46.0,3374.314973081038 46.0,3316.5749730810376 96.0,3287.7049730810377 96.0,3229.9749730810377 46.0,3201.1049730810378 46.0,3143.3749730810378 96.0,3114.5049730810374 96.0,3056.7649730810376 46.0,3027.9049730810375 46.0,2970.1649730810377 96.0,2941.294973081038 96.0,2883.564973081038 46.0,2854.6949730810375 46.0,2796.9649730810374 96.0,2768.0949730810376 96.0,2710.3549730810378 46.0,2681.4949730810376 46.0,2623.7549730810374 96.0,2594.8849730810375 96.0,2537.1549730810375 46.0,2508.2849730810376 46.0,2450.5549730810376 96.0,2421.6849730810377 96.0,2363.9449730810375 46.0,2335.084973081038 46.0,2277.3449730810376 96.0,2248.4749730810377 96.0,2190.7449730810376 46.0,2161.8749730810378 46.0,2104.1449730810377 96.0,2075.274973081038 96.0,2017.5349730810374 46.0,1988.6749730810375 46.0,1930.9349730810375 96.0,1902.0649730810374 96.0,1844.3349730810373 46.0,1815.4649730810374 46.0,1757.7349730810374 96.0,1728.8649730810373 96.0,1671.1249730810373 46.0,1642.2649730810374 46.0,1584.5249730810374 96.0,1555.6549730810375 96.0,1497.9249730810375 46.0,1469.0549730810374 46.0,1411.3249730810373 96.0,1382.4549730810375 96.0,1324.7149730810374 46.0,1295.8549730810373 46.0,1238.1149730810373 96.0,1209.2449730810374 96.0,1151.5149730810374 46.0,1122.6449730810375 46.0,1064.9149730810375 96.0,1036.0449730810374 96.0,978.3049730810374 46.0,949.4449730810373 46.0,891.7049730810375 96.0,862.8349730810374 96.0,805.1049730810374 46.0,776.2349730810374 46.0,718.5049730810374 96.0,689.6349730810374 96.0,631.8949730810374 46.0,603.0349730810374 46.0,545.2949730810374 96.0,516.4249730810374 96.0,458.69497308103735 46.0,429.8249730810374 46.0,372.0949730810374 96.0,343.2249730810374 96.0,285.4849730810374 46.0,256.6249730810374 46.0,198.88497308103743 96.0,170.01497308103743 96.0,112.28497308103744 46.0,83.41497308103743 46.0,25.68497308103742 96.0,-3.185026918962585 146.0,25.68497308103742 196.0,-3.185026918962585 246.0,25.68497308103742 296.0,-3.185026918962585 346.0,25.68497308103742 396.0,-3.185026918962585 446.0,25.68497308103742 496.0,-3.185026918962585 546.0,25.68497308103742 596.0,-3.185026918962585 646.0,25.68497308103742 696.0,-3.185026918962585 746.0,25.68497308103742 796.0,-3.185026918962585 846.0,25.68497308103742 896.0,-3.185026918962585 946.0,25.68497308103742 996.0,-3.185026918962585 1046.0,25.68497308103742 1096.0,-3.185026918962585 1146.0,25.68497308103742 1196.0,-3.185026918962585 1246.0,25.68497308103742 1296.0,-3.185026918962585 1346.0,25.68497308103742 1396.0,-3.185026918962585 1446.0,25.68497308103742 1496.0,-3.185026918962585 1546.0,25.68497308103742 1596.0,-3.185026918962585 1646.0,25.68497308103742 1696.0,-3.185026918962585 1746.0,25.68497308103742 1796.0,-3.185026918962585 1846.0,25.68497308103742 1896.0,-3.185026918962585 1946.0,25.68497308103742 1996.0,-3.185026918962585 2046.0,25.68497308103742 2096.0,-3.185026918962585 2146.0,25.68497308103742 2196.0,-3.185026918962585 2246.0,25.68497308103742 2296.0,-3.185026918962585 2346.0,25.68497308103742 2396.0,-3.185026918962585 2446.0,25.68497308103742 2496.0,-3.185026918962585 2546.0,25.68497308103742 2596.0,-3.185026918962585 2646.0,25.68497308103742 2696.0,-3.185026918962585 2746.0,25.68497308103742 2796.0,-3.185026918962585 2846.0,25.68497308103742 2896.0,-3.185026918962585 2946.0,25.68497308103742 2996.0,-3.185026918962585 3046.0,25.68497308103742 3096.0,-3.185026918962585 3146.0,25.68497308103742 3196.0,-3.185026918962585 3246.0,25.68497308103742 3296.0,-3.185026918962585 3346.0,25.68497308103742 3396.0,-3.185026918962585 3446.0,25.68497308103742 3496.0,-3.185026918962585 3546.0,25.68497308103742 3596.0,-3.185026918962585 3646.0,25.68497308103742 3696.0,-3.185026918962585 3746.0,25.68497308103742 3796.0,-3.185026918962585 3846.0,25.68497308103742 3896.0,-3.185026918962585 3946.0,25.68497308103742 3996.0,-3.185026918962585 4046.0,25.68497308103742 4096.0,-3.185026918962585 4146.0,25.68497308103742 4196.0,-3.185026918962585 4246.0,25.68497308103742 4296.0,-3.185026918962585 4346.0,25.68497308103742 4396.0,-3.185026918962585 4446.0,25.68497308103742 4496.0,-3.185026918962585 4546.0,25.68497308103742 4596.0,-3.185026918962585 4646.0,25.68497308103742 4696.0,-3.185026918962585 4746.0,25.68497308103742 4796.0,-3.185026918962585 4846.0,25.68497308103742 4896.0,-3.185026918962585 4946.0,25.68497308103742 4996.0,-3.185026918962585 5046.0,25.68497308103742 5096.0,-3.185026918962585 5146.0,25.68497308103742 5196.0,-3.185026918962585 5246.0,25.68497308103742 5296.0,-3.185026918962585 5346.0,25.68497308103742 5396.0,-3.185026918962585 5446.0,25.68497308103742 5496.0,-3.185026918962585 5546.0,25.68497308103742 5596.0,-3.185026918962585 5646.0,25.68497308103742 5696.0,-3.185026918962585 5746.0,25.68497308103742 5796.0,-3.185026918962585 5846.0,25.68497308103742 5896.0,-3.185026918962585 5946.0,25.68497308103742 5996.0,-3.185026918962585 6046.0,25.68497308103742 6096.0,-3.185026918962585 6146.0,25.68497308103742 6196.0,-3.185026918962585 6246.0,25.68497308103742 6296.0,-3.185026918962585 6346.0,25.68497308103742 6396.0,-3.185026918962585 6446.0,25.68497308103742 6496.0,-3.185026918962585 6546.0,25.68497308103742 6596.0,-3.185026918962585 6646.0,25.68497308103742 6696.0,-3.185026918962585 6746.0,25.68497308103742 6796.0,-3.185026918962585 6846.0,25.68497308103742 6896.0,-3.185026918962585 6946.0,25.68497308103742 6996.0,-3.185026918962585 7046.0,25.68497308103742 7096.0,-3.185026918962585 7146.0,25.68497308103742 7196.0,-3.185026918962585 7246.0,25.68497308103742 7296.0,-3.185026918962585 7346.0,25.68497308103742 7396.0,-3.185026918962585 7446.0,25.68497308103742 7496.0,-3.185026918962585 7546.0,25.68497308103742 7596.0,-3.185026918962585 7646.0,25.68497308103742 7696.0,-3.185026918962585 7746.0,25.68497308103742 7796.0,-3.185026918962585" /><polygon id="18351" points="5296.0,2248.4749730810377 5346.0,2277.3449730810376 5346.0,2335.084973081038 5296.0,2363.9449730810375 5296.0,2421.6849730810377 5346.0,2450.5549730810376 5346.0,2508.2849730810376 5396.0,2537.1549730810375 5446.0,2508.2849730810376 5496.0,2537.1549730810375 5546.0,2508.2849730810376 5596.0,2537.1549730810375 5596.0,2594.8849730810375 5646.0,2623.7549730810374 5696.0,2594.8849730810375 5696.0,2537.1549730810375 5746.0,2508.2849730810376 5746.0,2450.5549730810376 5796.0,2421.6849730810377 5796.0,2363.9449730810375 5846.0,2335.084973081038 5846.0,2277.3449730810376 5796.0,2248.4749730810377 5796.0,2190.7449730810376 5746.0,2161.8749730810378 5746.0,2104.1449730810377 5696.0,2075.274973081038 5646.0,2104.1449730810377 5646.0,2161.8749730810378 5596.0,2190.7449730810376 5546.0,2161.8749730810378 5496.0,2190.7449730810376 5446.0,2161.8749730810378 5396.0,2190.7449730810376 5346.0,2161.8749730810378 5296.0,2190.7449730810376" /><polygon id="18353" points="6246.0,4240.334973081037 6296.0,4269.204973081037 6296.0,4326.9449730810375 6346.0,4355.804973081037 6346.0,4413.544973081037 6396.0,4442.414973081037 6446.0,4413.544973081037 6496.0,4442.414973081037 6546.0,4413.544973081037 6596.0,4442.414973081037 6646.0,4413.544973081037 6646.0,4355.804973081037 6696.0,4326.9449730810375 6746.0,4355.804973081037 6796.0,4326.9449730810375 6796.0,4269.204973081037 6746.0,4240.334973081037 6746.0,4182.604973081037 6796.0,4153.734973081037 6796.0,4096.004973081037 6746.0,4067.1349730810375 6696.0,4096.004973081037 6646.0,4067.1349730810375 6646.0,4009.3949730810377 6596.0,3980.524973081038 6546.0,4009.3949730810377 6496.0,3980.524973081038 6446.0,4009.3949730810377 6396.0,3980.524973081038 6346.0,4009.3949730810377 6346.0,4067.1349730810375 6296.0,4096.004973081037 6296.0,4153.734973081037 6246.0,4182.604973081037" /><polygon id="18356" points="2146.0,6145.594973081037 2146.0,6087.854973081037 2196.0,6058.994973081037 2196.0,6001.254973081037 2246.0,5972.384973081037 2246.0,5914.6549730810375 2296.0,5885.784973081038 2346.0,5914.6549730810375 2396.0,5885.784973081038 2396.0,5828.054973081037 2446.0,5799.184973081037 2496.0,5828.054973081037 2546.0,5799.184973081037 2596.0,5828.054973081037 2596.0,5885.784973081038 2546.0,5914.6549730810375 2546.0,5972.384973081037 2596.0,6001.254973081037 2596.0,6058.994973081037 2646.0,6087.854973081037 2646.0,6145.594973081037 2696.0,6174.464973081037 2696.0,6232.1949730810375 2646.0,6261.064973081037 2596.0,6232.1949730810375 2546.0,6261.064973081037 2496.0,6232.1949730810375 2446.0,6261.064973081037 2396.0,6232.1949730810375 2346.0,6261.064973081037 2296.0,6232.1949730810375 2296.0,6174.464973081037 2246.0,6145.594973081037 2196.0,6174.464973081037" /><polygon id="18359" points="3096.0,2017.5349730810374 3146.0,1988.6749730810375 3146.0,1930.9349730810375 3196.0,1902.0649730810374 3196.0,1844.3349730810373 3246.0,1815.4649730810374 3246.0,1757.7349730810374 3296.0,1728.8649730810373 3346.0,1757.7349730810374 3396.0,1728.8649730810373 3446.0,1757.7349730810374 3496.0,1728.8649730810373 3496.0,1671.1249730810373 3546.0,1642.2649730810374 3596.0,1671.1249730810373 3596.0,1728.8649730810373 3646.0,1757.7349730810374 3696.0,1728.8649730810373 3746.0,1757.7349730810374 3746.0,1815.4649730810374 3696.0,1844.3349730810373 3696.0,1902.0649730810374 3646.0,1930.9349730810375 3596.0,1902.0649730810374 3546.0,1930.9349730810375 3546.0,1988.6749730810375 3496.0,2017.5349730810374 3496.0,2075.274973081038 3446.0,2104.1449730810377 3446.0,2161.8749730810378 3396.0,2190.7449730810376 3346.0,2161.8749730810378 3296.0,2190.7449730810376 3296.0,2248.4749730810377 3246.0,2277.3449730810376 3196.0,2248.4749730810377 3196.0,2190.7449730810376 3146.0,2161.8749730810378 3096.0,2190.7449730810376 3046.0,2161.8749730810378 3046.0,2104.1449730810377 3096.0,2075.274973081038" /><polygon id="18360" points="3996.0,5366.174973081037 4046.0,5395.034973081038 4096.0,5366.174973081037 4146.0,5395.034973081038 4196.0,5366.174973081037 4246.0,5395.034973081038 4296.0,5366.174973081037 4296.0,5308.434973081037 4346.0,5279.564973081037 4396.0,5308.434973081037 4396.0,5366.174973081037 4446.0,5395.034973081038 4496.0,5366.174973081037 4546.0,5395.034973081038 4546.0,5452.774973081037 4596.0,5481.644973081037 4596.0,5539.374973081037 4546.0,5568.244973081037 4546.0,5625.974973081037 4496.0,5654.844973081037 4496.0,5712.584973081037 4446.0,5741.4449730810375 4446.0,5799.184973081037 4396.0,5828.054973081037 4396.0,5885.784973081038 4346.0,5914.6549730810375 4296.0,5885.784973081038 4246.0,5914.6549730810375 4196.0,5885.784973081038 4196.0,5828.054973081037 4146.0,5799.184973081037 4146.0,5741.4449730810375 4096.0,5712.584973081037 4096.0,5654.844973081037 4046.0,5625.974973081037 4046.0,5568.244973081037 3996.0,5539.374973081037 3996.0,5481.644973081037 3946.0,5452.774973081037 3896.0,5481.644973081037 3846.0,5452.774973081037 3846.0,5395.034973081038 3896.0,5366.174973081037 3946.0,5395.034973081038" /><polygon id="18361" points="2846.0,5452.774973081037 2896.0,5481.644973081037 2896.0,5539.374973081037 2946.0,5568.244973081037 2946.0,5625.974973081037 2996.0,5654.844973081037 3046.0,5625.974973081037 3096.0,5654.844973081037 3146.0,5625.974973081037 3196.0,5654.844973081037 3246.0,5625.974973081037 3246.0,5568.244973081037 3296.0,5539.374973081037 3296.0,5481.644973081037 3346.0,5452.774973081037 3396.0,5481.644973081037 3446.0,5452.774973081037 3496.0,5481.644973081037 3546.0,5452.774973081037 3546.0,5395.034973081038 3496.0,5366.174973081037 3446.0,5395.034973081038 3396.0,5366.174973081037 3346.0,5395.034973081038 3296.0,5366.174973081037 3296.0,5308.434973081037 3246.0,5279.564973081037 3196.0,5308.434973081037 3146.0,5279.564973081037 3096.0,5308.434973081037 3046.0,5279.564973081037 3046.0,5221.834973081037 2996.0,5192.964973081037 2996.0,5135.234973081037 2946.0,5106.3649730810375 2896.0,5135.234973081037 2896.0,5192.964973081037 2846.0,5221.834973081037 2796.0,5192.964973081037 2746.0,5221.834973081037 2746.0,5279.564973081037 2696.0,5308.434973081037 2696.0,5366.174973081037 2746.0,5395.034973081038 2796.0,5366.174973081037 2846.0,5395.034973081038" /><polygon id="18362" points="3546.0,4702.214973081037 3596.0,4673.354973081037 3646.0,4702.214973081037 3696.0,4673.354973081037 3746.0,4702.214973081037 3746.0,4759.954973081037 3796.0,4788.824973081038 3796.0,4846.554973081037 3746.0,4875.424973081037 3746.0,4933.1549730810375 3696.0,4962.024973081037 3696.0,5019.764973081037 3646.0,5048.624973081037 3646.0,5106.3649730810375 3596.0,5135.234973081037 3546.0,5106.3649730810375 3546.0,5048.624973081037 3496.0,5019.764973081037 3496.0,4962.024973081037 3446.0,4933.1549730810375 3396.0,4962.024973081037 3346.0,4933.1549730810375 3346.0,4875.424973081037 3296.0,4846.554973081037 3296.0,4788.824973081038 3346.0,4759.954973081037 3346.0,4702.214973081037 3396.0,4673.354973081037 3446.0,4702.214973081037 3496.0,4673.354973081037" /><polygon id="18363" points="2896.0,3922.794973081038 2946.0,3893.9249730810375 2946.0,3836.1949730810375 2996.0,3807.3249730810376 2996.0,3749.584973081038 2946.0,3720.7249730810377 2946.0,3662.9849730810374 2896.0,3634.1149730810375 2896.0,3576.3849730810375 2946.0,3547.5149730810376 2996.0,3576.3849730810375 2996.0,3634.1149730810375 3046.0,3662.9849730810374 3046.0,3720.7249730810377 3096.0,3749.584973081038 3096.0,3807.3249730810376 3146.0,3836.1949730810375 3196.0,3807.3249730810376 3246.0,3836.1949730810375 3246.0,3893.9249730810375 3296.0,3922.794973081038 3296.0,3980.524973081038 3346.0,4009.3949730810377 3346.0,4067.1349730810375 3296.0,4096.004973081037 3296.0,4153.734973081037 3246.0,4182.604973081037 3196.0,4153.734973081037 3146.0,4182.604973081037 3096.0,4153.734973081037 3096.0,4096.004973081037 3046.0,4067.1349730810375 2996.0,4096.004973081037 2946.0,4067.1349730810375 2946.0,4009.3949730810377 2896.0,3980.524973081038" /><polygon id="18364" points="1946.0,4182.604973081037 1996.0,4153.734973081037 2046.0,4182.604973081037 2096.0,4153.734973081037 2146.0,4182.604973081037 2196.0,4153.734973081037 2246.0,4182.604973081037 2296.0,4153.734973081037 2346.0,4182.604973081037 2346.0,4240.334973081037 2396.0,4269.204973081037 2446.0,4240.334973081037 2446.0,4182.604973081037 2396.0,4153.734973081037 2396.0,4096.004973081037 2346.0,4067.1349730810375 2296.0,4096.004973081037 2246.0,4067.1349730810375 2246.0,4009.3949730810377 2196.0,3980.524973081038 2196.0,3922.794973081038 2246.0,3893.9249730810375 2246.0,3836.1949730810375 2296.0,3807.3249730810376 2346.0,3836.1949730810375 2396.0,3807.3249730810376 2396.0,3749.584973081038 2446.0,3720.7249730810377 2496.0,3749.584973081038 2546.0,3720.7249730810377 2546.0,3662.9849730810374 2596.0,3634.1149730810375 2646.0,3662.9849730810374 2696.0,3634.1149730810375 2696.0,3576.3849730810375 2646.0,3547.5149730810376 2596.0,3576.3849730810375 2546.0,3547.5149730810376 2496.0,3576.3849730810375 2496.0,3634.1149730810375 2446.0,3662.9849730810374 2396.0,3634.1149730810375 2346.0,3662.9849730810374 2346.0,3720.7249730810377 2296.0,3749.584973081038 2246.0,3720.7249730810377 2196.0,3749.584973081038 2196.0,3807.3249730810376 2146.0,3836.1949730810375 2096.0,3807.3249730810376 2046.0,3836.1949730810375 1996.0,3807.3249730810376 1996.0,3749.584973081038 1946.0,3720.7249730810377 1946.0,3662.9849730810374 1896.0,3634.1149730810375 1896.0,3576.3849730810375 1846.0,3547.5149730810376 1796.0,3576.3849730810375 1796.0,3634.1149730810375 1846.0,3662.9849730810374 1846.0,3720.7249730810377 1796.0,3749.584973081038 1796.0,3807.3249730810376 1746.0,3836.1949730810375 1746.0,3893.9249730810375 1696.0,3922.794973081038 1696.0,3980.524973081038 1746.0,4009.3949730810377 1746.0,4067.1349730810375 1696.0,4096.004973081037 1696.0,4153.734973081037 1746.0,4182.604973081037 1746.0,4240.334973081037 1796.0,4269.204973081037 1846.0,4240.334973081037 1846.0,4182.604973081037 1896.0,4153.734973081037" /><polygon id="18365" points="3246.0,2796.9649730810374 3196.0,2768.0949730810376 3196.0,2710.3549730810378 3246.0,2681.4949730810376 3246.0,2623.7549730810374 3296.0,2594.8849730810375 3346.0,2623.7549730810374 3346.0,2681.4949730810376 3396.0,2710.3549730810378 3446.0,2681.4949730810376 3496.0,2710.3549730810378 3496.0,2768.0949730810376 3546.0,2796.9649730810374 3596.0,2768.0949730810376 3646.0,2796.9649730810374 3696.0,2768.0949730810376 3746.0,2796.9649730810374 3746.0,2854.6949730810375 3696.0,2883.564973081038 3696.0,2941.294973081038 3646.0,2970.1649730810377 3646.0,3027.9049730810375 3596.0,3056.7649730810376 3546.0,3027.9049730810375 3496.0,3056.7649730810376 3496.0,3114.5049730810374 3446.0,3143.3749730810378 3396.0,3114.5049730810374 3346.0,3143.3749730810378 3346.0,3201.1049730810378 3296.0,3229.9749730810377 3246.0,3201.1049730810378 3196.0,3229.9749730810377 3196.0,3287.7049730810377 3146.0,3316.5749730810376 3096.0,3287.7049730810377 3046.0,3316.5749730810376 3046.0,3374.314973081038 2996.0,3403.1749730810375 2946.0,3374.314973081038 2946.0,3316.5749730810376 2996.0,3287.7049730810377 2996.0,3229.9749730810377 3046.0,3201.1049730810378 3096.0,3229.9749730810377 3146.0,3201.1049730810378 3146.0,3143.3749730810378 3196.0,3114.5049730810374 3246.0,3143.3749730810378 3296.0,3114.5049730810374 3296.0,3056.7649730810376 3246.0,3027.9049730810375 3246.0,2970.1649730810377 3296.0,2941.294973081038 3296.0,2883.564973081038 3246.0,2854.6949730810375" /><polygon id="18366" points="5246.0,3374.314973081038 5196.0,3403.1749730810375 5196.0,3460.9149730810377 5246.0,3489.7849730810376 5246.0,3547.5149730810376 5296.0,3576.3849730810375 5296.0,3634.1149730810375 5246.0,3662.9849730810374 5196.0,3634.1149730810375 5196.0,3576.3849730810375 5146.0,3547.5149730810376 5146.0,3489.7849730810376 5096.0,3460.9149730810377 5046.0,3489.7849730810376 4996.0,3460.9149730810377 4946.0,3489.7849730810376 4896.0,3460.9149730810377 4896.0,3403.1749730810375 4946.0,3374.314973081038 4946.0,3316.5749730810376 4996.0,3287.7049730810377 4996.0,3229.9749730810377 4946.0,3201.1049730810378 4946.0,3143.3749730810378 4996.0,3114.5049730810374 5046.0,3143.3749730810378 5096.0,3114.5049730810374 5146.0,3143.3749730810378 5196.0,3114.5049730810374 5246.0,3143.3749730810378 5296.0,3114.5049730810374 5346.0,3143.3749730810378 5346.0,3201.1049730810378 5296.0,3229.9749730810377 5296.0,3287.7049730810377 5246.0,3316.5749730810376" /><polygon id="18367" points="5946.0,3720.7249730810377 5896.0,3749.584973081038 5896.0,3807.3249730810376 5946.0,3836.1949730810375 5946.0,3893.9249730810375 5896.0,3922.794973081038 5896.0,3980.524973081038 5946.0,4009.3949730810377 5946.0,4067.1349730810375 5996.0,4096.004973081037 5996.0,4153.734973081037 5946.0,4182.604973081037 5896.0,4153.734973081037 5896.0,4096.004973081037 5846.0,4067.1349730810375 5846.0,4009.3949730810377 5796.0,3980.524973081038 5796.0,3922.794973081038 5746.0,3893.9249730810375 5696.0,3922.794973081038 5646.0,3893.9249730810375 5646.0,3836.1949730810375 5596.0,3807.3249730810376 5546.0,3836.1949730810375 5496.0,3807.3249730810376 5496.0,3749.584973081038 5546.0,3720.7249730810377 5596.0,3749.584973081038 5646.0,3720.7249730810377 5646.0,3662.9849730810374 5696.0,3634.1149730810375 5746.0,3662.9849730810374 5796.0,3634.1149730810375 5846.0,3662.9849730810374 5896.0,3634.1149730810375 5946.0,3662.9849730810374 5996.0,3634.1149730810375 6046.0,3662.9849730810374 6046.0,3720.7249730810377 5996.0,3749.584973081038" /><polygon id="18368" points="4946.0,3893.9249730810375 4996.0,3922.794973081038 5046.0,3893.9249730810375 5046.0,3836.1949730810375 5096.0,3807.3249730810376 5146.0,3836.1949730810375 5146.0,3893.9249730810375 5096.0,3922.794973081038 5096.0,3980.524973081038 5046.0,4009.3949730810377 4996.0,3980.524973081038 4946.0,4009.3949730810377 4946.0,4067.1349730810375 4996.0,4096.004973081037 4996.0,4153.734973081037 4946.0,4182.604973081037 4896.0,4153.734973081037 4846.0,4182.604973081037 4846.0,4240.334973081037 4796.0,4269.204973081037 4796.0,4326.9449730810375 4746.0,4355.804973081037 4696.0,4326.9449730810375 4646.0,4355.804973081037 4596.0,4326.9449730810375 4596.0,4269.204973081037 4546.0,4240.334973081037 4546.0,4182.604973081037 4496.0,4153.734973081037 4496.0,4096.004973081037 4546.0,4067.1349730810375 4546.0,4009.3949730810377 4596.0,3980.524973081038 4596.0,3922.794973081038 4646.0,3893.9249730810375 4696.0,3922.794973081038 4746.0,3893.9249730810375 4796.0,3922.794973081038 4846.0,3893.9249730810375 4896.0,3922.794973081038" /><polygon id="18369" points="4346.0,4413.544973081037 4346.0,4355.804973081037 4296.0,4326.9449730810375 4246.0,4355.804973081037 4196.0,4326.9449730810375 4196.0,4269.204973081037 4146.0,4240.334973081037 4146.0,4182.604973081037 4096.0,4153.734973081037 4096.0,4096.004973081037 4146.0,4067.1349730810375 4196.0,4096.004973081037 4246.0,4067.1349730810375 4296.0,4096.004973081037 4346.0,4067.1349730810375 4396.0,4096.004973081037 4446.0,4067.1349730810375 4496.0,4096.004973081037 4496.0,4153.734973081037 4546.0,4182.604973081037 4546.0,4240.334973081037 4596.0,4269.204973081037 4596.0,4326.9449730810375 4546.0,4355.804973081037 4546.0,4413.544973081037 4496.0,4442.414973081037 4446.0,4413.544973081037 4396.0,4442.414973081037" /><polygon id="18370" points="2996.0,2421.6849730810377 2996.0,2363.9449730810375 3046.0,2335.084973081038 3046.0,2277.3449730810376 2996.0,2248.4749730810377 2946.0,2277.3449730810376 2896.0,2248.4749730810377 2846.0,2277.3449730810376 2796.0,2248.4749730810377 2746.0,2277.3449730810376 2696.0,2248.4749730810377 2646.0,2277.3449730810376 2596.0,2248.4749730810377 2546.0,2277.3449730810376 2546.0,2335.084973081038 2596.0,2363.9449730810375 2596.0,2421.6849730810377 2546.0,2450.5549730810376 2546.0,2508.2849730810376 2596.0,2537.1549730810375 2596.0,2594.8849730810375 2646.0,2623.7549730810374 2646.0,2681.4949730810376 2696.0,2710.3549730810378 2696.0,2768.0949730810376 2746.0,2796.9649730810374 2796.0,2768.0949730810376 2796.0,2710.3549730810378 2846.0,2681.4949730810376 2896.0,2710.3549730810378 2946.0,2681.4949730810376 2946.0,2623.7549730810374 2996.0,2594.8849730810375 2996.0,2537.1549730810375 3046.0,2508.2849730810376 3046.0,2450.5549730810376" /><polygon id="18375" points="1646.0,5395.034973081038 1696.0,5366.174973081037 1696.0,5308.434973081037 1746.0,5279.564973081037 1796.0,5308.434973081037 1846.0,5279.564973081037 1896.0,5308.434973081037 1946.0,5279.564973081037 1946.0,5221.834973081037 1896.0,5192.964973081037 1896.0,5135.234973081037 1846.0,5106.3649730810375 1796.0,5135.234973081037 1746.0,5106.3649730810375 1696.0,5135.234973081037 1646.0,5106.3649730810375 1596.0,5135.234973081037 1546.0,5106.3649730810375 1496.0,5135.234973081037 1496.0,5192.964973081037 1446.0,5221.834973081037 1396.0,5192.964973081037 1346.0,5221.834973081037 1296.0,5192.964973081037 1246.0,5221.834973081037 1246.0,5279.564973081037 1296.0,5308.434973081037 1296.0,5366.174973081037 1346.0,5395.034973081038 1346.0,5452.774973081037 1396.0,5481.644973081037 1446.0,5452.774973081037 1446.0,5395.034973081038 1496.0,5366.174973081037 1546.0,5395.034973081038 1596.0,5366.174973081037" /><polygon id="18376" points="5896.0,6347.664973081037 5846.0,6318.794973081037 5796.0,6347.664973081037 5746.0,6318.794973081037 5746.0,6261.064973081037 5696.0,6232.1949730810375 5696.0,6174.464973081037 5746.0,6145.594973081037 5796.0,6174.464973081037 5846.0,6145.594973081037 5896.0,6174.464973081037 5946.0,6145.594973081037 5996.0,6174.464973081037 6046.0,6145.594973081037 6096.0,6174.464973081037 6146.0,6145.594973081037 6196.0,6174.464973081037 6246.0,6145.594973081037 6296.0,6174.464973081037 6296.0,6232.1949730810375 6346.0,6261.064973081037 6346.0,6318.794973081037 6396.0,6347.664973081037 6446.0,6318.794973081037 6496.0,6347.664973081037 6496.0,6405.4049730810375 6546.0,6434.264973081037 6546.0,6492.004973081037 6496.0,6520.874973081037 6496.0,6578.604973081037 6446.0,6607.474973081037 6396.0,6578.604973081037 6346.0,6607.474973081037 6296.0,6578.604973081037 6246.0,6607.474973081037 6246.0,6665.204973081037 6196.0,6694.074973081038 6146.0,6665.204973081037 6096.0,6694.074973081038 6046.0,6665.204973081037 6046.0,6607.474973081037 5996.0,6578.604973081037 5996.0,6520.874973081037 5946.0,6492.004973081037 5946.0,6434.264973081037 5896.0,6405.4049730810375" /></svg>