<svg viewBox="0 0 8192 8192"><polygon id="18279" points="4646.143,3143.125 4646.143,3200.875 4596.13,3229.75 4596.13,3287.5 4646.143,3316.375 4646.143,3374.125 4696.156,3403.0 4746.169,3374.125 4796.182,3403.0 4846.195,3374.125 4896.207,3403.0 4946.22,3374.125 4946.22,3316.375 4996.233,3287.5 4996.233,3229.75 4946.22,3200.875 4946.22,3143.125 4896.207,3114.25 4846.195,3143.125 4796.182,3114.25 4746.169,3143.125 4696.156,3114.25" /><polygon id="18270" points="2195.507,4962.25 2195.507,5020.0 2145.494,5048.875 2145.494,5106.625 2095.481,5135.5 2095.481,5193.25 2045.468,5222.125 1995.455,5193.25 1945.442,5222.125 1895.429,5193.25 1895.429,5135.5 1845.416,5106.625 1845.416,5048.875 1795.404,5020.0 1795.404,4962.25 1745.391,4933.375 1745.391,4875.625 1695.378,4846.75 1695.378,4789.0 1645.365,4760.125 1645.365,4702.375 1695.378,4673.5 1695.378,4615.75 1745.391,4586.875 1745.391,4529.125 1795.404,4500.25 1795.404,4442.5 1845.416,4413.625 1895.429,4442.5 1945.442,4413.625 1995.455,4442.5 1995.455,4500.25 2045.468,4529.125 2095.481,4500.25 2145.494,4529.125 2145.494,4586.875 2195.507,4615.75 2195.507,4673.5 2145.494,4702.375 2145.494,4760.125 2195.507,4789.0 2195.507,4846.75 2145.494,4875.625 2145.494,4933.375" /><polygon id="18309" points="3795.922,5308.75 3795.922,5366.5 3845.935,5395.375 3895.948,5366.5 3945.961,5395.375 3995.974,5366.5 3995.974,5308.75 4045.987,5279.875 4096.0,5308.75 4146.013,5279.875 4146.013,5222.125 4196.026,5193.25 4246.039,5222.125 4296.052,5193.25 4346.065,5222.125 4346.065,5279.875 4296.052,5308.75 4246.039,5279.875 4196.026,5308.75 4196.026,5366.5 4146.013,5395.375 4096.0,5366.5 4045.987,5395.375 4045.987,5453.125 3995.974,5482.0 3945.961,5453.125 3895.948,5482.0 3845.935,5453.125 3795.922,5482.0 3795.922,5539.75 3745.909,5568.625 3745.909,5626.375 3695.896,5655.25 3695.896,5713.0 3745.909,5741.875 3745.909,5799.625 3695.896,5828.5 3695.896,5886.25 3645.883,5915.125 3595.87,5886.25 3595.87,5828.5 3645.883,5799.625 3645.883,5741.875 3595.87,5713.0 3595.87,5655.25 3645.883,5626.375 3645.883,5568.625 3595.87,5539.75 3595.87,5482.0 3545.857,5453.125 3545.857,5395.375 3595.87,5366.5 3595.87,5308.75 3545.857,5279.875 3545.857,5222.125 3495.844,5193.25 3445.831,5222.125 3395.818,5193.25 3395.818,5135.5 3345.805,5106.625 3295.793,5135.5 3245.78,5106.625 3245.78,5048.875 3195.767,5020.0 3195.767,4962.25 3245.78,4933.375 3295.793,4962.25 3295.793,5020.0 3345.805,5048.875 3395.818,5020.0 3445.831,5048.875 3445.831,5106.625 3495.844,5135.5 3545.857,5106.625 3595.87,5135.5 3595.87,5193.25 3645.883,5222.125 3645.883,5279.875 3695.896,5308.75 3745.909,5279.875" /><polygon id="18303" points="4196.026,1208.5 4246.039,1237.375 4246.039,1295.125 4196.026,1324.0 4196.026,1381.75 4146.013,1410.625 4146.013,1468.375 4196.026,1497.25 4196.026,1555.0 4246.039,1583.875 4296.052,1555.0 4346.065,1583.875 4396.078,1555.0 4446.091,1583.875 4496.104,1555.0 4546.117,1583.875 4596.13,1555.0 4646.143,1583.875 4696.156,1555.0 4696.156,1497.25 4746.169,1468.375 4796.182,1497.25 4846.195,1468.375 4846.195,1410.625 4896.207,1381.75 4896.207,1324.0 4846.195,1295.125 4846.195,1237.375 4796.182,1208.5 4796.182,1150.75 4846.195,1121.875 4846.195,1064.125 4896.207,1035.25 4896.207,977.5 4846.195,948.625 4846.195,890.875 4796.182,862.0 4796.182,804.25 4746.169,775.375 4696.156,804.25 4646.143,775.375 4596.13,804.25 4546.117,775.375 4496.104,804.25 4446.091,775.375 4396.078,804.25 4346.065,775.375 4296.052,804.25 4246.039,775.375 4196.026,804.25 4196.026,862.0 4146.013,890.875 4146.013,948.625 4096.0,977.5 4096.0,1035.25 4146.013,1064.125 4146.013,1121.875 4196.026,1150.75" /><polygon id="18291" points="5796.441,4846.75 5796.441,4789.0 5746.428,4760.125 5746.428,4702.375 5796.441,4673.5 5796.441,4615.75 5846.454,4586.875 5846.454,4529.125 5796.441,4500.25 5796.441,4442.5 5846.454,4413.625 5846.454,4355.875 5896.467,4327.0 5896.467,4269.25 5946.48,4240.375 5946.48,4182.625 5996.493,4153.75 6046.506,4182.625 6096.519,4153.75 6146.532,4182.625 6196.545,4153.75 6246.558,4182.625 6246.558,4240.375 6296.571,4269.25 6296.571,4327.0 6346.584,4355.875 6346.584,4413.625 6396.596,4442.5 6396.596,4500.25 6446.609,4529.125 6446.609,4586.875 6396.596,4615.75 6396.596,4673.5 6346.584,4702.375 6346.584,4760.125 6296.571,4789.0 6296.571,4846.75 6246.558,4875.625 6246.558,4933.375 6196.545,4962.25 6146.532,4933.375 6096.519,4962.25 6046.506,4933.375 6046.506,4875.625 5996.493,4846.75 5946.48,4875.625 5896.467,4846.75 5846.454,4875.625" /><polygon id="18329" points="4896.207,2421.25 4896.207,2363.5 4846.195,2334.625 4846.195,2276.875 4896.207,2248.0 4896.207,2190.25 4946.22,2161.375 4996.233,2190.25 5046.246,2161.375 5096.259,2190.25 5146.272,2161.375 5196.285,2190.25 5246.298,2161.375 5296.311,2190.25 5296.311,2248.0 5346.324,2276.875 5346.324,2334.625 5296.311,2363.5 5296.311,2421.25 5246.298,2450.125 5196.285,2421.25 5146.272,2450.125 5096.259,2421.25 5046.246,2450.125 4996.233,2421.25 4946.22,2450.125" /><polygon id="18280" points="4146.013,2507.875 4196.026,2536.75 4246.039,2507.875 4246.039,2450.125 4296.052,2421.25 4346.065,2450.125 4396.078,2421.25 4396.078,2363.5 4446.091,2334.625 4496.104,2363.5 4546.117,2334.625 4596.13,2363.5 4646.143,2334.625 4696.156,2363.5 4696.156,2421.25 4746.169,2450.125 4746.169,2507.875 4696.156,2536.75 4696.156,2594.5 4646.143,2623.375 4646.143,2681.125 4596.13,2710.0 4596.13,2767.75 4546.117,2796.625 4496.104,2767.75 4446.091,2796.625 4396.078,2767.75 4346.065,2796.625 4296.052,2767.75 4246.039,2796.625 4196.026,2767.75 4146.013,2796.625 4096.0,2767.75 4096.0,2710.0 4045.987,2681.125 4045.987,2623.375 4096.0,2594.5 4096.0,2536.75" /><polygon id="18278" points="4146.013,2334.625 4146.013,2276.875 4196.026,2248.0 4196.026,2190.25 4146.013,2161.375 4096.0,2190.25 4045.987,2161.375 3995.974,2190.25 3995.974,2248.0 3945.961,2276.875 3945.961,2334.625 3895.948,2363.5 3895.948,2421.25 3845.935,2450.125 3845.935,2507.875 3795.922,2536.75 3795.922,2594.5 3745.909,2623.375 3745.909,2681.125 3795.922,2710.0 3795.922,2767.75 3845.935,2796.625 3895.948,2767.75 3945.961,2796.625 3995.974,2767.75 4045.987,2796.625 4096.0,2767.75 4096.0,2710.0 4045.987,2681.125 4045.987,2623.375 4096.0,2594.5 4096.0,2536.75 4146.013,2507.875 4196.026,2536.75 4246.039,2507.875 4246.039,2450.125 4196.026,2421.25 4196.026,2363.5" /><polygon id="18331" points="5496.363,5655.25 5546.376,5626.375 5596.389,5655.25 5646.402,5626.375 5696.415,5655.25 5746.428,5626.375 5796.441,5655.25 5796.441,5713.0 5746.428,5741.875 5746.428,5799.625 5796.441,5828.5 5796.441,5886.25 5746.428,5915.125 5696.415,5886.25 5646.402,5915.125 5646.402,5972.875 5596.389,6001.75 5596.389,6059.5 5546.376,6088.375 5496.363,6059.5 5446.35,6088.375 5396.337,6059.5 5396.337,6001.75 5446.35,5972.875 5446.35,5915.125 5396.337,5886.25 5396.337,5828.5 5346.324,5799.625 5346.324,5741.875 5296.311,5713.0 5296.311,5655.25 5346.324,5626.375 5396.337,5655.25 5446.35,5626.375" /><polygon id="18292" points="5996.493,5135.5 6046.506,5106.625 6096.519,5135.5 6096.519,5193.25 6146.532,5222.125 6196.545,5193.25 6196.545,5135.5 6246.558,5106.625 6246.558,5048.875 6296.571,5020.0 6296.571,4962.25 6246.558,4933.375 6196.545,4962.25 6146.532,4933.375 6096.519,4962.25 6046.506,4933.375 6046.506,4875.625 5996.493,4846.75 5946.48,4875.625 5896.467,4846.75 5846.454,4875.625 5796.441,4846.75 5796.441,4789.0 5746.428,4760.125 5696.415,4789.0 5696.415,4846.75 5646.402,4875.625 5646.402,4933.375 5596.389,4962.25 5596.389,5020.0 5646.402,5048.875 5696.415,5020.0 5746.428,5048.875 5746.428,5106.625 5796.441,5135.5 5846.454,5106.625 5896.467,5135.5 5946.48,5106.625" /><polygon id="18273" points="4446.091,5395.375 4446.091,5453.125 4496.104,5482.0 4546.117,5453.125 4596.13,5482.0 4646.143,5453.125 4696.156,5482.0 4746.169,5453.125 4796.182,5482.0 4846.195,5453.125 4846.195,5395.375 4896.207,5366.5 4946.22,5395.375 4996.233,5366.5 4996.233,5308.75 5046.246,5279.875 5046.246,5222.125 4996.233,5193.25 4996.233,5135.5 4946.22,5106.625 4946.22,5048.875 4896.207,5020.0 4846.195,5048.875 4796.182,5020.0 4796.182,4962.25 4746.169,4933.375 4746.169,4875.625 4696.156,4846.75 4696.156,4789.0 4646.143,4760.125 4596.13,4789.0 4546.117,4760.125 4496.104,4789.0 4446.091,4760.125 4396.078,4789.0 4396.078,4846.75 4346.065,4875.625 4346.065,4933.375 4296.052,4962.25 4296.052,5020.0 4246.039,5048.875 4246.039,5106.625 4296.052,5135.5 4296.052,5193.25 4346.065,5222.125 4346.065,5279.875 4396.078,5308.75 4396.078,5366.5" /><polygon id="18272" points="5096.259,4962.25 5146.272,4933.375 5196.285,4962.25 5246.298,4933.375 5296.311,4962.25 5346.324,4933.375 5346.324,4875.625 5296.311,4846.75 5296.311,4789.0 5246.298,4760.125 5246.298,4702.375 5196.285,4673.5 5146.272,4702.375 5096.259,4673.5 5096.259,4615.75 5046.246,4586.875 4996.233,4615.75 4946.22,4586.875 4896.207,4615.75 4896.207,4673.5 4846.195,4702.375 4846.195,4760.125 4796.182,4789.0 4796.182,4846.75 4846.195,4875.625 4846.195,4933.375 4896.207,4962.25 4946.22,4933.375 4996.233,4962.25 5046.246,4933.375" /><polygon id="18271" points="4996.233,4327.0 4946.22,4355.875 4946.22,4413.625 4896.207,4442.5 4896.207,4500.25 4946.22,4529.125 4946.22,4586.875 4996.233,4615.75 5046.246,4586.875 5096.259,4615.75 5096.259,4673.5 5146.272,4702.375 5196.285,4673.5 5246.298,4702.375 5246.298,4760.125 5296.311,4789.0 5346.324,4760.125 5346.324,4702.375 5396.337,4673.5 5396.337,4615.75 5446.35,4586.875 5446.35,4529.125 5496.363,4500.25 5496.363,4442.5 5446.35,4413.625 5446.35,4355.875 5396.337,4327.0 5396.337,4269.25 5346.324,4240.375 5296.311,4269.25 5246.298,4240.375 5196.285,4269.25 5146.272,4240.375 5096.259,4269.25 5046.246,4240.375 4996.233,4269.25" /><polygon id="18346" points="3245.78,4586.875 3295.793,4615.75 3295.793,4673.5 3345.805,4702.375 3395.818,4673.5 3445.831,4702.375 3495.844,4673.5 3545.857,4702.375 3595.87,4673.5 3645.883,4702.375 3695.896,4673.5 3695.896,4615.75 3645.883,4586.875 3645.883,4529.125 3595.87,4500.25 3595.87,4442.5 3545.857,4413.625 3495.844,4442.5 3445.831,4413.625 3395.818,4442.5 3345.805,4413.625 3295.793,4442.5 3295.793,4500.25 3245.78,4529.125" /><polygon id="18263" points="3595.87,4442.5 3645.883,4413.625 3645.883,4355.875 3695.896,4327.0 3745.909,4355.875 3745.909,4413.625 3795.922,4442.5 3845.935,4413.625 3895.948,4442.5 3945.961,4413.625 3995.974,4442.5 4045.987,4413.625 4045.987,4355.875 4096.0,4327.0 4096.0,4269.25 4146.013,4240.375 4146.013,4182.625 4096.0,4153.75 4096.0,4096.0 4146.013,4067.125 4196.026,4096.0 4246.039,4067.125 4296.052,4096.0 4346.065,4067.125 4396.078,4096.0 4446.091,4067.125 4496.104,4096.0 4496.104,4153.75 4546.117,4182.625 4546.117,4240.375 4496.104,4269.25 4496.104,4327.0 4546.117,4355.875 4546.117,4413.625 4496.104,4442.5 4496.104,4500.25 4546.117,4529.125 4546.117,4586.875 4496.104,4615.75 4496.104,4673.5 4446.091,4702.375 4446.091,4760.125 4396.078,4789.0 4346.065,4760.125 4296.052,4789.0 4246.039,4760.125 4196.026,4789.0 4146.013,4760.125 4096.0,4789.0 4045.987,4760.125 3995.974,4789.0 3945.961,4760.125 3895.948,4789.0 3845.935,4760.125 3795.922,4789.0 3745.909,4760.125 3745.909,4702.375 3695.896,4673.5 3695.896,4615.75 3645.883,4586.875 3645.883,4529.125 3595.87,4500.25" /><polygon id="18305" points="6146.532,6781.375 6096.519,6752.5 6046.506,6781.375 5996.493,6752.5 5946.48,6781.375 5896.467,6752.5 5896.467,6694.75 5946.48,6665.875 5946.48,6608.125 5996.493,6579.25 6046.506,6608.125 6046.506,6665.875 6096.519,6694.75 6146.532,6665.875 6196.545,6694.75 6246.558,6665.875 6246.558,6608.125 6296.571,6579.25 6346.584,6608.125 6396.596,6579.25 6446.609,6608.125 6496.622,6579.25 6496.622,6521.5 6546.635,6492.625 6546.635,6434.875 6596.648,6406.0 6596.648,6348.25 6646.661,6319.375 6696.674,6348.25 6746.687,6319.375 6746.687,6261.625 6796.7,6232.75 6796.7,6175.0 6846.713,6146.125 6896.726,6175.0 6946.739,6146.125 6996.752,6175.0 7046.765,6146.125 7046.765,6088.375 7096.778,6059.5 7146.791,6088.375 7146.791,6146.125 7196.804,6175.0 7196.804,6232.75 7146.791,6261.625 7146.791,6319.375 7196.804,6348.25 7196.804,6406.0 7246.817,6434.875 7246.817,6492.625 7296.83,6521.5 7296.83,6579.25 7346.843,6608.125 7346.843,6665.875 7396.856,6694.75 7396.856,6752.5 7346.843,6781.375 7346.843,6839.125 7396.856,6868.0 7396.856,6925.75 7346.843,6954.625 7346.843,7012.375 7296.83,7041.25 7296.83,7099.0 7246.817,7127.875 7196.804,7099.0 7146.791,7127.875 7096.778,7099.0 7046.765,7127.875 6996.752,7099.0 6946.739,7127.875 6896.726,7099.0 6846.713,7127.875 6796.7,7099.0 6746.687,7127.875 6696.674,7099.0 6696.674,7041.25 6646.661,7012.375 6646.661,6954.625 6596.648,6925.75 6546.635,6954.625 6496.622,6925.75 6496.622,6868.0 6446.609,6839.125 6446.609,6781.375 6396.596,6752.5 6346.584,6781.375 6296.571,6752.5 6246.558,6781.375 6196.545,6752.5" /><polygon id="18290" points="6296.571,5482.0 6296.571,5539.75 6346.584,5568.625 6346.584,5626.375 6396.596,5655.25 6396.596,5713.0 6446.609,5741.875 6446.609,5799.625 6496.622,5828.5 6496.622,5886.25 6546.635,5915.125 6546.635,5972.875 6596.648,6001.75 6646.661,5972.875 6696.674,6001.75 6696.674,6059.5 6746.687,6088.375 6746.687,6146.125 6796.7,6175.0 6796.7,6232.75 6746.687,6261.625 6746.687,6319.375 6696.674,6348.25 6646.661,6319.375 6596.648,6348.25 6596.648,6406.0 6546.635,6434.875 6546.635,6492.625 6496.622,6521.5 6496.622,6579.25 6446.609,6608.125 6396.596,6579.25 6346.584,6608.125 6296.571,6579.25 6246.558,6608.125 6246.558,6665.875 6196.545,6694.75 6146.532,6665.875 6096.519,6694.75 6046.506,6665.875 6046.506,6608.125 5996.493,6579.25 5996.493,6521.5 5946.48,6492.625 5946.48,6434.875 5896.467,6406.0 5896.467,6348.25 5846.454,6319.375 5796.441,6348.25 5746.428,6319.375 5746.428,6261.625 5696.415,6232.75 5696.415,6175.0 5646.402,6146.125 5646.402,6088.375 5596.389,6059.5 5596.389,6001.75 5646.402,5972.875 5646.402,5915.125 5696.415,5886.25 5746.428,5915.125 5796.441,5886.25 5796.441,5828.5 5746.428,5799.625 5746.428,5741.875 5796.441,5713.0 5796.441,5655.25 5846.454,5626.375 5846.454,5568.625 5896.467,5539.75 5946.48,5568.625 5996.493,5539.75 6046.506,5568.625 6096.519,5539.75 6096.519,5482.0 6146.532,5453.125 6196.545,5482.0 6246.558,5453.125" /><polygon id="18289" points="5596.389,6752.5 5546.376,6781.375 5496.363,6752.5 5446.35,6781.375 5396.337,6752.5 5396.337,6694.75 5346.324,6665.875 5346.324,6608.125 5396.337,6579.25 5396.337,6521.5 5346.324,6492.625 5346.324,6434.875 5396.337,6406.0 5396.337,6348.25 5346.324,6319.375 5346.324,6261.625 5396.337,6232.75 5446.35,6261.625 5496.363,6232.75 5546.376,6261.625 5596.389,6232.75 5646.402,6261.625 5696.415,6232.75 5746.428,6261.625 5746.428,6319.375 5796.441,6348.25 5846.454,6319.375 5896.467,6348.25 5896.467,6406.0 5946.48,6434.875 5946.48,6492.625 5996.493,6521.5 5996.493,6579.25 5946.48,6608.125 5946.48,6665.875 5896.467,6694.75 5896.467,6752.5 5846.454,6781.375 5796.441,6752.5 5746.428,6781.375 5696.415,6752.5 5646.402,6781.375" /><polygon id="18288" points="5346.324,6319.375 5346.324,6261.625 5296.311,6232.75 5246.298,6261.625 5196.285,6232.75 5146.272,6261.625 5096.259,6232.75 5046.246,6261.625 5046.246,6319.375 4996.233,6348.25 4996.233,6406.0 4946.22,6434.875 4946.22,6492.625 4996.233,6521.5 4996.233,6579.25 4946.22,6608.125 4946.22,6665.875 4996.233,6694.75 4996.233,6752.5 5046.246,6781.375 5096.259,6752.5 5146.272,6781.375 5196.285,6752.5 5246.298,6781.375 5296.311,6752.5 5296.311,6694.75 5346.324,6665.875 5346.324,6608.125 5396.337,6579.25 5396.337,6521.5 5346.324,6492.625 5346.324,6434.875 5396.337,6406.0 5396.337,6348.25" /><polygon id="18287" points="4746.169,5626.375 4696.156,5655.25 4646.143,5626.375 4596.13,5655.25 4546.117,5626.375 4496.104,5655.25 4496.104,5713.0 4446.091,5741.875 4446.091,5799.625 4396.078,5828.5 4396.078,5886.25 4346.065,5915.125 4346.065,5972.875 4396.078,6001.75 4396.078,6059.5 4446.091,6088.375 4446.091,6146.125 4496.104,6175.0 4496.104,6232.75 4546.117,6261.625 4596.13,6232.75 4646.143,6261.625 4696.156,6232.75 4746.169,6261.625 4796.182,6232.75 4846.195,6261.625 4896.207,6232.75 4946.22,6261.625 4946.22,6319.375 4996.233,6348.25 5046.246,6319.375 5046.246,6261.625 5096.259,6232.75 5146.272,6261.625 5196.285,6232.75 5196.285,6175.0 5246.298,6146.125 5296.311,6175.0 5346.324,6146.125 5396.337,6175.0 5446.35,6146.125 5446.35,6088.375 5396.337,6059.5 5396.337,6001.75 5446.35,5972.875 5446.35,5915.125 5396.337,5886.25 5396.337,5828.5 5346.324,5799.625 5346.324,5741.875 5296.311,5713.0 5296.311,5655.25 5246.298,5626.375 5196.285,5655.25 5146.272,5626.375 5096.259,5655.25 5046.246,5626.375 4996.233,5655.25 4946.22,5626.375 4896.207,5655.25 4846.195,5626.375 4796.182,5655.25" /><polygon id="18284" points="2345.546,5915.125 2295.533,5886.25 2245.52,5915.125 2245.52,5972.875 2195.507,6001.75 2195.507,6059.5 2145.494,6088.375 2095.481,6059.5 2045.468,6088.375 1995.455,6059.5 1945.442,6088.375 1895.429,6059.5 1845.416,6088.375 1795.404,6059.5 1795.404,6001.75 1745.391,5972.875 1695.378,6001.75 1645.365,5972.875 1645.365,5915.125 1595.352,5886.25 1595.352,5828.5 1545.339,5799.625 1545.339,5741.875 1495.326,5713.0 1495.326,5655.25 1545.339,5626.375 1595.352,5655.25 1645.365,5626.375 1645.365,5568.625 1695.378,5539.75 1695.378,5482.0 1745.391,5453.125 1795.404,5482.0 1845.416,5453.125 1895.429,5482.0 1945.442,5453.125 1995.455,5482.0 2045.468,5453.125 2095.481,5482.0 2145.494,5453.125 2195.507,5482.0 2245.52,5453.125 2295.533,5482.0 2295.533,5539.75 2345.546,5568.625 2395.559,5539.75 2445.572,5568.625 2445.572,5626.375 2495.585,5655.25 2495.585,5713.0 2445.572,5741.875 2445.572,5799.625 2395.559,5828.5 2395.559,5886.25" /><polygon id="18282" points="1695.378,4846.75 1745.391,4875.625 1745.391,4933.375 1795.404,4962.25 1795.404,5020.0 1845.416,5048.875 1845.416,5106.625 1895.429,5135.5 1895.429,5193.25 1845.416,5222.125 1795.404,5193.25 1745.391,5222.125 1695.378,5193.25 1645.365,5222.125 1595.352,5193.25 1545.339,5222.125 1495.326,5193.25 1445.313,5222.125 1395.3,5193.25 1345.287,5222.125 1295.274,5193.25 1245.261,5222.125 1195.248,5193.25 1195.248,5135.5 1145.235,5106.625 1145.235,5048.875 1095.222,5020.0 1095.222,4962.25 1045.209,4933.375 1045.209,4875.625 1095.222,4846.75 1095.222,4789.0 1145.235,4760.125 1145.235,4702.375 1195.248,4673.5 1195.248,4615.75 1245.261,4586.875 1245.261,4529.125 1295.274,4500.25 1345.287,4529.125 1395.3,4500.25 1445.313,4529.125 1495.326,4500.25 1545.339,4529.125 1595.352,4500.25 1645.365,4529.125 1695.378,4500.25 1745.391,4529.125 1745.391,4586.875 1695.378,4615.75 1695.378,4673.5 1645.365,4702.375 1645.365,4760.125 1695.378,4789.0" /><polygon id="18264" points="3395.818,3807.25 3395.818,3749.5 3445.831,3720.625 3495.844,3749.5 3545.857,3720.625 3595.87,3749.5 3645.883,3720.625 3695.896,3749.5 3695.896,3807.25 3745.909,3836.125 3745.909,3893.875 3795.922,3922.75 3795.922,3980.5 3745.909,4009.375 3695.896,3980.5 3645.883,4009.375 3645.883,4067.125 3595.87,4096.0 3595.87,4153.75 3645.883,4182.625 3645.883,4240.375 3695.896,4269.25 3695.896,4327.0 3645.883,4355.875 3645.883,4413.625 3595.87,4442.5 3545.857,4413.625 3495.844,4442.5 3445.831,4413.625 3395.818,4442.5 3345.805,4413.625 3345.805,4355.875 3295.793,4327.0 3295.793,4269.25 3245.78,4240.375 3245.78,4182.625 3295.793,4153.75 3295.793,4096.0 3345.805,4067.125 3345.805,4009.375 3295.793,3980.5 3295.793,3922.75 3345.805,3893.875 3345.805,3836.125" /><polygon id="18267" points="2695.637,4500.25 2645.624,4529.125 2595.611,4500.25 2545.598,4529.125 2495.585,4500.25 2445.572,4529.125 2395.559,4500.25 2345.546,4529.125 2345.546,4586.875 2295.533,4615.75 2245.52,4586.875 2195.507,4615.75 2195.507,4673.5 2145.494,4702.375 2145.494,4760.125 2195.507,4789.0 2195.507,4846.75 2145.494,4875.625 2145.494,4933.375 2195.507,4962.25 2245.52,4933.375 2295.533,4962.25 2345.546,4933.375 2395.559,4962.25 2445.572,4933.375 2495.585,4962.25 2545.598,4933.375 2595.611,4962.25 2645.624,4933.375 2695.637,4962.25 2745.65,4933.375 2745.65,4875.625 2795.663,4846.75 2795.663,4789.0 2845.676,4760.125 2845.676,4702.375 2895.689,4673.5 2895.689,4615.75 2845.676,4586.875 2845.676,4529.125 2795.663,4500.25 2745.65,4529.125" /><polygon id="18307" points="3045.728,3489.625 3095.741,3460.75 3095.741,3403.0 3145.754,3374.125 3195.767,3403.0 3245.78,3374.125 3245.78,3316.375 3295.793,3287.5 3345.805,3316.375 3395.818,3287.5 3395.818,3229.75 3445.831,3200.875 3495.844,3229.75 3545.857,3200.875 3545.857,3143.125 3595.87,3114.25 3645.883,3143.125 3695.896,3114.25 3695.896,3056.5 3645.883,3027.625 3595.87,3056.5 3545.857,3027.625 3495.844,3056.5 3495.844,3114.25 3445.831,3143.125 3395.818,3114.25 3345.805,3143.125 3345.805,3200.875 3295.793,3229.75 3245.78,3200.875 3195.767,3229.75 3195.767,3287.5 3145.754,3316.375 3095.741,3287.5 3045.728,3316.375 3045.728,3374.125 2995.715,3403.0 2945.702,3374.125 2895.689,3403.0 2845.676,3374.125 2795.663,3403.0 2745.65,3374.125 2745.65,3316.375 2695.637,3287.5 2695.637,3229.75 2645.624,3200.875 2645.624,3143.125 2595.611,3114.25 2595.611,3056.5 2545.598,3027.625 2545.598,2969.875 2495.585,2941.0 2445.572,2969.875 2445.572,3027.625 2495.585,3056.5 2495.585,3114.25 2545.598,3143.125 2545.598,3200.875 2595.611,3229.75 2595.611,3287.5 2645.624,3316.375 2645.624,3374.125 2695.637,3403.0 2695.637,3460.75 2645.624,3489.625 2645.624,3547.375 2695.637,3576.25 2695.637,3634.0 2745.65,3662.875 2745.65,3720.625 2695.637,3749.5 2695.637,3807.25 2745.65,3836.125 2745.65,3893.875 2695.637,3922.75 2695.637,3980.5 2645.624,4009.375 2645.624,4067.125 2695.637,4096.0 2745.65,4067.125 2745.65,4009.375 2795.663,3980.5 2795.663,3922.75 2845.676,3893.875 2845.676,3836.125 2795.663,3807.25 2795.663,3749.5 2845.676,3720.625 2845.676,3662.875 2895.689,3634.0 2895.689,3576.25 2945.702,3547.375 2945.702,3489.625 2995.715,3460.75" /><polygon id="18343" points="1745.391,4240.375 1745.391,4182.625 1695.378,4153.75 1695.378,4096.0 1645.365,4067.125 1595.352,4096.0 1545.339,4067.125 1495.326,4096.0 1445.313,4067.125 1395.3,4096.0 1345.287,4067.125 1295.274,4096.0 1245.261,4067.125 1195.248,4096.0 1195.248,4153.75 1145.235,4182.625 1145.235,4240.375 1095.222,4269.25 1095.222,4327.0 1145.235,4355.875 1145.235,4413.625 1195.248,4442.5 1195.248,4500.25 1245.261,4529.125 1295.274,4500.25 1345.287,4529.125 1395.3,4500.25 1445.313,4529.125 1495.326,4500.25 1545.339,4529.125 1595.352,4500.25 1645.365,4529.125 1695.378,4500.25 1695.378,4442.5 1745.391,4413.625 1745.391,4355.875 1795.404,4327.0 1795.404,4269.25" /><polygon id="18268" points="2845.676,4240.375 2895.689,4269.25 2895.689,4327.0 2845.676,4355.875 2845.676,4413.625 2895.689,4442.5 2895.689,4500.25 2845.676,4529.125 2795.663,4500.25 2745.65,4529.125 2695.637,4500.25 2645.624,4529.125 2595.611,4500.25 2545.598,4529.125 2495.585,4500.25 2445.572,4529.125 2395.559,4500.25 2395.559,4442.5 2345.546,4413.625 2345.546,4355.875 2395.559,4327.0 2395.559,4269.25 2445.572,4240.375 2445.572,4182.625 2495.585,4153.75 2545.598,4182.625 2595.611,4153.75 2595.611,4096.0 2645.624,4067.125 2695.637,4096.0 2745.65,4067.125 2795.663,4096.0 2795.663,4153.75 2845.676,4182.625" /><polygon id="18297" points="4396.078,2017.0 4396.078,2074.75 4346.065,2103.625 4346.065,2161.375 4396.078,2190.25 4396.078,2248.0 4446.091,2276.875 4496.104,2248.0 4546.117,2276.875 4596.13,2248.0 4646.143,2276.875 4696.156,2248.0 4746.169,2276.875 4796.182,2248.0 4796.182,2190.25 4846.195,2161.375 4896.207,2190.25 4946.22,2161.375 4996.233,2190.25 5046.246,2161.375 5046.246,2103.625 4996.233,2074.75 4996.233,2017.0 4946.22,1988.125 4946.22,1930.375 4896.207,1901.5 4896.207,1843.75 4846.195,1814.875 4846.195,1757.125 4796.182,1728.25 4796.182,1670.5 4746.169,1641.625 4746.169,1583.875 4696.156,1555.0 4646.143,1583.875 4596.13,1555.0 4546.117,1583.875 4496.104,1555.0 4446.091,1583.875 4446.091,1641.625 4396.078,1670.5 4396.078,1728.25 4446.091,1757.125 4446.091,1814.875 4496.104,1843.75 4496.104,1901.5 4446.091,1930.375 4446.091,1988.125" /><polygon id="18300" points="2695.637,2883.25 2745.65,2854.375 2745.65,2796.625 2795.663,2767.75 2795.663,2710.0 2745.65,2681.125 2745.65,2623.375 2695.637,2594.5 2695.637,2536.75 2645.624,2507.875 2645.624,2450.125 2595.611,2421.25 2595.611,2363.5 2545.598,2334.625 2545.598,2276.875 2495.585,2248.0 2445.572,2276.875 2395.559,2248.0 2345.546,2276.875 2345.546,2334.625 2295.533,2363.5 2295.533,2421.25 2245.52,2450.125 2195.507,2421.25 2145.494,2450.125 2145.494,2507.875 2095.481,2536.75 2095.481,2594.5 2045.468,2623.375 2045.468,2681.125 2095.481,2710.0 2095.481,2767.75 2145.494,2796.625 2145.494,2854.375 2195.507,2883.25 2245.52,2854.375 2295.533,2883.25 2295.533,2941.0 2345.546,2969.875 2395.559,2941.0 2445.572,2969.875 2495.585,2941.0 2545.598,2969.875 2595.611,2941.0 2595.611,2883.25 2645.624,2854.375" /><polygon id="18298" points="4446.091,1757.125 4396.078,1728.25 4396.078,1670.5 4446.091,1641.625 4446.091,1583.875 4396.078,1555.0 4346.065,1583.875 4296.052,1555.0 4246.039,1583.875 4196.026,1555.0 4196.026,1497.25 4146.013,1468.375 4096.0,1497.25 4045.987,1468.375 3995.974,1497.25 3945.961,1468.375 3945.961,1410.625 3895.948,1381.75 3845.935,1410.625 3795.922,1381.75 3745.909,1410.625 3745.909,1468.375 3695.896,1497.25 3695.896,1555.0 3645.883,1583.875 3645.883,1641.625 3595.87,1670.5 3595.87,1728.25 3645.883,1757.125 3695.896,1728.25 3745.909,1757.125 3745.909,1814.875 3695.896,1843.75 3695.896,1901.5 3645.883,1930.375 3645.883,1988.125 3695.896,2017.0 3695.896,2074.75 3645.883,2103.625 3645.883,2161.375 3695.896,2190.25 3745.909,2161.375 3745.909,2103.625 3795.922,2074.75 3845.935,2103.625 3845.935,2161.375 3895.948,2190.25 3945.961,2161.375 3995.974,2190.25 4045.987,2161.375 4096.0,2190.25 4146.013,2161.375 4196.026,2190.25 4246.039,2161.375 4296.052,2190.25 4346.065,2161.375 4346.065,2103.625 4396.078,2074.75 4396.078,2017.0 4446.091,1988.125 4446.091,1930.375 4496.104,1901.5 4496.104,1843.75 4446.091,1814.875" /><polygon id="18296" points="5496.363,1843.75 5446.35,1814.875 5396.337,1843.75 5396.337,1901.5 5346.324,1930.375 5346.324,1988.125 5396.337,2017.0 5446.35,1988.125 5496.363,2017.0 5546.376,1988.125 5596.389,2017.0 5596.389,2074.75 5646.402,2103.625 5646.402,2161.375 5596.389,2190.25 5546.376,2161.375 5496.363,2190.25 5446.35,2161.375 5396.337,2190.25 5346.324,2161.375 5296.311,2190.25 5246.298,2161.375 5196.285,2190.25 5146.272,2161.375 5096.259,2190.25 5046.246,2161.375 5046.246,2103.625 4996.233,2074.75 4996.233,2017.0 4946.22,1988.125 4946.22,1930.375 4896.207,1901.5 4896.207,1843.75 4846.195,1814.875 4846.195,1757.125 4796.182,1728.25 4796.182,1670.5 4746.169,1641.625 4746.169,1583.875 4696.156,1555.0 4696.156,1497.25 4746.169,1468.375 4796.182,1497.25 4846.195,1468.375 4846.195,1410.625 4896.207,1381.75 4946.22,1410.625 4996.233,1381.75 5046.246,1410.625 5096.259,1381.75 5146.272,1410.625 5196.285,1381.75 5246.298,1410.625 5296.311,1381.75 5346.324,1410.625 5346.324,1468.375 5396.337,1497.25 5446.35,1468.375 5496.363,1497.25 5546.376,1468.375 5596.389,1497.25 5646.402,1468.375 5646.402,1410.625 5696.415,1381.75 5746.428,1410.625 5796.441,1381.75 5846.454,1410.625 5846.454,1468.375 5896.467,1497.25 5896.467,1555.0 5846.454,1583.875 5846.454,1641.625 5796.441,1670.5 5796.441,1728.25 5746.428,1757.125 5746.428,1814.875 5696.415,1843.75 5646.402,1814.875 5596.389,1843.75 5546.376,1814.875" /><polygon id="18295" points="5146.272,3143.125 5196.285,3114.25 5246.298,3143.125 5296.311,3114.25 5346.324,3143.125 5396.337,3114.25 5446.35,3143.125 5496.363,3114.25 5496.363,3056.5 5546.376,3027.625 5546.376,2969.875 5596.389,2941.0 5596.389,2883.25 5546.376,2854.375 5496.363,2883.25 5446.35,2854.375 5446.35,2796.625 5496.363,2767.75 5546.376,2796.625 5596.389,2767.75 5596.389,2710.0 5646.402,2681.125 5646.402,2623.375 5596.389,2594.5 5596.389,2536.75 5546.376,2507.875 5496.363,2536.75 5446.35,2507.875 5396.337,2536.75 5346.324,2507.875 5346.324,2450.125 5296.311,2421.25 5246.298,2450.125 5196.285,2421.25 5146.272,2450.125 5096.259,2421.25 5046.246,2450.125 4996.233,2421.25 4946.22,2450.125 4896.207,2421.25 4846.195,2450.125 4846.195,2507.875 4796.182,2536.75 4796.182,2594.5 4746.169,2623.375 4746.169,2681.125 4696.156,2710.0 4696.156,2767.75 4646.143,2796.625 4646.143,2854.375 4696.156,2883.25 4696.156,2941.0 4746.169,2969.875 4796.182,2941.0 4846.195,2969.875 4846.195,3027.625 4896.207,3056.5 4946.22,3027.625 4996.233,3056.5 4996.233,3114.25 5046.246,3143.125 5096.259,3114.25" /><polygon id="18294" points="6296.571,2883.25 6246.558,2854.375 6246.558,2796.625 6196.545,2767.75 6146.532,2796.625 6096.519,2767.75 6046.506,2796.625 5996.493,2767.75 5996.493,2710.0 5946.48,2681.125 5896.467,2710.0 5846.454,2681.125 5796.441,2710.0 5796.441,2767.75 5746.428,2796.625 5696.415,2767.75 5646.402,2796.625 5646.402,2854.375 5596.389,2883.25 5596.389,2941.0 5546.376,2969.875 5546.376,3027.625 5596.389,3056.5 5646.402,3027.625 5696.415,3056.5 5746.428,3027.625 5796.441,3056.5 5846.454,3027.625 5896.467,3056.5 5896.467,3114.25 5946.48,3143.125 5946.48,3200.875 5996.493,3229.75 5996.493,3287.5 6046.506,3316.375 6096.519,3287.5 6146.532,3316.375 6146.532,3374.125 6196.545,3403.0 6246.558,3374.125 6296.571,3403.0 6346.584,3374.125 6396.596,3403.0 6446.609,3374.125 6446.609,3316.375 6496.622,3287.5 6496.622,3229.75 6446.609,3200.875 6446.609,3143.125 6496.622,3114.25 6496.622,3056.5 6446.609,3027.625 6396.596,3056.5 6346.584,3027.625 6346.584,2969.875 6296.571,2941.0" /><polygon id="18299" points="3245.78,2276.875 3295.793,2248.0 3295.793,2190.25 3345.805,2161.375 3395.818,2190.25 3445.831,2161.375 3495.844,2190.25 3545.857,2161.375 3595.87,2190.25 3645.883,2161.375 3695.896,2190.25 3695.896,2248.0 3745.909,2276.875 3745.909,2334.625 3795.922,2363.5 3795.922,2421.25 3745.909,2450.125 3745.909,2507.875 3695.896,2536.75 3695.896,2594.5 3645.883,2623.375 3595.87,2594.5 3545.857,2623.375 3545.857,2681.125 3495.844,2710.0 3445.831,2681.125 3395.818,2710.0 3345.805,2681.125 3345.805,2623.375 3295.793,2594.5 3245.78,2623.375 3245.78,2681.125 3195.767,2710.0 3195.767,2767.75 3145.754,2796.625 3095.741,2767.75 3045.728,2796.625 2995.715,2767.75 2945.702,2796.625 2895.689,2767.75 2895.689,2710.0 2845.676,2681.125 2795.663,2710.0 2745.65,2681.125 2745.65,2623.375 2695.637,2594.5 2695.637,2536.75 2645.624,2507.875 2645.624,2450.125 2595.611,2421.25 2595.611,2363.5 2645.624,2334.625 2645.624,2276.875 2695.637,2248.0 2745.65,2276.875 2795.663,2248.0 2845.676,2276.875 2895.689,2248.0 2945.702,2276.875 2995.715,2248.0 2995.715,2190.25 3045.728,2161.375 3095.741,2190.25 3145.754,2161.375 3195.767,2190.25 3195.767,2248.0" /><polygon id="18277" points="4146.013,3143.125 4146.013,3200.875 4096.0,3229.75 4096.0,3287.5 4146.013,3316.375 4146.013,3374.125 4096.0,3403.0 4045.987,3374.125 3995.974,3403.0 3945.961,3374.125 3945.961,3316.375 3895.948,3287.5 3895.948,3229.75 3845.935,3200.875 3795.922,3229.75 3745.909,3200.875 3695.896,3229.75 3645.883,3200.875 3645.883,3143.125 3695.896,3114.25 3695.896,3056.5 3645.883,3027.625 3645.883,2969.875 3695.896,2941.0 3695.896,2883.25 3745.909,2854.375 3795.922,2883.25 3845.935,2854.375 3895.948,2883.25 3945.961,2854.375 3995.974,2883.25 4045.987,2854.375 4096.0,2883.25 4146.013,2854.375 4196.026,2883.25 4196.026,2941.0 4146.013,2969.875 4146.013,3027.625 4096.0,3056.5 4096.0,3114.25" /><polygon id="18276" points="4546.117,3374.125 4496.104,3403.0 4446.091,3374.125 4396.078,3403.0 4396.078,3460.75 4346.065,3489.625 4296.052,3460.75 4296.052,3403.0 4246.039,3374.125 4196.026,3403.0 4146.013,3374.125 4146.013,3316.375 4096.0,3287.5 4096.0,3229.75 4146.013,3200.875 4146.013,3143.125 4096.0,3114.25 4096.0,3056.5 4146.013,3027.625 4146.013,2969.875 4196.026,2941.0 4196.026,2883.25 4246.039,2854.375 4246.039,2796.625 4296.052,2767.75 4346.065,2796.625 4396.078,2767.75 4446.091,2796.625 4496.104,2767.75 4546.117,2796.625 4546.117,2854.375 4596.13,2883.25 4596.13,2941.0 4646.143,2969.875 4646.143,3027.625 4696.156,3056.5 4696.156,3114.25 4646.143,3143.125 4646.143,3200.875 4596.13,3229.75 4596.13,3287.5 4646.143,3316.375 4646.143,3374.125 4596.13,3403.0" /><polygon id="18308" points="5646.402,3316.375 5696.415,3287.5 5696.415,3229.75 5746.428,3200.875 5746.428,3143.125 5796.441,3114.25 5796.441,3056.5 5846.454,3027.625 5896.467,3056.5 5896.467,3114.25 5846.454,3143.125 5846.454,3200.875 5796.441,3229.75 5796.441,3287.5 5746.428,3316.375 5746.428,3374.125 5696.415,3403.0 5696.415,3460.75 5646.402,3489.625 5646.402,3547.375 5596.389,3576.25 5596.389,3634.0 5546.376,3662.875 5546.376,3720.625 5496.363,3749.5 5496.363,3807.25 5446.35,3836.125 5446.35,3893.875 5396.337,3922.75 5396.337,3980.5 5346.324,4009.375 5346.324,4067.125 5396.337,4096.0 5396.337,4153.75 5346.324,4182.625 5346.324,4240.375 5296.311,4269.25 5246.298,4240.375 5246.298,4182.625 5296.311,4153.75 5296.311,4096.0 5246.298,4067.125 5246.298,4009.375 5296.311,3980.5 5296.311,3922.75 5246.298,3893.875 5246.298,3836.125 5196.285,3807.25 5196.285,3749.5 5146.272,3720.625 5146.272,3662.875 5096.259,3634.0 5046.246,3662.875 4996.233,3634.0 4996.233,3576.25 4946.22,3547.375 4896.207,3576.25 4846.195,3547.375 4846.195,3489.625 4796.182,3460.75 4746.169,3489.625 4696.156,3460.75 4696.156,3403.0 4746.169,3374.125 4796.182,3403.0 4846.195,3374.125 4896.207,3403.0 4896.207,3460.75 4946.22,3489.625 4996.233,3460.75 5046.246,3489.625 5046.246,3547.375 5096.259,3576.25 5146.272,3547.375 5196.285,3576.25 5196.285,3634.0 5246.298,3662.875 5296.311,3634.0 5346.324,3662.875 5396.337,3634.0 5446.35,3662.875 5496.363,3634.0 5496.363,3576.25 5546.376,3547.375 5546.376,3489.625 5596.389,3460.75 5596.389,3403.0 5646.402,3374.125" /><polygon id="18293" points="6346.584,4067.125 6296.571,4096.0 6296.571,4153.75 6246.558,4182.625 6196.545,4153.75 6146.532,4182.625 6096.519,4153.75 6096.519,4096.0 6146.532,4067.125 6146.532,4009.375 6196.545,3980.5 6196.545,3922.75 6146.532,3893.875 6096.519,3922.75 6046.506,3893.875 5996.493,3922.75 5946.48,3893.875 5946.48,3836.125 5896.467,3807.25 5896.467,3749.5 5946.48,3720.625 5996.493,3749.5 6046.506,3720.625 6046.506,3662.875 6096.519,3634.0 6146.532,3662.875 6196.545,3634.0 6196.545,3576.25 6246.558,3547.375 6246.558,3489.625 6296.571,3460.75 6296.571,3403.0 6346.584,3374.125 6396.596,3403.0 6446.609,3374.125 6446.609,3316.375 6496.622,3287.5 6546.635,3316.375 6596.648,3287.5 6646.661,3316.375 6646.661,3374.125 6696.674,3403.0 6696.674,3460.75 6646.661,3489.625 6646.661,3547.375 6696.674,3576.25 6696.674,3634.0 6746.687,3662.875 6746.687,3720.625 6696.674,3749.5 6696.674,3807.25 6646.661,3836.125 6646.661,3893.875 6596.648,3922.75 6596.648,3980.5 6546.635,4009.375 6496.622,3980.5 6446.609,4009.375 6396.596,3980.5 6346.584,4009.375" /><polygon id="18302" points="7096.778,6059.5 7046.765,6088.375 7046.765,6146.125 6996.752,6175.0 6946.739,6146.125 6896.726,6175.0 6846.713,6146.125 6796.7,6175.0 6746.687,6146.125 6746.687,6088.375 6696.674,6059.5 6696.674,6001.75 6646.661,5972.875 6596.648,6001.75 6546.635,5972.875 6546.635,5915.125 6496.622,5886.25 6496.622,5828.5 6446.609,5799.625 6446.609,5741.875 6396.596,5713.0 6396.596,5655.25 6346.584,5626.375 6346.584,5568.625 6296.571,5539.75 6296.571,5482.0 6246.558,5453.125 6246.558,5395.375 6196.545,5366.5 6196.545,5308.75 6246.558,5279.875 6246.558,5222.125 6196.545,5193.25 6196.545,5135.5 6246.558,5106.625 6246.558,5048.875 6296.571,5020.0 6346.584,5048.875 6346.584,5106.625 6396.596,5135.5 6446.609,5106.625 6496.622,5135.5 6546.635,5106.625 6596.648,5135.5 6596.648,5193.25 6646.661,5222.125 6646.661,5279.875 6696.674,5308.75 6746.687,5279.875 6796.7,5308.75 6846.713,5279.875 6896.726,5308.75 6946.739,5279.875 6996.752,5308.75 7046.765,5279.875 7096.778,5308.75 7096.778,5366.5 7146.791,5395.375 7146.791,5453.125 7196.804,5482.0 7196.804,5539.75 7246.817,5568.625 7246.817,5626.375 7196.804,5655.25 7196.804,5713.0 7246.817,5741.875 7246.817,5799.625 7196.804,5828.5 7196.804,5886.25 7146.791,5915.125 7146.791,5972.875 7096.778,6001.75" /><polygon id="18275" points="5746.428,5626.375 5696.415,5655.25 5646.402,5626.375 5596.389,5655.25 5546.376,5626.375 5496.363,5655.25 5446.35,5626.375 5396.337,5655.25 5346.324,5626.375 5346.324,5568.625 5296.311,5539.75 5246.298,5568.625 5196.285,5539.75 5196.285,5482.0 5146.272,5453.125 5096.259,5482.0 5046.246,5453.125 4996.233,5482.0 4946.22,5453.125 4946.22,5395.375 4996.233,5366.5 4996.233,5308.75 5046.246,5279.875 5096.259,5308.75 5146.272,5279.875 5196.285,5308.75 5246.298,5279.875 5246.298,5222.125 5296.311,5193.25 5296.311,5135.5 5346.324,5106.625 5346.324,5048.875 5396.337,5020.0 5446.35,5048.875 5496.363,5020.0 5546.376,5048.875 5546.376,5106.625 5596.389,5135.5 5646.402,5106.625 5696.415,5135.5 5696.415,5193.25 5746.428,5222.125 5746.428,5279.875 5796.441,5308.75 5796.441,5366.5 5846.454,5395.375 5846.454,5453.125 5796.441,5482.0 5796.441,5539.75 5846.454,5568.625 5846.454,5626.375 5796.441,5655.25" /><polygon id="18344" points="4496.104,6175.0 4446.091,6146.125 4446.091,6088.375 4396.078,6059.5 4396.078,6001.75 4346.065,5972.875 4346.065,5915.125 4296.052,5886.25 4246.039,5915.125 4196.026,5886.25 4146.013,5915.125 4146.013,5972.875 4096.0,6001.75 4096.0,6059.5 4045.987,6088.375 3995.974,6059.5 3945.961,6088.375 3945.961,6146.125 3895.948,6175.0 3895.948,6232.75 3845.935,6261.625 3845.935,6319.375 3795.922,6348.25 3795.922,6406.0 3745.909,6434.875 3745.909,6492.625 3795.922,6521.5 3845.935,6492.625 3895.948,6521.5 3945.961,6492.625 3995.974,6521.5 4045.987,6492.625 4045.987,6434.875 4096.0,6406.0 4146.013,6434.875 4196.026,6406.0 4246.039,6434.875 4296.052,6406.0 4346.065,6434.875 4396.078,6406.0 4446.091,6434.875 4496.104,6406.0 4496.104,6348.25 4546.117,6319.375 4596.13,6348.25 4646.143,6319.375 4646.143,6261.625 4596.13,6232.75 4546.117,6261.625 4496.104,6232.75" /><polygon id="18286" points="3845.935,6319.375 3795.922,6348.25 3795.922,6406.0 3745.909,6434.875 3695.896,6406.0 3645.883,6434.875 3645.883,6492.625 3595.87,6521.5 3545.857,6492.625 3495.844,6521.5 3445.831,6492.625 3395.818,6521.5 3345.805,6492.625 3295.793,6521.5 3245.78,6492.625 3195.767,6521.5 3145.754,6492.625 3095.741,6521.5 3045.728,6492.625 3045.728,6434.875 2995.715,6406.0 2995.715,6348.25 3045.728,6319.375 3045.728,6261.625 3095.741,6232.75 3095.741,6175.0 3145.754,6146.125 3145.754,6088.375 3195.767,6059.5 3195.767,6001.75 3245.78,5972.875 3245.78,5915.125 3295.793,5886.25 3345.805,5915.125 3395.818,5886.25 3445.831,5915.125 3495.844,5886.25 3545.857,5915.125 3595.87,5886.25 3645.883,5915.125 3695.896,5886.25 3745.909,5915.125 3795.922,5886.25 3845.935,5915.125 3845.935,5972.875 3895.948,6001.75 3895.948,6059.5 3845.935,6088.375 3845.935,6146.125 3895.948,6175.0 3895.948,6232.75 3845.935,6261.625" /><polygon id="18285" points="2545.598,5972.875 2595.611,6001.75 2595.611,6059.5 2645.624,6088.375 2645.624,6146.125 2695.637,6175.0 2745.65,6146.125 2795.663,6175.0 2845.676,6146.125 2895.689,6175.0 2945.702,6146.125 2995.715,6175.0 3045.728,6146.125 3095.741,6175.0 3145.754,6146.125 3145.754,6088.375 3195.767,6059.5 3195.767,6001.75 3245.78,5972.875 3245.78,5915.125 3295.793,5886.25 3295.793,5828.5 3245.78,5799.625 3245.78,5741.875 3195.767,5713.0 3195.767,5655.25 3145.754,5626.375 3095.741,5655.25 3045.728,5626.375 2995.715,5655.25 2945.702,5626.375 2945.702,5568.625 2895.689,5539.75 2895.689,5482.0 2845.676,5453.125 2795.663,5482.0 2745.65,5453.125 2695.637,5482.0 2645.624,5453.125 2595.611,5482.0 2545.598,5453.125 2495.585,5482.0 2495.585,5539.75 2445.572,5568.625 2445.572,5626.375 2495.585,5655.25 2495.585,5713.0 2445.572,5741.875 2445.572,5799.625 2495.585,5828.5 2545.598,5799.625 2595.611,5828.5 2595.611,5886.25 2545.598,5915.125" /><polygon id="18283" points="1295.274,5308.75 1245.261,5279.875 1245.261,5222.125 1295.274,5193.25 1345.287,5222.125 1395.3,5193.25 1445.313,5222.125 1495.326,5193.25 1545.339,5222.125 1595.352,5193.25 1645.365,5222.125 1695.378,5193.25 1745.391,5222.125 1795.404,5193.25 1845.416,5222.125 1895.429,5193.25 1945.442,5222.125 1945.442,5279.875 1995.455,5308.75 1995.455,5366.5 2045.468,5395.375 2045.468,5453.125 1995.455,5482.0 1945.442,5453.125 1895.429,5482.0 1845.416,5453.125 1795.404,5482.0 1745.391,5453.125 1695.378,5482.0 1695.378,5539.75 1645.365,5568.625 1645.365,5626.375 1595.352,5655.25 1545.339,5626.375 1495.326,5655.25 1445.313,5626.375 1445.313,5568.625 1395.3,5539.75 1395.3,5482.0 1345.287,5453.125 1345.287,5395.375 1295.274,5366.5" /><polygon id="18304" points="1445.313,5972.875 1395.3,6001.75 1345.287,5972.875 1295.274,6001.75 1245.261,5972.875 1195.248,6001.75 1145.235,5972.875 1095.222,6001.75 1045.209,5972.875 995.196,6001.75 945.183,5972.875 895.17,6001.75 845.157,5972.875 795.144,6001.75 745.131,5972.875 695.118,6001.75 645.105,5972.875 595.092,6001.75 545.079,5972.875 545.079,5915.125 495.066,5886.25 495.066,5828.5 445.053,5799.625 445.053,5741.875 395.04,5713.0 395.04,5655.25 445.053,5626.375 445.053,5568.625 495.066,5539.75 495.066,5482.0 545.079,5453.125 545.079,5395.375 595.092,5366.5 595.092,5308.75 645.105,5279.875 695.118,5308.75 745.131,5279.875 745.131,5222.125 795.144,5193.25 795.144,5135.5 845.157,5106.625 845.157,5048.875 895.17,5020.0 895.17,4962.25 945.183,4933.375 945.183,4875.625 995.196,4846.75 995.196,4789.0 1045.209,4760.125 1095.222,4789.0 1095.222,4846.75 1045.209,4875.625 1045.209,4933.375 1095.222,4962.25 1095.222,5020.0 1145.235,5048.875 1145.235,5106.625 1195.248,5135.5 1195.248,5193.25 1245.261,5222.125 1245.261,5279.875 1295.274,5308.75 1295.274,5366.5 1345.287,5395.375 1345.287,5453.125 1395.3,5482.0 1395.3,5539.75 1445.313,5568.625 1445.313,5626.375 1495.326,5655.25 1495.326,5713.0 1545.339,5741.875 1545.339,5799.625 1595.352,5828.5 1595.352,5886.25 1645.365,5915.125 1645.365,5972.875 1595.352,6001.75 1545.339,5972.875 1495.326,6001.75" /><polygon id="18269" points="2345.546,4933.375 2295.533,4962.25 2245.52,4933.375 2195.507,4962.25 2195.507,5020.0 2145.494,5048.875 2145.494,5106.625 2195.507,5135.5 2195.507,5193.25 2245.52,5222.125 2245.52,5279.875 2295.533,5308.75 2345.546,5279.875 2395.559,5308.75 2445.572,5279.875 2495.585,5308.75 2545.598,5279.875 2595.611,5308.75 2645.624,5279.875 2695.637,5308.75 2745.65,5279.875 2745.65,5222.125 2795.663,5193.25 2845.676,5222.125 2895.689,5193.25 2895.689,5135.5 2945.702,5106.625 2945.702,5048.875 2995.715,5020.0 2995.715,4962.25 2945.702,4933.375 2945.702,4875.625 2895.689,4846.75 2895.689,4789.0 2845.676,4760.125 2795.663,4789.0 2795.663,4846.75 2745.65,4875.625 2745.65,4933.375 2695.637,4962.25 2645.624,4933.375 2595.611,4962.25 2545.598,4933.375 2495.585,4962.25 2445.572,4933.375 2395.559,4962.25" /><polygon id="18266" points="2995.715,4962.25 3045.728,4933.375 3095.741,4962.25 3145.754,4933.375 3195.767,4962.25 3245.78,4933.375 3245.78,4875.625 3295.793,4846.75 3295.793,4789.0 3345.805,4760.125 3345.805,4702.375 3295.793,4673.5 3295.793,4615.75 3245.78,4586.875 3245.78,4529.125 3295.793,4500.25 3295.793,4442.5 3345.805,4413.625 3345.805,4355.875 3295.793,4327.0 3295.793,4269.25 3245.78,4240.375 3245.78,4182.625 3195.767,4153.75 3145.754,4182.625 3095.741,4153.75 3095.741,4096.0 3045.728,4067.125 2995.715,4096.0 2945.702,4067.125 2895.689,4096.0 2895.689,4153.75 2845.676,4182.625 2845.676,4240.375 2895.689,4269.25 2895.689,4327.0 2845.676,4355.875 2845.676,4413.625 2895.689,4442.5 2895.689,4500.25 2845.676,4529.125 2845.676,4586.875 2895.689,4615.75 2895.689,4673.5 2845.676,4702.375 2845.676,4760.125 2895.689,4789.0 2895.689,4846.75 2945.702,4875.625 2945.702,4933.375" /><polygon id="18265" points="4246.039,3374.125 4196.026,3403.0 4146.013,3374.125 4096.0,3403.0 4045.987,3374.125 3995.974,3403.0 3945.961,3374.125 3895.948,3403.0 3845.935,3374.125 3795.922,3403.0 3795.922,3460.75 3745.909,3489.625 3695.896,3460.75 3645.883,3489.625 3645.883,3547.375 3595.87,3576.25 3595.87,3634.0 3545.857,3662.875 3545.857,3720.625 3595.87,3749.5 3645.883,3720.625 3695.896,3749.5 3695.896,3807.25 3745.909,3836.125 3745.909,3893.875 3795.922,3922.75 3795.922,3980.5 3845.935,4009.375 3845.935,4067.125 3895.948,4096.0 3945.961,4067.125 3995.974,4096.0 4045.987,4067.125 4096.0,4096.0 4146.013,4067.125 4196.026,4096.0 4246.039,4067.125 4296.052,4096.0 4346.065,4067.125 4396.078,4096.0 4446.091,4067.125 4496.104,4096.0 4546.117,4067.125 4546.117,4009.375 4596.13,3980.5 4596.13,3922.75 4646.143,3893.875 4646.143,3836.125 4596.13,3807.25 4546.117,3836.125 4496.104,3807.25 4496.104,3749.5 4446.091,3720.625 4446.091,3662.875 4396.078,3634.0 4396.078,3576.25 4346.065,3547.375 4346.065,3489.625 4296.052,3460.75 4296.052,3403.0" /><polygon id="18281" points="1795.404,3634.0 1795.404,3576.25 1745.391,3547.375 1745.391,3489.625 1695.378,3460.75 1695.378,3403.0 1745.391,3374.125 1745.391,3316.375 1695.378,3287.5 1695.378,3229.75 1645.365,3200.875 1595.352,3229.75 1595.352,3287.5 1545.339,3316.375 1545.339,3374.125 1495.326,3403.0 1495.326,3460.75 1445.313,3489.625 1395.3,3460.75 1345.287,3489.625 1295.274,3460.75 1245.261,3489.625 1195.248,3460.75 1145.235,3489.625 1145.235,3547.375 1095.222,3576.25 1095.222,3634.0 1045.209,3662.875 1045.209,3720.625 1095.222,3749.5 1095.222,3807.25 1045.209,3836.125 1045.209,3893.875 995.196,3922.75 995.196,3980.5 1045.209,4009.375 1045.209,4067.125 1095.222,4096.0 1145.235,4067.125 1195.248,4096.0 1245.261,4067.125 1295.274,4096.0 1345.287,4067.125 1395.3,4096.0 1445.313,4067.125 1495.326,4096.0 1545.339,4067.125 1595.352,4096.0 1645.365,4067.125 1695.378,4096.0 1745.391,4067.125 1745.391,4009.375 1695.378,3980.5 1695.378,3922.75 1745.391,3893.875 1745.391,3836.125 1795.404,3807.25 1795.404,3749.5 1845.416,3720.625 1845.416,3662.875" /><polygon id="18301" points="2295.533,2883.25 2295.533,2941.0 2345.546,2969.875 2345.546,3027.625 2295.533,3056.5 2295.533,3114.25 2245.52,3143.125 2245.52,3200.875 2195.507,3229.75 2145.494,3200.875 2095.481,3229.75 2095.481,3287.5 2045.468,3316.375 1995.455,3287.5 1945.442,3316.375 1895.429,3287.5 1845.416,3316.375 1795.404,3287.5 1745.391,3316.375 1695.378,3287.5 1695.378,3229.75 1645.365,3200.875 1645.365,3143.125 1595.352,3114.25 1595.352,3056.5 1645.365,3027.625 1645.365,2969.875 1695.378,2941.0 1695.378,2883.25 1745.391,2854.375 1795.404,2883.25 1845.416,2854.375 1845.416,2796.625 1895.429,2767.75 1895.429,2710.0 1945.442,2681.125 1945.442,2623.375 1995.455,2594.5 2045.468,2623.375 2045.468,2681.125 2095.481,2710.0 2095.481,2767.75 2145.494,2796.625 2145.494,2854.375 2195.507,2883.25 2245.52,2854.375" /><polygon id="18274" points="4496.104,4269.25 4546.117,4240.375 4596.13,4269.25 4596.13,4327.0 4646.143,4355.875 4696.156,4327.0 4746.169,4355.875 4796.182,4327.0 4846.195,4355.875 4896.207,4327.0 4946.22,4355.875 4946.22,4413.625 4896.207,4442.5 4896.207,4500.25 4946.22,4529.125 4946.22,4586.875 4896.207,4615.75 4846.195,4586.875 4846.195,4529.125 4796.182,4500.25 4746.169,4529.125 4696.156,4500.25 4646.143,4529.125 4596.13,4500.25 4546.117,4529.125 4496.104,4500.25 4496.104,4442.5 4546.117,4413.625 4546.117,4355.875 4496.104,4327.0" /><polygon id="18330" points="5796.441,4500.25 5846.454,4529.125 5846.454,4586.875 5796.441,4615.75 5796.441,4673.5 5746.428,4702.375 5746.428,4760.125 5696.415,4789.0 5696.415,4846.75 5646.402,4875.625 5646.402,4933.375 5596.389,4962.25 5546.376,4933.375 5496.363,4962.25 5446.35,4933.375 5396.337,4962.25 5346.324,4933.375 5346.324,4875.625 5296.311,4846.75 5296.311,4789.0 5346.324,4760.125 5346.324,4702.375 5396.337,4673.5 5396.337,4615.75 5446.35,4586.875 5446.35,4529.125 5496.363,4500.25 5546.376,4529.125 5596.389,4500.25 5646.402,4529.125 5696.415,4500.25 5746.428,4529.125" /></svg>